<svg id="Layer_1" xmlns="http://www.w3.org/2000/svg" viewBox="0 0 750 1158"><style>.st0{fill:none;stroke:#fff}.st1{enable-background:new}.st2{fill:#ff5400}.st3{fill:#fff}</style><path id="Path-10_1_" class="st0" d="M218.2 403.9l-.5-160.9"/><g class="st1"><path class="st2" d="M186.1 101.1h3.5c1 0 1.7-.5 2-1.5l.3-.8h.9l-.8 3.2h-9.7l.1-.8h.2c.6 0 1-.1 1.3-.3s.4-.5.5-.9l1.9-8.8c0-.2.1-.3.1-.4 0-.3-.1-.5-.2-.6s-.5-.2-1-.2h-.2l.2-.8h9.1l-.6 3.1h-.9l.1-.6v-.5c0-.8-.4-1.2-1.3-1.2h-3l-1 4.8h4.3l-.2.9h-4.3l-1.3 5.4zm9.6-7c-.1-.6-.5-1-1.2-1h-.2l.1-.8h2.7l.8 5.3c.2 1.4.3 2.4.4 3.2h.1c.9-.9 1.7-1.9 2.3-3 .7-1.2 1-2.1 1-2.8 0-.4-.1-.8-.3-1s-.5-.4-.8-.4c0-.4.1-.8.4-1s.5-.4.9-.4c.8 0 1.2.6 1.2 1.7s-.4 2.4-1.2 3.8-1.9 2.9-3.2 4.2l-1.6.2-1.4-8zm14.1-1.9c1.1 0 1.9.3 2.5 1s.9 1.6.9 2.8c0 1.6-.5 3-1.5 4.3-1 1.3-2.3 1.9-3.9 1.9-1.1 0-1.9-.3-2.5-1s-.9-1.6-.9-2.7c0-1.6.5-3.1 1.5-4.4s2.3-1.9 3.9-1.9zm-1.7 9.1c1 0 1.8-.6 2.4-1.8s.9-2.5.9-3.9c0-1.7-.6-2.5-1.8-2.5-1 0-1.8.6-2.4 1.8s-.9 2.5-.9 3.9c0 1.7.6 2.5 1.8 2.5zm7.7-12.2l.2-.8h3.4l-2.1 9.8c-.2.9-.3 1.5-.3 2 0 .6.2.9.6.9.3 0 .8-.2 1.3-.5l.3.5c-.8.7-1.6 1.1-2.4 1.1-.4 0-.8-.2-1.1-.5s-.4-.7-.4-1.2c0-.6.1-1.5.4-2.8l1.5-6.9c.1-.4.1-.6.1-.8 0-.6-.4-.8-1.3-.8h-.2zm4.8 3.3h3.3l-1.2 5.4c-.2 1.1-.4 1.8-.4 2.2 0 .7.3 1.1.9 1.1.6 0 1.3-.4 2-1.3s1.2-1.8 1.4-2.8l.9-4.5h1.7l-1.2 5.8c-.2.8-.3 1.5-.3 2 0 .6.2.9.6.9.3 0 .7-.1 1.2-.4l.3.5c-.8.7-1.5 1-2.3 1-.5 0-.8-.2-1.1-.5s-.4-.7-.4-1.2c0-.3 0-.7.1-1.1h-.1c-.7 1.1-1.2 1.8-1.7 2.2s-1.1.6-1.7.6c-1.3 0-1.9-.7-1.9-2 0-.4.1-1 .3-2l.7-3.2c.1-.5.2-.8.2-1.1 0-.6-.4-.9-1.3-.9h-.1l.1-.7zm15.1 8.2l.3.7c-.8.6-1.6.9-2.4.9-1.3 0-2-.7-2-2.1 0-.5.1-1 .2-1.5l1.1-5.2h-1.4l.2-.7c1.2 0 2.1-.8 2.8-2.5h.8l-.5 2.2h2.2l-.2 1h-2.2l-1.1 5.1c-.1.7-.2 1.2-.2 1.5 0 .7.3 1 1 1 .4 0 .9-.1 1.4-.4zm2.3-7.5l.2-.8h3.2l-1.2 5.8c-.2.9-.3 1.5-.3 2 0 .6.2.9.6.9.3 0 .8-.2 1.3-.5l.3.5c-.8.7-1.6 1.1-2.4 1.1-.4 0-.8-.2-1.1-.5s-.4-.7-.4-1.2.1-1.5.4-2.8l.7-3.3c0-.2.1-.4.1-.5 0-.5-.4-.8-1.1-.8h-.3zm2.9-2.5c-.7 0-1-.3-1-1 0-.4.1-.7.3-.9.2-.2.5-.3.8-.3.7 0 1 .3 1 1 0 .4-.1.7-.3.9-.2.1-.5.3-.8.3zm7.6 1.6c1.1 0 1.9.3 2.5 1s.9 1.6.9 2.8c0 1.6-.5 3-1.5 4.3-1 1.3-2.3 1.9-3.9 1.9-1.1 0-1.9-.3-2.5-1s-.9-1.6-.9-2.7c0-1.6.5-3.1 1.5-4.4s2.3-1.9 3.9-1.9zm-1.7 9.1c1 0 1.8-.6 2.4-1.8s.9-2.5.9-3.9c0-1.7-.6-2.5-1.8-2.5-1 0-1.8.6-2.4 1.8s-.9 2.5-.9 3.9c0 1.7.6 2.5 1.8 2.5zm8.3.7h-1.7l1.5-7.2c.1-.3.1-.6.1-.8 0-.6-.4-.9-1.3-.9h-.1l.2-.8h3.3l-.5 2.3h.2c1-1.6 2.1-2.4 3.3-2.4 1.3 0 1.9.7 1.9 2 0 .4-.1 1-.3 2l-.5 2.1c-.2.7-.2 1.4-.2 1.9 0 .6.2.9.6.9.3 0 .7-.1 1.2-.4l.3.5c-.8.7-1.5 1-2.2 1-.5 0-.9-.2-1.2-.5s-.4-.8-.4-1.3.1-1.4.3-2.4l.4-1.9c.2-.7.3-1.3.3-1.7 0-.7-.3-1.1-.8-1.1-.7 0-1.4.5-2.1 1.4s-1.1 1.8-1.3 2.7l-1 4.6z"/></g><g class="st1"><path class="st3" d="M189.7 123.3c1.5.4 2 1.6 2 2.7 0 1.8-1.4 3.1-3.3 3.1H184v-10.6h4c1.7 0 3.1.8 3.1 2.6 0 .7-.5 1.7-1.4 2.2zm-4.4-.4h2.5c.7 0 2-.3 2-1.7 0-1-.7-1.6-1.9-1.6h-2.7v3.3zm2.7.9h-2.7v4.1h2.8c1.9 0 2.3-1.2 2.3-2 .1-1.2-.9-2.1-2.4-2.1zm6.9-1.9v4.2c0 1.3.6 2.1 1.7 2.1 1.2 0 2.1-.8 2.1-2.7v-3.6h1.2v7.1h-.9l-.3-1h-.1c-.6.8-1.4 1.1-2.3 1.1-1.8 0-2.8-1-2.8-3v-4.3h1.4zm6.5 5.6c.8.6 1.7.8 2.3.8.8 0 1.6-.3 1.6-1.1 0-1.7-3.7-1.3-3.7-3.5 0-1.3 1.2-2 2.4-2 .6 0 1.4.1 2.1.5v1c-.7-.4-1.4-.6-2-.6-.7 0-1.4.2-1.4 1 0 1.3 3.6 1.1 3.6 3.4 0 1.3-1.1 2.1-2.7 2.1-.7 0-1.7-.1-2.4-.6v-1zm7.5-7c-.5 0-.8-.3-.8-.8s.4-.8.8-.8.8.3.8.8c0 .4-.4.8-.8.8zm-.6 8.5v-7.1h1.2v7.1h-1.2zm8.7 0v-4.2c0-1.3-.6-2.1-1.7-2.1-1.2 0-2.3.8-2.3 2.6v3.7h-1.2v-7.1h.8l.2 1.1h.1c.7-.9 1.6-1.2 2.5-1.2 1.8 0 2.8 1.1 2.8 3v4.3H217zm9.8-3.6v.3h-5.6c0 1.6 1.2 2.5 2.6 2.5.9 0 1.8-.2 2.7-.9v1.1c-.7.5-1.7.8-2.7.8-2.4 0-3.8-1.5-3.8-3.7 0-2.1 1.5-3.7 3.5-3.7 2.1-.1 3.3 1.5 3.3 3.6zm-5.6-.6h4.4c-.2-1.3-.9-2.1-2.1-2.1-1.3 0-2.1.8-2.3 2.1zm6.7 2.7c.8.6 1.7.8 2.3.8.8 0 1.6-.3 1.6-1.1 0-1.7-3.7-1.3-3.7-3.5 0-1.3 1.2-2 2.4-2 .6 0 1.4.1 2.1.5v1c-.7-.4-1.4-.6-2-.6-.7 0-1.4.2-1.4 1 0 1.3 3.6 1.1 3.6 3.4 0 1.3-1.1 2.1-2.7 2.1-.7 0-1.7-.1-2.4-.6v-1zm6 0c.8.6 1.7.8 2.3.8.8 0 1.6-.3 1.6-1.1 0-1.7-3.7-1.3-3.7-3.5 0-1.3 1.2-2 2.4-2 .6 0 1.4.1 2.1.5v1c-.7-.4-1.4-.6-2-.6-.7 0-1.4.2-1.4 1 0 1.3 3.6 1.1 3.6 3.4 0 1.3-1.1 2.1-2.7 2.1-.7 0-1.7-.1-2.4-.6v-1zm20.3 1.5v-4.3c0-1.4-.6-2-1.7-2-1 0-2 .7-2 2.6v3.7h-1.2v-4.3c0-1.4-.6-2-1.6-2-1.1 0-2 .8-2 2.6v3.7h-1.2v-7.1h.8l.2 1h.1c.7-.9 1.7-1.2 2.4-1.2 1.1 0 1.9.5 2.2 1.4.6-1 1.6-1.4 2.4-1.4 1.9 0 2.7 1.2 2.7 3v4.3h-1.1zm10.5-3.6c0 2.1-1.6 3.7-3.7 3.7-2.4 0-3.8-1.6-3.8-3.7s1.6-3.7 3.8-3.7c2.2 0 3.7 1.6 3.7 3.7zm-6.2 0c0 1.6.9 2.7 2.5 2.7s2.5-1.2 2.5-2.7c0-1.5-1-2.7-2.5-2.7s-2.5 1.2-2.5 2.7zm14-7.8h1.2V129h-.9l-.2-1h-.1c-.6.8-1.7 1.2-2.7 1.2-2.1 0-3.6-1.4-3.6-3.6 0-2.1 1.5-3.8 3.6-3.8.8 0 1.8.2 2.6 1h.1v-5.2zm-2.6 5.1c-1.5 0-2.5 1.2-2.5 2.7 0 1.6.9 2.7 2.5 2.7 1.5 0 2.5-1.2 2.5-2.7 0-1.4-.9-2.7-2.5-2.7zm12.2 2.7v.3h-5.6c0 1.6 1.2 2.5 2.6 2.5.9 0 1.8-.2 2.7-.9v1.1c-.7.5-1.7.8-2.7.8-2.4 0-3.8-1.5-3.8-3.7 0-2.1 1.5-3.7 3.5-3.7 2.1-.1 3.3 1.5 3.3 3.6zm-5.5-.6h4.4c-.2-1.3-.9-2.1-2.1-2.1-1.3 0-2.2.8-2.3 2.1zm7.4 4.2v-11.4h1.2V129H284z"/></g><g class="st1"><path class="st3" d="M184 143.4h3.6c2.5 0 3.8 1.7 3.8 3.5 0 2.2-1.7 3.6-3.8 3.6h-2.3v3.5H184v-10.6zm1.3 1.1v4.9h2.2c1.8 0 2.6-1.3 2.6-2.4 0-1.2-.8-2.5-2.8-2.5h-2zm8.9 6.1v3.4H193v-7.1h.8l.2 1.2c.5-.9 1.3-1.4 2.3-1.4.2 0 .4 0 .6.1v1.1c-.3-.1-.6-.1-.8-.1-1.1 0-1.9 1.2-1.9 2.8zm10.8-.2c0 2.1-1.6 3.7-3.7 3.7-2.4 0-3.8-1.6-3.8-3.7s1.6-3.7 3.8-3.7c2.2 0 3.7 1.6 3.7 3.7zm-6.3 0c0 1.6.9 2.7 2.5 2.7s2.5-1.2 2.5-2.7c0-1.5-1-2.7-2.5-2.7-1.4 0-2.5 1.2-2.5 2.7zm14-7.8h1.2V154h-.9l-.2-1h-.1c-.6.8-1.7 1.2-2.7 1.2-2.1 0-3.6-1.4-3.6-3.6 0-2.1 1.5-3.8 3.6-3.8.8 0 1.8.2 2.6 1h.1v-5.2zm-2.5 5.1c-1.5 0-2.5 1.2-2.5 2.7 0 1.6.9 2.7 2.5 2.7 1.5 0 2.5-1.2 2.5-2.7 0-1.4-.9-2.7-2.5-2.7zm7-.8v4.2c0 1.3.6 2.1 1.7 2.1 1.2 0 2.1-.8 2.1-2.7v-3.6h1.2v7.1h-.8l-.3-1h-.1c-.6.8-1.4 1.1-2.3 1.1-1.8 0-2.8-1-2.8-3v-4.3h1.3zm12.3.1v1.1c-.5-.3-1.2-.4-1.6-.4-1.5 0-2.7 1-2.7 2.8 0 1.6 1 2.7 2.6 2.7.6 0 1.4-.2 1.9-.5v1.1c-.5.3-1.5.5-2.2.5-2.4 0-3.6-1.6-3.6-3.6 0-2.2 1.6-3.8 3.7-3.8.7-.2 1.4-.1 1.9.1zm3.5-2.3v2.2h2v1h-2v4c0 .8.2 1.3 1 1.3.3 0 .8-.1 1.3-.4v1c-.5.3-1.1.5-1.5.5-1.8 0-2-1.2-2-2.9V148h-1.2v-.7l1.2-.3c.3-.7.6-1.4.8-2.1h.4zm2.9 7.8c.8.6 1.7.8 2.3.8.8 0 1.6-.3 1.6-1.1 0-1.7-3.7-1.3-3.7-3.5 0-1.3 1.2-2 2.4-2 .6 0 1.4.1 2.1.5v1c-.7-.4-1.4-.6-2-.6-.7 0-1.4.2-1.4 1 0 1.3 3.6 1.1 3.6 3.4 0 1.3-1.1 2.1-2.7 2.1-.7 0-1.7-.1-2.4-.6v-1z"/></g><g class="st1"><path class="st3" d="M183.3 177c1.2.8 2.3 1 3.1 1 1.4 0 2.5-.5 2.5-1.8 0-2.8-5.4-2.2-5.4-5.3 0-1.8 1.6-2.7 3.2-2.7.9 0 1.9.1 2.8.7v1.2c-.9-.6-1.9-.8-2.6-.8-1.1 0-2.1.4-2.1 1.6 0 2.1 5.3 1.7 5.3 5.2 0 2-1.5 3-3.6 3-.9 0-2.2-.2-3.3-.8V177zm15-1.6v.3h-5.6c0 1.6 1.2 2.5 2.6 2.5.9 0 1.8-.2 2.7-.9v1.1c-.7.5-1.7.8-2.7.8-2.4 0-3.8-1.5-3.8-3.7 0-2.1 1.5-3.7 3.5-3.7 2.1-.1 3.3 1.5 3.3 3.6zm-5.6-.6h4.4c-.2-1.3-.9-2.1-2.1-2.1-1.3 0-2.1.8-2.3 2.1zm8.6.8v3.4h-1.2v-7.1h.8l.2 1.2c.5-.9 1.3-1.4 2.3-1.4.2 0 .4 0 .6.1v1.1c-.3-.1-.6-.1-.8-.1-1 0-1.9 1.2-1.9 2.8zm6.6 3.5l-3.4-7.2h1.3l2.3 5 2.3-5h1.3l-3.5 7.2h-.3zm5.9-8.6c-.5 0-.8-.3-.8-.8s.4-.8.8-.8.8.3.8.8c-.1.4-.4.8-.8.8zm-.7 8.5v-7.1h1.2v7.1h-1.2zm8.8-7v1.1c-.5-.3-1.2-.4-1.6-.4-1.5 0-2.7 1-2.7 2.8 0 1.6 1 2.7 2.6 2.7.6 0 1.4-.2 1.9-.5v1.1c-.5.3-1.5.5-2.2.5-2.4 0-3.6-1.6-3.6-3.6 0-2.2 1.6-3.8 3.7-3.8.6-.2 1.4-.1 1.9.1zm7.9 3.4v.3h-5.6c0 1.6 1.2 2.5 2.6 2.5.9 0 1.8-.2 2.7-.9v1.1c-.7.5-1.7.8-2.7.8-2.4 0-3.8-1.5-3.8-3.7 0-2.1 1.5-3.7 3.5-3.7 2.1-.1 3.3 1.5 3.3 3.6zm-5.5-.6h4.4c-.2-1.3-.9-2.1-2.1-2.1-1.3 0-2.2.8-2.3 2.1zm6.7 2.7c.8.6 1.7.8 2.3.8.8 0 1.6-.3 1.6-1.1 0-1.7-3.7-1.3-3.7-3.5 0-1.3 1.2-2 2.4-2 .6 0 1.4.1 2.1.5v1c-.7-.4-1.4-.6-2-.6-.7 0-1.4.2-1.4 1 0 1.3 3.6 1.1 3.6 3.4 0 1.3-1.1 2.1-2.7 2.1-.7 0-1.7-.1-2.4-.6v-1z"/></g><g class="st1"><path class="st3" d="M191.2 204H184v-10.6h6.8v1.1h-5.5v3.4h5v1.1h-5v4h5.9v1zm4.2-3.4l-2.3 3.4h-1.3l2.5-3.6c-.8-1.2-1.5-2.3-2.3-3.5h1.3l2.2 3.3 2.1-3.3h1.3c-.8 1.2-1.6 2.3-2.3 3.5l2.5 3.7h-1.3c-.9-1.2-1.6-2.4-2.4-3.5zm5.9 6.8h-1.2v-10.6h.8l.2 1h.1c.6-.8 1.7-1.2 2.7-1.2 2.1 0 3.6 1.4 3.6 3.7 0 2.1-1.5 3.8-3.6 3.8-.8 0-1.8-.2-2.6-1h-.1v4.3zm2.5-4.3c1.6 0 2.5-1.2 2.5-2.7 0-1.6-.9-2.7-2.5-2.7-1.5 0-2.5 1.2-2.5 2.7 0 1.5.9 2.7 2.5 2.7zm12-2.7v.3h-5.6c0 1.6 1.2 2.5 2.6 2.5.9 0 1.8-.2 2.7-.9v1.1c-.7.5-1.7.8-2.7.8-2.4 0-3.8-1.5-3.8-3.7 0-2.1 1.5-3.7 3.5-3.7 2.1-.1 3.3 1.5 3.3 3.6zm-5.6-.6h4.4c-.2-1.3-.9-2.1-2.1-2.1-1.2 0-2.1.8-2.3 2.1zm8.7.8v3.4h-1.2v-7.1h.8l.2 1.2c.5-.9 1.3-1.4 2.3-1.4.2 0 .4 0 .6.1v1.1c-.3-.1-.6-.1-.8-.1-1.1 0-1.9 1.2-1.9 2.8zm4.8-5.1c-.5 0-.8-.3-.8-.8s.4-.8.8-.8.8.3.8.8c0 .4-.4.8-.8.8zm-.6 8.5v-7.1h1.2v7.1h-1.2zm10-3.6v.3h-5.6c0 1.6 1.2 2.5 2.6 2.5.9 0 1.8-.2 2.7-.9v1.1c-.7.5-1.7.8-2.7.8-2.4 0-3.8-1.5-3.8-3.7 0-2.1 1.5-3.7 3.5-3.7 2.1-.1 3.3 1.5 3.3 3.6zm-5.5-.6h4.4c-.2-1.3-.9-2.1-2.1-2.1-1.3 0-2.2.8-2.3 2.1zm12.6 4.2v-4.2c0-1.3-.6-2.1-1.7-2.1-1.2 0-2.3.8-2.3 2.6v3.7H235v-7.1h.8l.2 1.1h.1c.7-.9 1.6-1.2 2.5-1.2 1.8 0 2.8 1.1 2.8 3v4.3h-1.2zm8.5-7v1.1c-.5-.3-1.2-.4-1.6-.4-1.5 0-2.7 1-2.7 2.8 0 1.6 1 2.7 2.6 2.7.6 0 1.4-.2 1.9-.5v1.1c-.5.3-1.5.5-2.2.5-2.4 0-3.6-1.6-3.6-3.6 0-2.2 1.6-3.8 3.7-3.8.6-.2 1.4-.1 1.9.1zm8 3.4v.3h-5.6c0 1.6 1.2 2.5 2.6 2.5.9 0 1.8-.2 2.7-.9v1.1c-.7.5-1.7.8-2.7.8-2.4 0-3.8-1.5-3.8-3.7 0-2.1 1.5-3.7 3.5-3.7 2.1-.1 3.3 1.5 3.3 3.6zm-5.6-.6h4.4c-.2-1.3-.9-2.1-2.1-2.1-1.3 0-2.1.8-2.3 2.1zm6.7 2.7c.8.6 1.7.8 2.3.8.8 0 1.6-.3 1.6-1.1 0-1.7-3.7-1.3-3.7-3.5 0-1.3 1.2-2 2.4-2 .6 0 1.4.1 2.1.5v1c-.7-.4-1.4-.6-2-.6-.7 0-1.4.2-1.4 1 0 1.3 3.6 1.1 3.6 3.4 0 1.3-1.1 2.1-2.7 2.1-.7 0-1.7-.1-2.4-.6v-1z"/></g><g class="st1"><path class="st3" d="M184 218.4h3.6c2.5 0 3.8 1.7 3.8 3.5 0 2.2-1.7 3.6-3.8 3.6h-2.3v3.5H184v-10.6zm1.3 1.1v4.9h2.2c1.8 0 2.6-1.3 2.6-2.4 0-1.2-.8-2.5-2.8-2.5h-2zm8.9 6.1v3.4H193v-7.1h.8l.2 1.2c.5-.9 1.3-1.4 2.3-1.4.2 0 .4 0 .6.1v1.1c-.3-.1-.6-.1-.8-.1-1.1 0-1.9 1.2-1.9 2.8zm10.8-.2c0 2.1-1.6 3.7-3.7 3.7-2.4 0-3.8-1.6-3.8-3.7s1.6-3.7 3.8-3.7c2.2 0 3.7 1.6 3.7 3.7zm-6.3 0c0 1.6.9 2.7 2.5 2.7s2.5-1.2 2.5-2.7c0-1.5-1-2.7-2.5-2.7-1.4 0-2.5 1.2-2.5 2.7zM212 222v1.1c-.5-.3-1.2-.4-1.6-.4-1.5 0-2.7 1-2.7 2.8 0 1.6 1 2.7 2.6 2.7.6 0 1.4-.2 1.9-.5v1.1c-.5.3-1.5.5-2.2.5-2.4 0-3.6-1.6-3.6-3.6 0-2.2 1.6-3.8 3.7-3.8.6-.2 1.4-.1 1.9.1zm8 3.4v.3h-5.6c0 1.6 1.2 2.5 2.6 2.5.9 0 1.8-.2 2.7-.9v1.1c-.7.5-1.7.8-2.7.8-2.4 0-3.8-1.5-3.8-3.7 0-2.1 1.5-3.7 3.5-3.7 2.1-.1 3.3 1.5 3.3 3.6zm-5.6-.6h4.4c-.2-1.3-.9-2.1-2.1-2.1-1.3 0-2.1.8-2.3 2.1zm6.7 2.7c.8.6 1.7.8 2.3.8.8 0 1.6-.3 1.6-1.1 0-1.7-3.7-1.3-3.7-3.5 0-1.3 1.2-2 2.4-2 .6 0 1.4.1 2.1.5v1c-.7-.4-1.4-.6-2-.6-.7 0-1.4.2-1.4 1 0 1.3 3.6 1.1 3.6 3.4 0 1.3-1.1 2.1-2.7 2.1-.7 0-1.7-.1-2.4-.6v-1zm6 0c.8.6 1.7.8 2.3.8.8 0 1.6-.3 1.6-1.1 0-1.7-3.7-1.3-3.7-3.5 0-1.3 1.2-2 2.4-2 .6 0 1.4.1 2.1.5v1c-.7-.4-1.4-.6-2-.6-.7 0-1.4.2-1.4 1 0 1.3 3.6 1.1 3.6 3.4 0 1.3-1.1 2.1-2.7 2.1-.7 0-1.7-.1-2.4-.6v-1zm13.2-2.1v.3h-5.6c0 1.6 1.2 2.5 2.6 2.5.9 0 1.8-.2 2.7-.9v1.1c-.7.5-1.7.8-2.7.8-2.4 0-3.8-1.5-3.8-3.7 0-2.1 1.5-3.7 3.5-3.7 2.1-.1 3.3 1.5 3.3 3.6zm-5.6-.6h4.4c-.2-1.3-.9-2.1-2.1-2.1-1.2 0-2.1.8-2.3 2.1zm6.7 2.7c.8.6 1.7.8 2.3.8.8 0 1.6-.3 1.6-1.1 0-1.7-3.7-1.3-3.7-3.5 0-1.3 1.2-2 2.4-2 .6 0 1.4.1 2.1.5v1c-.7-.4-1.4-.6-2-.6-.7 0-1.4.2-1.4 1 0 1.3 3.6 1.1 3.6 3.4 0 1.3-1.1 2.1-2.7 2.1-.7 0-1.7-.1-2.4-.6v-1z"/></g></svg>