<svg id="Layer_1" xmlns="http://www.w3.org/2000/svg" viewBox="0 0 750 1158"><style>.st0{fill:none;stroke:#fff}.st1{enable-background:new}.st2{fill:#ff5400}.st3{fill:#fff}</style><path id="Path-11" class="st0" d="M375.4 867l-.5 75"/><g class="st1"><path class="st2" d="M344.3 967c0 .9.2 1.7.7 2.2.5.6 1.2.8 2 .8s1.5-.2 2-.6.7-1 .7-1.7c0-.6-.1-1-.4-1.4s-.9-.9-1.8-1.4c-1-.6-1.6-1.1-2-1.7s-.6-1.2-.6-2c0-1 .4-1.9 1.2-2.5.8-.6 1.8-1 3.2-1 1 0 1.9.2 2.5.5s.9.8.9 1.4c0 .8-.5 1.2-1.6 1.2 0-.7-.2-1.3-.5-1.7s-.8-.6-1.5-.6-1.3.2-1.8.6-.7 1-.7 1.7c0 .5.1 1 .4 1.3.2.4.9.8 1.9 1.4.9.6 1.6 1.1 2 1.6s.6 1.2.6 1.9c0 1.2-.4 2.1-1.2 2.8-.8.7-2 1-3.5 1-1.2 0-2.2-.2-2.9-.7-.7-.5-1.1-1.1-1.1-1.8 0-.4.1-.7.4-1 .3-.2.7-.3 1.1-.3zm13.7 2.4l.3.7c-.8.6-1.6.9-2.4.9-1.3 0-2-.7-2-2.1 0-.5.1-1 .2-1.5l1.1-5.2h-1.4l.2-.7c1.2 0 2.1-.8 2.8-2.5h.8l-.5 2.2h2.2l-.2 1h-2.2l-1.1 5.1c-.1.7-.2 1.2-.2 1.5 0 .7.3 1 1 1 .4 0 .9-.1 1.4-.4zm7.8-1.4h-.1c-.9 1.9-2 2.9-3.4 2.9-.7 0-1.3-.3-1.7-.9s-.6-1.4-.6-2.4c0-1.7.5-3.2 1.5-4.6s2.3-2.1 3.8-2.1c.8 0 1.5.2 2.1.7l.8-.5h.6l-1.2 5.8c-.2.8-.3 1.5-.3 2 0 .6.2.9.6.9.3 0 .8-.2 1.3-.5l.3.5c-.9.7-1.7 1.1-2.5 1.1-.9 0-1.4-.5-1.4-1.5 0-.3 0-.8.2-1.4zm1-5.6c-.3-.4-.7-.7-1.4-.7-1 0-1.9.7-2.6 2-.7 1.3-1 2.6-1 4s.4 2.1 1.1 2.1c.6 0 1.2-.4 1.9-1.3s1.1-1.9 1.3-2.9l.7-3.2zm8.9 1.4c.9-.8 1.3-1.3 1.3-1.7 0-.2-.3-.3-.8-.3l.2-.8h4l-.2.8c-.7 0-1.7.6-2.9 1.7l-1.6 1.5 1.6 3.6c.5 1 1.1 1.5 1.8 1.5l-.2.8c-1 0-1.7-.1-2.2-.3-.5-.2-.9-.7-1.2-1.5l-1.2-2.9-1.6 1-.7 3.6h-1.7l2.3-11.1c.1-.5.2-.8.2-.9 0-.6-.4-.8-1.3-.8h-.1l.2-.8h3.3l-.7 3.3c-.6 3-1.1 5-1.4 5.9l2.9-2.6zm11 4.7c.1.1.2.2.2.4 0 .5-.3.9-.8 1.3-.6.4-1.3.6-2.3.6-1 0-1.9-.3-2.5-1s-1-1.6-1-2.7c0-1.6.5-3 1.5-4.3 1-1.3 2.3-2 3.8-2 .8 0 1.4.2 1.8.5s.6.9.6 1.5c0 1-.5 1.8-1.5 2.5s-2.2 1.1-3.7 1.1h-.6v.8c0 1.6.7 2.4 2 2.4.9.2 1.8-.2 2.5-1.1zm-4.4-2.7h.2c1.1 0 1.9-.3 2.6-.8s1-1.2 1-2-.3-1.2-1-1.2c-.6 0-1.1.4-1.6 1.1-.5.7-.9 1.7-1.2 2.9zm10.2-2.4c1-1.6 2.1-2.4 3.3-2.4 1.3 0 1.9.7 1.9 2 0 .4-.1 1-.3 2l-.4 2c-.2.7-.2 1.4-.2 1.9 0 .6.2.9.6.9.3 0 .7-.1 1.2-.4l.3.5c-.8.7-1.5 1-2.2 1-.5 0-.9-.2-1.2-.5s-.4-.8-.4-1.3.1-1.4.3-2.4l.4-1.9c.2-.7.3-1.3.3-1.7 0-.7-.3-1.1-.8-1.1-.7 0-1.4.5-2.1 1.4-.7.9-1.2 1.8-1.3 2.7l-1 4.6h-1.7l2.3-11.1c.1-.5.2-.8.2-.9 0-.6-.4-.8-1.3-.8h-.1l.2-.8h3.3l-.7 3.3c-.2 1-.4 2-.7 3h.1zm12.8-2.5c1.1 0 1.9.3 2.5 1s.9 1.6.9 2.8c0 1.6-.5 3-1.5 4.3-1 1.3-2.3 1.9-3.9 1.9-1.1 0-1.9-.3-2.5-1s-.9-1.6-.9-2.7c0-1.6.5-3.1 1.5-4.4s2.3-1.9 3.9-1.9zm-1.7 9.2c1 0 1.8-.6 2.4-1.8s.9-2.5.9-3.9c0-1.7-.6-2.5-1.8-2.5-1 0-1.8.6-2.4 1.8s-.9 2.5-.9 3.9c0 1.6.6 2.5 1.8 2.5zm7.7-12.3l.2-.8h3.4l-2.1 9.8c-.2.9-.3 1.5-.3 2 0 .6.2.9.6.9.3 0 .8-.2 1.3-.5l.3.5c-.8.7-1.6 1.1-2.4 1.1-.4 0-.8-.2-1.1-.5s-.4-.7-.4-1.2c0-.6.1-1.5.4-2.8l1.5-6.9c.1-.4.1-.6.1-.8 0-.6-.4-.8-1.3-.8h-.2zm10.2 10.2h-.1c-.9 1.9-2 2.9-3.4 2.9-.7 0-1.3-.3-1.7-.9s-.6-1.4-.6-2.4c0-1.7.5-3.2 1.5-4.6s2.3-2.1 3.8-2.1c.7 0 1.3.1 1.8.4.1-.6.2-.9.2-1l.2-.9c.1-.4.1-.7.1-.8 0-.6-.4-.8-1.3-.8l.2-.8h3.3l-2.1 9.8c-.2.8-.3 1.5-.3 2 0 .6.2.9.6.9.3 0 .8-.2 1.3-.5l.3.5c-.9.7-1.7 1.1-2.5 1.1-.9 0-1.4-.5-1.4-1.5-.1-.2 0-.7.1-1.3zm1-5.6c-.3-.4-.7-.7-1.4-.7-1 0-1.9.7-2.6 2-.7 1.3-1 2.6-1 4s.4 2.1 1.1 2.1c.6 0 1.2-.4 1.9-1.3s1.1-1.9 1.3-2.9l.7-3.2zm10.1 6.1c.1.1.2.2.2.4 0 .5-.3.9-.8 1.3-.6.4-1.3.6-2.3.6-1 0-1.9-.3-2.5-1s-1-1.6-1-2.7c0-1.6.5-3 1.5-4.3 1-1.3 2.3-2 3.8-2 .8 0 1.4.2 1.8.5s.6.9.6 1.5c0 1-.5 1.8-1.5 2.5s-2.2 1.1-3.7 1.1h-.6v.8c0 1.6.7 2.4 2 2.4.9.2 1.8-.2 2.5-1.1zm-4.4-2.7h.2c1.1 0 1.9-.3 2.6-.8s1-1.2 1-2-.3-1.2-1-1.2c-.6 0-1.1.4-1.6 1.1-.5.7-.9 1.7-1.2 2.9zm13.1-2.3c0-.9-.2-1.4-.7-1.4-.6 0-1.1.5-1.8 1.6s-1.1 2.3-1.4 3.7l-.7 3.3H435l1.5-7.2c.1-.3.1-.6.1-.8 0-.6-.5-.9-1.4-.9h-.1l.2-.8h3.2l-.4 2.6h.2c.5-1.1 1-1.8 1.4-2.2s1-.6 1.6-.6c1 0 1.5.4 1.5 1.2 0 1.1-.5 1.5-1.5 1.5zM453 969c.4-1 .9-2 1.5-3l3.2-5.7c.2-.4.3-.7.3-1 0-.4-.3-.6-1-.6h-.4l.1-.8h4.4l-.2.8h-.3c-.4 0-.7.1-.9.3-.2.2-.5.6-.7 1.1l-6 10.7h-1.3l-1.5-11.1c0-.4-.1-.6-.3-.7-.2-.1-.4-.2-.8-.2h-.2l.2-.8h4.9l-.1.8h-.4c-.4 0-.7.1-.9.2s-.4.4-.4.7v.6l.7 5.8c0 .9.1 1.9.1 2.9zm12-1h-.1c-.9 1.9-2 2.9-3.4 2.9-.7 0-1.3-.3-1.7-.9-.4-.6-.6-1.4-.6-2.4 0-1.7.5-3.2 1.5-4.6 1-1.4 2.3-2.1 3.8-2.1.8 0 1.5.2 2.1.7l.8-.5h.6l-1.2 5.8c-.2.8-.3 1.5-.3 2 0 .6.2.9.6.9.3 0 .8-.2 1.3-.5l.3.5c-.9.7-1.7 1.1-2.5 1.1-.9 0-1.4-.5-1.4-1.5 0-.3.1-.8.2-1.4zm1-5.6c-.3-.4-.7-.7-1.4-.7-1 0-1.9.7-2.6 2-.7 1.3-1 2.6-1 4s.4 2.1 1.1 2.1c.6 0 1.2-.4 1.9-1.3s1.1-1.9 1.3-2.9l.7-3.2zm4.7-4.6l.2-.8h3.4l-2.1 9.8c-.2.9-.3 1.5-.3 2 0 .6.2.9.6.9.3 0 .8-.2 1.3-.5l.3.5c-.8.7-1.6 1.1-2.4 1.1-.4 0-.8-.2-1.1-.5-.3-.3-.4-.7-.4-1.2 0-.6.1-1.5.4-2.8l1.5-6.9c.1-.4.1-.6.1-.8 0-.6-.4-.8-1.3-.8h-.2zm4.8 3.3h3.3l-1.2 5.4c-.2 1.1-.4 1.8-.4 2.2 0 .7.3 1.1.9 1.1.6 0 1.3-.4 2-1.3s1.2-1.8 1.4-2.8l.9-4.5h1.7l-1.2 5.8c-.2.8-.3 1.5-.3 2 0 .6.2.9.6.9.3 0 .7-.1 1.2-.4l.3.5c-.8.7-1.5 1-2.3 1-.5 0-.8-.2-1.1-.5-.3-.3-.4-.7-.4-1.2 0-.3 0-.7.1-1.1-.7 1.1-1.2 1.8-1.7 2.2-.5.4-1.1.6-1.7.6-1.3 0-1.9-.7-1.9-2 0-.4.1-1 .3-2l.7-3.2c.1-.5.2-.8.2-1.1 0-.6-.4-.9-1.3-.9h-.1v-.7zm16.8 7.4c.1.1.2.2.2.4 0 .5-.3.9-.8 1.3-.6.4-1.3.6-2.3.6-1 0-1.9-.3-2.5-1s-1-1.6-1-2.7c0-1.6.5-3 1.5-4.3 1-1.3 2.3-2 3.8-2 .8 0 1.4.2 1.8.5.4.4.6.9.6 1.5 0 1-.5 1.8-1.5 2.5s-2.2 1.1-3.7 1.1h-.6v.8c0 1.6.7 2.4 2 2.4.9.2 1.8-.2 2.5-1.1zm-4.4-2.7h.2c1.1 0 1.9-.3 2.6-.8s1-1.2 1-2-.3-1.2-1-1.2c-.6 0-1.1.4-1.6 1.1-.5.7-.9 1.7-1.2 2.9z"/></g><g class="st1"><path class="st3" d="M351.2 997.8H344v-10.6h6.8v1.1h-5.5v3.4h5v1.1h-5v4h5.9v1zm11.3 0v-4.3c0-1.4-.6-2-1.7-2-1 0-2 .7-2 2.6v3.7h-1.2v-4.3c0-1.4-.6-2-1.6-2-1.1 0-2 .8-2 2.6v3.7h-1.2v-7.1h.8l.2 1h.1c.7-.9 1.7-1.2 2.4-1.2 1.1 0 1.9.5 2.2 1.4.6-1 1.6-1.4 2.4-1.4 1.9 0 2.7 1.2 2.7 3v4.3h-1.1zm4.4 3.4h-1.2v-10.6h.8l.2 1h.1c.6-.8 1.7-1.2 2.7-1.2 2.1 0 3.6 1.4 3.6 3.7 0 2.1-1.5 3.8-3.6 3.8-.8 0-1.8-.2-2.6-1h-.1v4.3zm2.6-4.3c1.6 0 2.5-1.2 2.5-2.7 0-1.6-.9-2.7-2.5-2.7-1.5 0-2.5 1.2-2.5 2.7-.1 1.5.9 2.7 2.5 2.7zm5.5.9v-11.4h1.2v11.4H375zm10.6-3.6c0 2.1-1.6 3.7-3.7 3.7-2.4 0-3.8-1.6-3.8-3.7s1.6-3.7 3.8-3.7c2.2 0 3.7 1.6 3.7 3.7zm-6.3 0c0 1.6.9 2.7 2.5 2.7s2.5-1.2 2.5-2.7c0-1.5-1-2.7-2.5-2.7s-2.5 1.2-2.5 2.7zm10.4 1.9c.7-1.8 1.5-3.7 2.2-5.5h1.2l-4.4 10.6h-1.2c.5-1.2 1-2.5 1.6-3.7l-2.9-6.8h1.2c.7 1.8 1.4 3.6 2.3 5.4zm10.6-2v.3h-5.6c0 1.6 1.2 2.5 2.6 2.5.9 0 1.8-.2 2.7-.9v1.1c-.7.5-1.7.8-2.7.8-2.4 0-3.8-1.5-3.8-3.7 0-2.1 1.5-3.7 3.5-3.7 2.1 0 3.3 1.6 3.3 3.6zm-5.5-.5h4.4c-.2-1.3-.9-2.1-2.1-2.1-1.3-.1-2.2.8-2.3 2.1zm13.9.5v.3h-5.6c0 1.6 1.2 2.5 2.6 2.5.9 0 1.8-.2 2.7-.9v1.1c-.7.5-1.7.8-2.7.8-2.4 0-3.8-1.5-3.8-3.7 0-2.1 1.5-3.7 3.5-3.7 2.1 0 3.3 1.6 3.3 3.6zm-5.6-.5h4.4c-.2-1.3-.9-2.1-2.1-2.1-1.3-.1-2.1.8-2.3 2.1zm6.7 2.6c.8.6 1.7.8 2.3.8.8 0 1.6-.3 1.6-1.1 0-1.7-3.7-1.3-3.7-3.5 0-1.3 1.2-2 2.4-2 .6 0 1.4.1 2.1.5v1c-.7-.4-1.4-.6-2-.6-.7 0-1.4.2-1.4 1 0 1.3 3.6 1.1 3.6 3.4 0 1.3-1.1 2.1-2.7 2.1-.7 0-1.7-.1-2.4-.6v-1z"/></g><g class="st1"><path class="st3" d="M343.3 1020.8c1.2.8 2.3 1 3.1 1 1.4 0 2.5-.5 2.5-1.8 0-2.8-5.4-2.2-5.4-5.3 0-1.8 1.6-2.7 3.2-2.7.9 0 1.9.1 2.8.7v1.2c-.9-.6-1.9-.8-2.6-.8-1.1 0-2.1.4-2.1 1.6 0 2.1 5.3 1.7 5.3 5.2 0 2-1.5 3-3.6 3-.9 0-2.2-.2-3.3-.8v-1.3zm13.6 2v-4.2c0-1.3-.6-2-1.7-2-1.2 0-2.2.8-2.2 2.6v3.7h-1.2v-11.4h1.2v5.3c.8-.9 1.6-1.2 2.4-1.2 1.7 0 2.7 1.1 2.7 2.9v4.3h-1.2zm8.1-1c-.5.7-1.4 1.1-2.6 1.1-2 0-2.5-1.2-2.5-2 0-1.5 1-2.5 3.3-2.5h1.7v-.2c0-1.2-.7-1.7-2-1.7-.7 0-1.5.2-2.3.7v-1c.7-.4 1.7-.6 2.4-.6 2.2 0 3 1.1 3 2.8v4.5h-.9l-.1-1.1zm-2.2.2c1.4 0 2.1-1.1 2.1-2.2v-.5h-1.7c-1.3 0-2.1.5-2.1 1.5 0 .8.8 1.2 1.7 1.2zm6.7-2.7v3.4h-1.2v-7.1h.8l.2 1.2c.5-.9 1.3-1.4 2.3-1.4.2 0 .4 0 .6.1v1.1c-.3-.1-.6-.1-.8-.1-1.1.1-1.9 1.2-1.9 2.8zm10.2-.2v.3h-5.6c0 1.6 1.2 2.5 2.6 2.5.9 0 1.8-.2 2.7-.9v1.1c-.7.5-1.7.8-2.7.8-2.4 0-3.8-1.5-3.8-3.7 0-2.1 1.5-3.7 3.5-3.7 2.1 0 3.3 1.6 3.3 3.6zm-5.6-.5h4.4c-.2-1.3-.9-2.1-2.1-2.1-1.3-.1-2.1.8-2.3 2.1zm12.5 4.2v-4.2c0-1.3-.6-2-1.7-2-1.2 0-2.2.8-2.2 2.6v3.7h-1.2v-11.4h1.2v5.3c.8-.9 1.6-1.2 2.4-1.2 1.7 0 2.7 1.1 2.7 2.9v4.3h-1.2zm10.6-3.6c0 2.1-1.6 3.7-3.7 3.7-2.4 0-3.8-1.6-3.8-3.7s1.6-3.7 3.8-3.7c2.1 0 3.7 1.6 3.7 3.7zm-6.3 0c0 1.6.9 2.7 2.5 2.7s2.5-1.2 2.5-2.7c0-1.5-1-2.7-2.5-2.7s-2.5 1.2-2.5 2.7zm8.1 3.6v-11.4h1.2v11.4H399zm9.3-11.4h1.2v11.4h-.9l-.2-1h-.1c-.6.8-1.7 1.2-2.7 1.2-2.1 0-3.6-1.4-3.6-3.6 0-2.1 1.5-3.8 3.6-3.8.8 0 1.8.2 2.6 1h.1v-5.2zm-2.6 5.1c-1.5 0-2.5 1.2-2.5 2.7 0 1.6.9 2.7 2.5 2.7 1.5 0 2.5-1.2 2.5-2.7.1-1.5-.8-2.7-2.5-2.7zm12.3 2.6v.3h-5.6c0 1.6 1.2 2.5 2.6 2.5.9 0 1.8-.2 2.7-.9v1.1c-.7.5-1.7.8-2.7.8-2.4 0-3.8-1.5-3.8-3.7 0-2.1 1.5-3.7 3.5-3.7 2.1 0 3.3 1.6 3.3 3.6zm-5.6-.5h4.4c-.2-1.3-.9-2.1-2.1-2.1-1.3-.1-2.1.8-2.3 2.1zm8.7.7v3.4h-1.2v-7.1h.8l.2 1.2c.5-.9 1.3-1.4 2.3-1.4.2 0 .4 0 .6.1v1.1c-.3-.1-.6-.1-.8-.1-1.1.1-1.9 1.2-1.9 2.8zm3.3 1.9c.8.6 1.7.8 2.3.8.8 0 1.6-.3 1.6-1.1 0-1.7-3.7-1.3-3.7-3.5 0-1.3 1.2-2 2.4-2 .6 0 1.4.1 2.1.5v1c-.7-.4-1.4-.6-2-.6-.7 0-1.4.2-1.4 1 0 1.3 3.6 1.1 3.6 3.4 0 1.3-1.1 2.1-2.7 2.1-.7 0-1.7-.1-2.4-.6v-1z"/></g><g class="st1"><path class="st3" d="M352.2 1047.2c-.8.5-2.2.7-3.1.7-3.5 0-5.4-2.4-5.4-5.4 0-3.2 2.4-5.5 5.5-5.5.7 0 1.9.1 2.6.5v1.2c-.9-.5-1.8-.6-2.5-.6-2.4 0-4.3 1.6-4.3 4.4 0 2.6 1.6 4.3 4.2 4.3.9 0 2-.3 3-.8v1.2zm2.7-6.6v4.2c0 1.3.6 2.1 1.7 2.1 1.2 0 2.1-.8 2.1-2.7v-3.6h1.2v7.1h-.8l-.3-1h-.1c-.6.8-1.4 1.1-2.3 1.1-1.8 0-2.8-1-2.8-3v-4.3h1.3zm6.5 5.6c.8.6 1.7.8 2.3.8.8 0 1.6-.3 1.6-1.1 0-1.7-3.7-1.3-3.7-3.5 0-1.3 1.2-2 2.4-2 .6 0 1.4.1 2.1.5v1c-.7-.4-1.4-.6-2-.6-.7 0-1.4.2-1.4 1 0 1.3 3.6 1.1 3.6 3.4 0 1.3-1.1 2.1-2.7 2.1-.7 0-1.7-.1-2.4-.6v-1zm8.4-7.8v2.2h2v1h-2v4c0 .8.2 1.3 1 1.3.3 0 .8-.1 1.3-.4v1c-.5.3-1.1.5-1.5.5-1.8 0-2-1.2-2-2.9v-3.4h-1.2v-.7l1.2-.3c.3-.7.6-1.4.8-2.1h.4zm10.8 5.8c0 2.1-1.6 3.7-3.7 3.7-2.4 0-3.8-1.6-3.8-3.7s1.6-3.7 3.8-3.7c2.2 0 3.7 1.6 3.7 3.7zm-6.3 0c0 1.6.9 2.7 2.5 2.7s2.5-1.2 2.5-2.7c0-1.5-1-2.7-2.5-2.7s-2.5 1.2-2.5 2.7zm17.8 3.6v-4.3c0-1.4-.6-2-1.7-2-1 0-2 .7-2 2.6v3.7h-1.2v-4.3c0-1.4-.6-2-1.6-2-1.1 0-2 .8-2 2.6v3.7h-1.2v-7.1h.8l.2 1h.1c.7-.9 1.7-1.2 2.4-1.2 1.1 0 1.9.5 2.2 1.4.6-1 1.6-1.4 2.4-1.4 1.9 0 2.7 1.2 2.7 3v4.3h-1.1zm9.9-3.7v.3h-5.6c0 1.6 1.2 2.5 2.6 2.5.9 0 1.8-.2 2.7-.9v1.1c-.7.5-1.7.8-2.7.8-2.4 0-3.8-1.5-3.8-3.7 0-2.1 1.5-3.7 3.5-3.7 2.1 0 3.3 1.6 3.3 3.6zm-5.6-.5h4.4c-.2-1.3-.9-2.1-2.1-2.1-1.2-.1-2.1.8-2.3 2.1zm8.7.7v3.4h-1.2v-7.1h.8l.2 1.2c.5-.9 1.3-1.4 2.3-1.4.2 0 .4 0 .6.1v1.1c-.3-.1-.6-.1-.8-.1-1.1.1-1.9 1.2-1.9 2.8zm3.3 1.9c.8.6 1.7.8 2.3.8.8 0 1.6-.3 1.6-1.1 0-1.7-3.7-1.3-3.7-3.5 0-1.3 1.2-2 2.4-2 .6 0 1.4.1 2.1.5v1c-.7-.4-1.4-.6-2-.6-.7 0-1.4.2-1.4 1 0 1.3 3.6 1.1 3.6 3.4 0 1.3-1.1 2.1-2.7 2.1-.7 0-1.7-.1-2.4-.6v-1z"/></g><g class="st1"><path class="st3" d="M344.2 1072.8v-10.6h1.3v10.6h-1.3zm9 0v-4.2c0-1.3-.6-2.1-1.7-2.1-1.2 0-2.3.8-2.3 2.6v3.7H348v-7.1h.8l.2 1.1h.1c.7-.9 1.6-1.2 2.5-1.2 1.8 0 2.8 1.1 2.8 3v4.3h-1.2zm5.9.1l-3.4-7.2h1.3l2.3 5 2.3-5h1.3l-3.5 7.2h-.3zm11.1-3.8v.3h-5.6c0 1.6 1.2 2.5 2.6 2.5.9 0 1.8-.2 2.7-.9v1.1c-.7.5-1.7.8-2.7.8-2.4 0-3.8-1.5-3.8-3.7 0-2.1 1.5-3.7 3.5-3.7 2.1 0 3.3 1.6 3.3 3.6zm-5.6-.5h4.4c-.2-1.3-.9-2.1-2.1-2.1-1.3-.1-2.1.8-2.3 2.1zm6.7 2.6c.8.6 1.7.8 2.3.8.8 0 1.6-.3 1.6-1.1 0-1.7-3.7-1.3-3.7-3.5 0-1.3 1.2-2 2.4-2 .6 0 1.4.1 2.1.5v1c-.7-.4-1.4-.6-2-.6-.7 0-1.4.2-1.4 1 0 1.3 3.6 1.1 3.6 3.4 0 1.3-1.1 2.1-2.7 2.1-.7 0-1.7-.1-2.4-.6v-1zm8.4-7.8v2.2h2v1h-2v4c0 .8.2 1.3 1 1.3.3 0 .8-.1 1.3-.4v1c-.5.3-1.1.5-1.5.5-1.8 0-2-1.2-2-2.9v-3.4h-1.2v-.7l1.2-.3c.3-.7.6-1.4.8-2.1h.4zm10.8 5.8c0 2.1-1.6 3.7-3.7 3.7-2.4 0-3.8-1.6-3.8-3.7s1.6-3.7 3.8-3.7c2.2 0 3.7 1.6 3.7 3.7zm-6.3 0c0 1.6.9 2.7 2.5 2.7s2.5-1.2 2.5-2.7c0-1.5-1-2.7-2.5-2.7s-2.5 1.2-2.5 2.7zm9.4.1v3.4h-1.2v-7.1h.8l.2 1.2c.5-.9 1.3-1.4 2.3-1.4.2 0 .4 0 .6.1v1.1c-.3-.1-.6-.1-.8-.1-1.1.1-1.9 1.2-1.9 2.8zm3.3 1.9c.8.6 1.7.8 2.3.8.8 0 1.6-.3 1.6-1.1 0-1.7-3.7-1.3-3.7-3.5 0-1.3 1.2-2 2.4-2 .6 0 1.4.1 2.1.5v1c-.7-.4-1.4-.6-2-.6-.7 0-1.4.2-1.4 1 0 1.3 3.6 1.1 3.6 3.4 0 1.3-1.1 2.1-2.7 2.1-.7 0-1.7-.1-2.4-.6v-1z"/></g><g class="st1"><path class="st3" d="M344 1087.2h3.6c2.5 0 3.8 1.7 3.8 3.5 0 2.2-1.7 3.6-3.8 3.6h-2.3v3.5H344v-10.6zm1.3 1v4.9h2.2c1.8 0 2.6-1.3 2.6-2.4 0-1.2-.8-2.5-2.8-2.5h-2zm11.9 8.6c-.5.7-1.4 1.1-2.6 1.1-2 0-2.5-1.2-2.5-2 0-1.5 1-2.5 3.3-2.5h1.7v-.2c0-1.2-.7-1.7-2-1.7-.7 0-1.5.2-2.3.7v-1c.7-.4 1.7-.6 2.4-.6 2.2 0 3 1.1 3 2.8v4.5h-.9l-.1-1.1zm-2.2.2c1.4 0 2.1-1.1 2.1-2.2v-.5h-1.7c-1.3 0-2.1.5-2.1 1.5 0 .8.8 1.2 1.7 1.2zm6.7-2.7v3.4h-1.2v-7.1h.8l.2 1.2c.5-.9 1.3-1.4 2.3-1.4.2 0 .4 0 .6.1v1.1c-.3-.1-.6-.1-.8-.1-1.1.1-1.9 1.2-1.9 2.8zm5.7-5.9v2.2h2v1h-2v4c0 .8.2 1.3 1 1.3.3 0 .8-.1 1.3-.4v1c-.5.3-1.1.5-1.5.5-1.8 0-2-1.2-2-2.9v-3.4H365v-.7l1.2-.3c.3-.7.6-1.4.8-2.1h.4zm8.8 9.4v-4.2c0-1.3-.6-2.1-1.7-2.1-1.2 0-2.3.8-2.3 2.6v3.7H371v-7.1h.8l.2 1.1h.1c.7-.9 1.6-1.2 2.5-1.2 1.8 0 2.8 1.1 2.8 3v4.3h-1.2zm9.7-3.7v.3h-5.6c0 1.6 1.2 2.5 2.6 2.5.9 0 1.8-.2 2.7-.9v1.1c-.7.5-1.7.8-2.7.8-2.4 0-3.8-1.5-3.8-3.7 0-2.1 1.5-3.7 3.5-3.7 2.1 0 3.3 1.6 3.3 3.6zm-5.5-.5h4.4c-.2-1.3-.9-2.1-2.1-2.1-1.3-.1-2.1.8-2.3 2.1zm8.6.7v3.4h-1.2v-7.1h.8l.2 1.2c.5-.9 1.3-1.4 2.3-1.4.2 0 .4 0 .6.1v1.1c-.3-.1-.6-.1-.8-.1-1.1.1-1.9 1.2-1.9 2.8zm3.3 1.9c.8.6 1.7.8 2.3.8.8 0 1.6-.3 1.6-1.1 0-1.7-3.7-1.3-3.7-3.5 0-1.3 1.2-2 2.4-2 .6 0 1.4.1 2.1.5v1c-.7-.4-1.4-.6-2-.6-.7 0-1.4.2-1.4 1 0 1.3 3.6 1.1 3.6 3.4 0 1.3-1.1 2.1-2.7 2.1-.7 0-1.7-.1-2.4-.6v-1z"/></g></svg>