<svg id="Layer_1" xmlns="http://www.w3.org/2000/svg" viewBox="0 0 750 1158"><style>.st0{fill:none;stroke:#fff}.st1{enable-background:new}.st2{fill:#ff5400}.st3{fill:#fff}</style><path id="Path-12" class="st0" d="M133.7 694.4l.5 209.2"/><g class="st1"><path class="st2" d="M72.8 937.7h3.5c1 0 1.7-.5 2-1.5l.3-.8h.9l-.8 3.1H69l.1-.8h.2c.6 0 1-.1 1.3-.3s.4-.5.5-.9l1.9-8.8c0-.2.1-.3.1-.4 0-.3-.1-.5-.2-.6s-.5-.2-1-.2h-.2l.2-.8H81l-.6 3.1h-.9l.1-.6v-.5c0-.8-.4-1.2-1.3-1.2h-3l-1 4.8h4.3l-.2.9h-4.3l-1.3 5.5zm10.3.9h-1.7l1.5-7.2c.1-.3.1-.6.1-.8 0-.6-.4-.9-1.3-.9h-.1l.2-.8h3.3l-.5 2.3h.2c1-1.6 2.1-2.4 3.3-2.4 1.3 0 1.9.7 1.9 2 0 .4-.1 1-.3 2l-.5 2.1c-.2.7-.2 1.4-.2 1.9 0 .6.2.9.6.9.3 0 .7-.1 1.2-.4l.3.5c-.8.7-1.5 1-2.2 1-.5 0-.9-.2-1.2-.5s-.4-.8-.4-1.3.1-1.4.3-2.4l.4-1.9c.2-.7.3-1.3.3-1.7 0-.7-.3-1.1-.8-1.1-.7 0-1.4.5-2.1 1.4s-1.1 1.8-1.3 2.7l-1 4.6zm10.1-7.9c-.1-.6-.5-1-1.2-1h-.2l.1-.8h2.7l.8 5.3c.2 1.4.3 2.4.4 3.2h.1c.9-.9 1.7-1.9 2.3-3 .7-1.2 1-2.1 1-2.8 0-.4-.1-.8-.3-1s-.5-.4-.8-.4c0-.4.1-.8.4-1s.5-.4.9-.4c.8 0 1.2.6 1.2 1.7s-.4 2.4-1.2 3.8-1.9 2.9-3.2 4.2l-1.6.2-1.4-8zm9-1l.2-.8h3.2l-1.2 5.8c-.2.9-.3 1.5-.3 2 0 .6.2.9.6.9.3 0 .8-.2 1.3-.5l.3.5c-.8.7-1.6 1.1-2.4 1.1-.4 0-.8-.2-1.1-.5s-.4-.7-.4-1.2.1-1.5.4-2.8l.7-3.3c0-.2.1-.4.1-.5 0-.5-.4-.8-1.1-.8h-.3zm3-2.5c-.7 0-1-.3-1-1 0-.4.1-.7.3-.9.2-.2.5-.3.8-.3.7 0 1 .3 1 1 0 .4-.1.7-.3.9-.3.1-.5.3-.8.3zm8.4 4.2c0-.9-.2-1.4-.7-1.4-.6 0-1.1.5-1.8 1.6s-1.1 2.3-1.4 3.7l-.7 3.3h-1.7l1.5-7.2c.1-.3.1-.6.1-.8 0-.6-.5-.9-1.4-.9h-.1l.2-.8h3.2l-.4 2.6h.2c.5-1.1 1-1.8 1.4-2.2s1-.6 1.6-.6c1 0 1.5.4 1.5 1.2 0 1-.5 1.5-1.5 1.5zm7.6-2.6c1.1 0 1.9.3 2.5 1s.9 1.6.9 2.8c0 1.6-.5 3-1.5 4.3-1 1.3-2.3 1.9-3.9 1.9-1.1 0-1.9-.3-2.5-1s-.9-1.6-.9-2.7c0-1.6.5-3.1 1.5-4.4s2.3-1.9 3.9-1.9zm-1.7 9.1c1 0 1.8-.6 2.4-1.8s.9-2.5.9-3.9c0-1.7-.6-2.5-1.8-2.5-1 0-1.8.6-2.4 1.8s-.9 2.5-.9 3.9c0 1.7.6 2.5 1.8 2.5zm8.3.7h-1.7l1.5-7.2c.1-.3.1-.6.1-.8 0-.6-.4-.9-1.3-.9h-.1l.2-.8h3.3l-.5 2.3h.2c1-1.6 2.1-2.4 3.3-2.4 1.3 0 1.9.7 1.9 2 0 .4-.1 1-.3 2l-.5 2.1c-.2.7-.2 1.4-.2 1.9 0 .6.2.9.6.9.3 0 .7-.1 1.2-.4l.3.5c-.8.7-1.5 1-2.2 1-.5 0-.9-.2-1.2-.5s-.4-.8-.4-1.3.1-1.4.3-2.4l.4-1.9c.2-.7.3-1.3.3-1.7 0-.7-.3-1.1-.8-1.1-.7 0-1.4.5-2.1 1.4s-1.1 1.8-1.3 2.7l-1 4.6zm16.4 0h-1.7c0-.3.1-.9.2-1.9.2-1 .3-1.7.4-2.2l.4-1.9c.2-.7.3-1.3.3-1.7 0-.7-.3-1.1-.8-1.1-.7 0-1.4.5-2.1 1.4-.7.9-1.2 1.8-1.3 2.7l-1 4.6h-1.7l1.5-7.2c.1-.3.1-.6.1-.8 0-.6-.4-.9-1.3-.9h-.1l.2-.8h3.3l-.5 2.3h.2c1-1.6 2.1-2.4 3.3-2.4 1.3 0 1.9.7 1.9 2v.4h.2c1-1.6 2.1-2.4 3.3-2.4 1.3 0 1.9.7 1.9 2 0 .4-.1 1-.3 2l-.5 2.1c-.2.7-.2 1.3-.2 1.9 0 .6.2.9.6.9.3 0 .7-.1 1.2-.4l.3.5c-.8.7-1.5 1-2.2 1-.5 0-.9-.2-1.2-.5s-.4-.8-.4-1.3.1-1.4.3-2.4l.3-1.4c.3-1.2.4-1.9.4-2.1 0-.7-.3-1.1-.8-1.1-.6 0-1.3.4-1.9 1.2s-1.1 1.6-1.4 2.5l-.3 1.3c-.1.3-.2 1-.3 1.9s-.3 1.6-.3 1.8zm15.3-2.2c.1.1.2.2.2.4 0 .5-.3.9-.8 1.3-.6.4-1.3.6-2.3.6-1 0-1.9-.3-2.5-1s-1-1.6-1-2.7c0-1.6.5-3 1.5-4.3 1-1.3 2.3-2 3.8-2 .8 0 1.4.2 1.8.5s.6.9.6 1.5c0 1-.5 1.8-1.5 2.5s-2.2 1.1-3.7 1.1h-.6v.8c0 1.6.7 2.4 2 2.4.9.1 1.8-.3 2.5-1.1zm-4.4-2.8h.2c1.1 0 1.9-.3 2.6-.8s1-1.2 1-2-.3-1.2-1-1.2c-.6 0-1.1.4-1.6 1.1-.5.8-.9 1.7-1.2 2.9zm8.5 5h-1.7l1.5-7.2c.1-.3.1-.6.1-.8 0-.6-.4-.9-1.3-.9h-.1l.2-.8h3.3l-.5 2.3h.2c1-1.6 2.1-2.4 3.3-2.4 1.3 0 1.9.7 1.9 2 0 .4-.1 1-.3 2l-.5 2.1c-.2.7-.2 1.4-.2 1.9 0 .6.2.9.6.9.3 0 .7-.1 1.2-.4l.3.5c-.8.7-1.5 1-2.2 1-.5 0-.9-.2-1.2-.5s-.4-.8-.4-1.3.1-1.4.3-2.4l.4-1.9c.2-.7.3-1.3.3-1.7 0-.7-.3-1.1-.8-1.1-.7 0-1.4.5-2.1 1.4s-1.1 1.8-1.3 2.7l-1 4.6zm13.7-1.4l.3.7c-.8.6-1.6.9-2.4.9-1.3 0-2-.7-2-2.1 0-.5.1-1 .2-1.5l1.1-5.2h-1.4l.2-.7c1.2 0 2.1-.8 2.8-2.5h.8l-.5 2.2h2.2l-.2 1h-2.2l-1.1 5.1c-.1.7-.2 1.2-.2 1.5 0 .7.3 1 1 1 .5 0 1-.1 1.4-.4z"/></g><g class="st1"><path class="st3" d="M78.2 958.3c0 1.5-1 2.8-2.9 3.3l3.5 3.9h-1.6c-1.2-1.5-2.5-3-3.7-4.4v-.1c2.4-.1 3.5-1.3 3.5-2.5 0-1.5-1.1-2.4-2.6-2.4H72v9.5h-1.3V955h3.8c1.8 0 3.7 1.1 3.7 3.3zm8.1 3.7v.3h-5.6c0 1.6 1.2 2.5 2.6 2.5.9 0 1.8-.2 2.7-.9v1.1c-.7.5-1.7.8-2.7.8-2.4 0-3.8-1.5-3.8-3.7 0-2.1 1.5-3.7 3.5-3.7 2.1-.1 3.3 1.5 3.3 3.6zm-5.6-.6h4.4c-.2-1.3-.9-2.1-2.1-2.1-1.2 0-2.1.8-2.3 2.1zm12.6 4.2v-4.2c0-1.3-.6-2.1-1.7-2.1-1.2 0-2.3.8-2.3 2.6v3.7h-1.2v-7.1h.9l.2 1.1h.1c.7-.9 1.6-1.2 2.5-1.2 1.8 0 2.8 1.1 2.8 3v4.3h-1.3zm9.7-3.6v.3h-5.6c0 1.6 1.2 2.5 2.6 2.5.9 0 1.8-.2 2.7-.9v1.1c-.7.5-1.7.8-2.7.8-2.4 0-3.8-1.5-3.8-3.7 0-2.1 1.5-3.7 3.5-3.7 2.1-.1 3.3 1.5 3.3 3.6zm-5.5-.6h4.4c-.2-1.3-.9-2.1-2.1-2.1-1.3 0-2.2.8-2.3 2.1zm11.8-3l2.3 4.9h.1l1.9-4.9h1.2c-1 2.4-2 4.9-3 7.3h-.2l-2.4-5.1-2.3 5.1h-.2l-3-7.3h1.2l1.9 4.9c.8-1.6 1.5-3.3 2.3-4.9h.2zm11.5 6.3c-.5.7-1.4 1.1-2.6 1.1-2 0-2.5-1.2-2.5-2 0-1.5 1-2.5 3.3-2.5h1.7v-.3c0-1.2-.7-1.7-2-1.7-.7 0-1.5.2-2.3.7v-1c.7-.4 1.7-.6 2.4-.6 2.2 0 3 1.1 3 2.8v4.5h-.8l-.2-1zm-2.3.2c1.4 0 2.1-1.1 2.1-2.2v-.5h-1.7c-1.3 0-2.1.5-2.1 1.5 0 .7.8 1.2 1.7 1.2zm6.6-5.4c.7-.9 1.8-1.2 2.6-1.2 2.1 0 3.6 1.6 3.6 3.7s-1.5 3.7-3.7 3.7c-1 0-2.1-.4-2.6-1.3l-.2 1.1h-.8v-11.4h1.2l-.1 5.4zm2.5 5.3c1.5 0 2.5-1.2 2.5-2.7 0-1.5-1-2.7-2.5-2.7s-2.5 1.2-2.5 2.7c0 1.6 1 2.7 2.5 2.7zm5.6.8v-11.4h1.2v11.4h-1.2zm9.8-3.6v.3h-5.6c0 1.6 1.2 2.5 2.6 2.5.9 0 1.8-.2 2.7-.9v1.1c-.7.5-1.7.8-2.7.8-2.4 0-3.8-1.5-3.8-3.7 0-2.1 1.5-3.7 3.5-3.7 2.1-.1 3.3 1.5 3.3 3.6zm-5.5-.6h4.4c-.2-1.3-.9-2.1-2.1-2.1-1.3 0-2.1.8-2.3 2.1zm17.7.6v.3h-5.6c0 1.6 1.2 2.5 2.6 2.5.9 0 1.8-.2 2.7-.9v1.1c-.7.5-1.7.8-2.7.8-2.4 0-3.8-1.5-3.8-3.7 0-2.1 1.5-3.7 3.5-3.7 2.1-.1 3.3 1.5 3.3 3.6zm-5.6-.6h4.4c-.2-1.3-.9-2.1-2.1-2.1-1.2 0-2.1.8-2.3 2.1zm12.6 4.2v-4.2c0-1.3-.6-2.1-1.7-2.1-1.2 0-2.3.8-2.3 2.6v3.7H157v-7.1h.8l.2 1.1h.1c.7-.9 1.6-1.2 2.5-1.2 1.8 0 2.8 1.1 2.8 3v4.3h-1.2zm9.7-3.6v.3h-5.6c0 1.6 1.2 2.5 2.6 2.5.9 0 1.8-.2 2.7-.9v1.1c-.7.5-1.7.8-2.7.8-2.4 0-3.8-1.5-3.8-3.7 0-2.1 1.5-3.7 3.5-3.7 2.1-.1 3.3 1.5 3.3 3.6zm-5.5-.6h4.4c-.2-1.3-.9-2.1-2.1-2.1-1.3 0-2.2.8-2.3 2.1zm8.6.8v3.4h-1.2v-7.1h.8l.2 1.2c.5-.9 1.3-1.4 2.3-1.4.2 0 .4 0 .6.1v1.1c-.3-.1-.6-.1-.8-.1-1.1 0-1.9 1.2-1.9 2.8zm4.3 2.9h-.5c-.6-.1-.8-.4-.8-.9l1.3-1.2c-.5-.5-.8-1.1-.8-1.9 0-1.5 1.2-2.7 2.9-2.7.4 0 .8.1 1.2.2h2.4v.7c-.4 0-.9.1-1.3.2.4.4.7 1.1.7 1.7 0 1.5-1.2 2.6-2.9 2.6-.4 0-1.1-.1-1.5-.4l-.7.8 3.6.4c1.2.1 2 .7 2 1.8s-1.1 2.8-3.7 2.8c-2.2 0-3-1.1-3-2.1 0-.8.4-1.5 1.1-2zm4.4 1.2c0-.5-.4-.8-1-.8l-2.7-.3c-.4.4-.7 1-.7 1.6 0 .7.4 1.4 1.9 1.4 1.8-.1 2.5-1.2 2.5-1.9zm-.4-5.3c0-1-.8-1.8-1.8-1.8s-1.8.8-1.8 1.8.7 1.8 1.8 1.8 1.8-.8 1.8-1.8zm6 3c.7-1.8 1.5-3.7 2.2-5.5h1.2l-4.4 10.6h-1.2c.5-1.2 1-2.5 1.6-3.7l-2.9-6.8h1.2c.8 1.7 1.5 3.5 2.3 5.4z"/></g><g class="st1"><path class="st3" d="M70 988.6c1.2.8 2.3 1 3.1 1 1.4 0 2.5-.5 2.5-1.8 0-2.8-5.4-2.2-5.4-5.3 0-1.8 1.6-2.7 3.2-2.7.9 0 1.9.1 2.8.7v1.2c-.9-.6-1.9-.8-2.6-.8-1.1 0-2.1.4-2.1 1.6 0 2.1 5.3 1.7 5.3 5.2 0 2-1.5 3-3.6 3-.9 0-2.2-.2-3.3-.8v-1.3zm9.7-5.1v4.2c0 1.3.6 2.1 1.7 2.1 1.2 0 2.1-.8 2.1-2.7v-3.6h1.2v7.1h-.8l-.3-1h-.1c-.6.8-1.4 1.1-2.3 1.1-1.8 0-2.8-1-2.8-3v-4.3h1.3zm6.5 5.6c.8.6 1.7.8 2.3.8.8 0 1.6-.3 1.6-1.1 0-1.7-3.7-1.3-3.7-3.5 0-1.3 1.2-2 2.4-2 .6 0 1.4.1 2.1.5v1c-.7-.4-1.4-.6-2-.6-.7 0-1.4.2-1.4 1 0 1.3 3.6 1.1 3.6 3.4 0 1.3-1.1 2.1-2.7 2.1-.7 0-1.7-.1-2.4-.6v-1zm8.4-7.8v2.2h2v1h-2v4c0 .8.2 1.3 1 1.3.3 0 .8-.1 1.3-.4v1c-.5.3-1.1.5-1.5.5-1.8 0-2-1.2-2-2.9v-3.4h-1.2v-.7l1.2-.3c.3-.7.6-1.4.8-2.1h.4zm8.4 8.4c-.5.7-1.4 1.1-2.6 1.1-2 0-2.5-1.2-2.5-2 0-1.5 1-2.5 3.3-2.5h1.7v-.3c0-1.2-.7-1.7-2-1.7-.7 0-1.5.2-2.3.7v-1c.7-.4 1.7-.6 2.4-.6 2.2 0 3 1.1 3 2.8v4.5h-.9l-.1-1zm-2.3.2c1.4 0 2.1-1.1 2.1-2.2v-.5h-1.7c-1.3 0-2.1.5-2.1 1.5.1.7.8 1.2 1.7 1.2zm6.4-7.8c-.5 0-.8-.3-.8-.8s.4-.8.8-.8.8.3.8.8c-.1.4-.4.8-.8.8zm-.6 8.5v-7.1h1.2v7.1h-1.2zm8.7 0v-4.2c0-1.3-.6-2.1-1.7-2.1-1.2 0-2.3.8-2.3 2.6v3.7H110v-7.1h.8l.2 1.1h.1c.7-.9 1.6-1.2 2.5-1.2 1.8 0 2.8 1.1 2.8 3v4.3h-1.2zm8.2-.9c-.5.7-1.4 1.1-2.6 1.1-2 0-2.5-1.2-2.5-2 0-1.5 1-2.5 3.3-2.5h1.7v-.3c0-1.2-.7-1.7-2-1.7-.7 0-1.5.2-2.3.7v-1c.7-.4 1.7-.6 2.4-.6 2.2 0 3 1.1 3 2.8v4.5h-.9l-.1-1zm-2.3.2c1.4 0 2.1-1.1 2.1-2.2v-.5h-1.7c-1.3 0-2.1.5-2.1 1.5 0 .7.8 1.2 1.7 1.2zm6.6-5.4c.7-.9 1.8-1.2 2.6-1.2 2.1 0 3.6 1.6 3.6 3.7s-1.5 3.7-3.7 3.7c-1 0-2.1-.4-2.6-1.3l-.2 1.1h-.8v-11.4h1.2l-.1 5.4zm2.5 5.3c1.5 0 2.5-1.2 2.5-2.7 0-1.5-1-2.7-2.5-2.7s-2.5 1.2-2.5 2.7c0 1.6 1 2.7 2.5 2.7zm5.6.8v-11.4h1.2v11.4h-1.2zm9.8-3.6v.3H140c0 1.6 1.2 2.5 2.6 2.5.9 0 1.8-.2 2.7-.9v1.1c-.7.5-1.7.8-2.7.8-2.4 0-3.8-1.5-3.8-3.7 0-2.1 1.5-3.7 3.5-3.7 2.1-.1 3.3 1.5 3.3 3.6zm-5.5-.6h4.4c-.2-1.3-.9-2.1-2.1-2.1-1.3 0-2.2.8-2.3 2.1zm20.9 4.2v-4.3c0-1.4-.6-2-1.7-2-1 0-2 .7-2 2.6v3.7h-1.2v-4.3c0-1.4-.6-2-1.6-2-1.1 0-2 .8-2 2.6v3.7h-1.2v-7.1h.8l.2 1h.1c.7-.9 1.7-1.2 2.4-1.2 1.1 0 1.9.5 2.2 1.4.6-1 1.6-1.4 2.4-1.4 1.9 0 2.7 1.2 2.7 3v4.3H161zm8.2-.9c-.5.7-1.4 1.1-2.6 1.1-2 0-2.5-1.2-2.5-2 0-1.5 1-2.5 3.3-2.5h1.7v-.3c0-1.2-.7-1.7-2-1.7-.7 0-1.5.2-2.3.7v-1c.7-.4 1.7-.6 2.4-.6 2.2 0 3 1.1 3 2.8v4.5h-.9l-.1-1zm-2.3.2c1.4 0 2.1-1.1 2.1-2.2v-.5h-1.7c-1.3 0-2.1.5-2.1 1.5 0 .7.8 1.2 1.7 1.2zm7.2-8.6v2.2h2v1h-2v4c0 .8.2 1.3 1 1.3.3 0 .8-.1 1.3-.4v1c-.5.3-1.1.5-1.5.5-1.8 0-2-1.2-2-2.9v-3.4h-1.2v-.7l1.2-.3c.3-.7.6-1.4.8-2.1h.4zm10.1 5.7v.3h-5.6c0 1.6 1.2 2.5 2.6 2.5.9 0 1.8-.2 2.7-.9v1.1c-.7.5-1.7.8-2.7.8-2.4 0-3.8-1.5-3.8-3.7 0-2.1 1.5-3.7 3.5-3.7 2.1-.1 3.3 1.5 3.3 3.6zm-5.5-.6h4.4c-.2-1.3-.9-2.1-2.1-2.1-1.3 0-2.2.8-2.3 2.1zm8.6.8v3.4h-1.2v-7.1h.8l.2 1.2c.5-.9 1.3-1.4 2.3-1.4.2 0 .4 0 .6.1v1.1c-.3-.1-.6-.1-.8-.1-1.1 0-1.9 1.2-1.9 2.8zm4.8-5.1c-.5 0-.8-.3-.8-.8s.4-.8.8-.8.8.3.8.8c0 .4-.4.8-.8.8zm-.6 8.5v-7.1h1.2v7.1h-1.2zm8.3-.9c-.5.7-1.4 1.1-2.6 1.1-2 0-2.5-1.2-2.5-2 0-1.5 1-2.5 3.3-2.5h1.7v-.3c0-1.2-.7-1.7-2-1.7-.7 0-1.5.2-2.3.7v-1c.7-.4 1.7-.6 2.4-.6 2.2 0 3 1.1 3 2.8v4.5h-.8l-.2-1zm-2.2.2c1.4 0 2.1-1.1 2.1-2.2v-.5H198c-1.3 0-2.1.5-2.1 1.5 0 .7.7 1.2 1.7 1.2zm5.5.7v-11.4h1.2v11.4h-1.2zm2.7-1.5c.8.6 1.7.8 2.3.8.8 0 1.6-.3 1.6-1.1 0-1.7-3.7-1.3-3.7-3.5 0-1.3 1.2-2 2.4-2 .6 0 1.4.1 2.1.5v1c-.7-.4-1.4-.6-2-.6-.7 0-1.4.2-1.4 1 0 1.3 3.6 1.1 3.6 3.4 0 1.3-1.1 2.1-2.7 2.1-.7 0-1.7-.1-2.4-.6v-1z"/></g><g class="st1"><path class="st3" d="M76.6 1007.9l-2.8 7.8h-.2l-4-10.6h1.3l2.8 7.6 2.8-7.7h.2l2.8 7.7 2.8-7.6h1.3l-4 10.6h-.2l-2.8-7.8zm12.2 6.8c-.5.7-1.4 1.1-2.6 1.1-2 0-2.5-1.2-2.5-2 0-1.5 1-2.5 3.3-2.5h1.7v-.2c0-1.2-.7-1.7-2-1.7-.7 0-1.5.2-2.3.7v-1c.7-.4 1.7-.6 2.4-.6 2.2 0 3 1.1 3 2.8v4.5H89l-.2-1.1zm-2.3.2c1.4 0 2.1-1.1 2.1-2.2v-.5h-1.7c-1.3 0-2.1.5-2.1 1.5 0 .7.8 1.2 1.7 1.2zm4.8-.8c.8.6 1.7.8 2.3.8.8 0 1.6-.3 1.6-1.1 0-1.7-3.7-1.3-3.7-3.5 0-1.3 1.2-2 2.4-2 .6 0 1.4.1 2.1.5v1c-.7-.4-1.4-.6-2-.6-.7 0-1.4.2-1.4 1 0 1.3 3.6 1.1 3.6 3.4 0 1.3-1.1 2.1-2.7 2.1-.7 0-1.7-.1-2.4-.6v-1zm8.4-7.8v2.2h2v1h-2v4c0 .8.2 1.3 1 1.3.3 0 .8-.1 1.3-.4v1c-.5.3-1.1.5-1.5.5-1.8 0-2-1.2-2-2.9v-3.4h-1.2v-.7l1.2-.3c.3-.7.6-1.4.8-2.1h.4zm10.2 5.7v.3h-5.6c0 1.6 1.2 2.5 2.6 2.5.9 0 1.8-.2 2.7-.9v1.1c-.7.5-1.7.8-2.7.8-2.4 0-3.8-1.5-3.8-3.7 0-2.1 1.5-3.7 3.5-3.7 2.1-.1 3.3 1.5 3.3 3.6zm-5.6-.6h4.4c-.2-1.3-.9-2.1-2.1-2.1-1.3 0-2.1.8-2.3 2.1zm12.5.8v3.4h-1.2v-7.1h.8l.2 1.2c.5-.9 1.3-1.4 2.3-1.4.2 0 .4 0 .6.1v1.1c-.3-.1-.6-.1-.8-.1-1.1 0-1.9 1.2-1.9 2.8zm10.1-.2v.3h-5.6c0 1.6 1.2 2.5 2.6 2.5.9 0 1.8-.2 2.7-.9v1.1c-.7.5-1.7.8-2.7.8-2.4 0-3.8-1.5-3.8-3.7 0-2.1 1.5-3.7 3.5-3.7 2.1-.1 3.3 1.5 3.3 3.6zm-5.5-.6h4.4c-.2-1.3-.9-2.1-2.1-2.1-1.3 0-2.2.8-2.3 2.1zm13.3-7.2h1.2v11.4h-.9l-.2-1h-.1c-.6.8-1.7 1.2-2.7 1.2-2.1 0-3.6-1.4-3.6-3.6 0-2.1 1.5-3.8 3.6-3.8.8 0 1.8.2 2.6 1h.1v-5.2zm-2.6 5.1c-1.5 0-2.5 1.2-2.5 2.7 0 1.6.9 2.7 2.5 2.7 1.5 0 2.5-1.2 2.5-2.7 0-1.4-.9-2.7-2.5-2.7zm7-.8v4.2c0 1.3.6 2.1 1.7 2.1 1.2 0 2.1-.8 2.1-2.7v-3.6h1.2v7.1h-.8l-.3-1c-.6.8-1.4 1.1-2.3 1.1-1.8 0-2.8-1-2.8-3v-4.3h1.2zm12.4.1v1.1c-.5-.3-1.2-.4-1.6-.4-1.5 0-2.7 1-2.7 2.8 0 1.6 1 2.7 2.6 2.7.6 0 1.4-.2 1.9-.5v1.1c-.5.3-1.5.5-2.2.5-2.4 0-3.6-1.6-3.6-3.6 0-2.2 1.6-3.8 3.7-3.8.6-.2 1.3-.1 1.9.1zm3.4-2.3v2.2h2v1h-2v4c0 .8.2 1.3 1 1.3.3 0 .8-.1 1.3-.4v1c-.5.3-1.1.5-1.5.5-1.8 0-2-1.2-2-2.9v-3.4h-1.2v-.7l1.2-.3c.3-.7.6-1.4.8-2.1h.4zm4.5.8c-.5 0-.8-.3-.8-.8s.4-.8.8-.8.8.3.8.8c-.1.4-.4.8-.8.8zm-.7 8.5v-7.1h1.2v7.1h-1.2zm10.5-3.6c0 2.1-1.6 3.7-3.7 3.7-2.4 0-3.8-1.6-3.8-3.7s1.6-3.7 3.8-3.7c2.1 0 3.7 1.6 3.7 3.7zm-6.3 0c0 1.6.9 2.7 2.5 2.7s2.5-1.2 2.5-2.7c0-1.5-1-2.7-2.5-2.7s-2.5 1.2-2.5 2.7zm13.3 3.6v-4.2c0-1.3-.6-2.1-1.7-2.1-1.2 0-2.3.8-2.3 2.6v3.7H171v-7.1h.8l.2 1.1h.1c.7-.9 1.6-1.2 2.5-1.2 1.8 0 2.8 1.1 2.8 3v4.3h-1.2z"/></g><g class="st1"><path class="st3" d="M76.6 1032.9l-2.8 7.8h-.2l-4-10.6h1.3l2.8 7.6 2.8-7.7h.2l2.8 7.7 2.8-7.6h1.3l-4 10.6h-.2l-2.8-7.8zm12.2 6.8c-.5.7-1.4 1.1-2.6 1.1-2 0-2.5-1.2-2.5-2 0-1.5 1-2.5 3.3-2.5h1.7v-.2c0-1.2-.7-1.7-2-1.7-.7 0-1.5.2-2.3.7v-1c.7-.4 1.7-.6 2.4-.6 2.2 0 3 1.1 3 2.8v4.5H89l-.2-1.1zm-2.3.2c1.4 0 2.1-1.1 2.1-2.2v-.5h-1.7c-1.3 0-2.1.5-2.1 1.5 0 .7.8 1.2 1.7 1.2zm7.2-8.6v2.2h2v1h-2v4c0 .8.2 1.3 1 1.3.3 0 .8-.1 1.3-.4v1c-.5.3-1.1.5-1.5.5-1.8 0-2-1.2-2-2.9v-3.4h-1.2v-.7l1.2-.3c.3-.7.6-1.4.8-2.1h.4zm10.1 5.7v.3h-5.6c0 1.6 1.2 2.5 2.6 2.5.9 0 1.8-.2 2.7-.9v1.1c-.7.5-1.7.8-2.7.8-2.4 0-3.8-1.5-3.8-3.7 0-2.1 1.5-3.7 3.5-3.7 2.1-.1 3.3 1.5 3.3 3.6zm-5.5-.6h4.4c-.2-1.3-.9-2.1-2.1-2.1-1.3 0-2.1.8-2.3 2.1zm8.6.8v3.4h-1.2v-7.1h.8l.2 1.2c.5-.9 1.3-1.4 2.3-1.4.2 0 .4 0 .6.1v1.1c-.3-.1-.6-.1-.8-.1-1.1 0-1.9 1.2-1.9 2.8zm9.1-3.7v4.2c0 1.3.6 2.1 1.7 2.1 1.2 0 2.1-.8 2.1-2.7v-3.6h1.2v7.1h-.8l-.3-1h-.1c-.6.8-1.4 1.1-2.3 1.1-1.8 0-2.8-1-2.8-3v-4.3h1.3zm6.5 5.6c.8.6 1.7.8 2.3.8.8 0 1.6-.3 1.6-1.1 0-1.7-3.7-1.3-3.7-3.5 0-1.3 1.2-2 2.4-2 .6 0 1.4.1 2.1.5v1c-.7-.4-1.4-.6-2-.6-.7 0-1.4.2-1.4 1 0 1.3 3.6 1.1 3.6 3.4 0 1.3-1.1 2.1-2.7 2.1-.7 0-1.7-.1-2.4-.6v-1zm13.2-2.1v.3h-5.6c0 1.6 1.2 2.5 2.6 2.5.9 0 1.8-.2 2.7-.9v1.1c-.7.5-1.7.8-2.7.8-2.4 0-3.8-1.5-3.8-3.7 0-2.1 1.5-3.7 3.5-3.7 2.1-.1 3.3 1.5 3.3 3.6zm-5.6-.6h4.4c-.2-1.3-.9-2.1-2.1-2.1-1.3 0-2.1.8-2.3 2.1zm12.5.8v3.4h-1.2v-7.1h.8l.2 1.2c.5-.9 1.3-1.4 2.3-1.4.2 0 .4 0 .6.1v1.1c-.3-.1-.6-.1-.8-.1-1.1 0-1.9 1.2-1.9 2.8zm10.2-.2v.3h-5.6c0 1.6 1.2 2.5 2.6 2.5.9 0 1.8-.2 2.7-.9v1.1c-.7.5-1.7.8-2.7.8-2.4 0-3.8-1.5-3.8-3.7 0-2.1 1.5-3.7 3.5-3.7 2.1-.1 3.3 1.5 3.3 3.6zm-5.6-.6h4.4c-.2-1.3-.9-2.1-2.1-2.1-1.3 0-2.1.8-2.3 2.1zm13.3-7.2h1.2v11.4h-.9l-.2-1h-.1c-.6.8-1.7 1.2-2.7 1.2-2.1 0-3.6-1.4-3.6-3.6 0-2.1 1.5-3.8 3.6-3.8.8 0 1.8.2 2.6 1h.1v-5.2zm-2.6 5.1c-1.5 0-2.5 1.2-2.5 2.7 0 1.6.9 2.7 2.5 2.7 1.5 0 2.5-1.2 2.5-2.7.1-1.4-.9-2.7-2.5-2.7zm7-.8v4.2c0 1.3.6 2.1 1.7 2.1 1.2 0 2.1-.8 2.1-2.7v-3.6h1.2v7.1h-.8l-.3-1h-.1c-.6.8-1.4 1.1-2.3 1.1-1.8 0-2.8-1-2.8-3v-4.3h1.3zm12.4.1v1.1c-.5-.3-1.2-.4-1.6-.4-1.5 0-2.7 1-2.7 2.8 0 1.6 1 2.7 2.6 2.7.6 0 1.4-.2 1.9-.5v1.1c-.5.3-1.5.5-2.2.5-2.4 0-3.6-1.6-3.6-3.6 0-2.2 1.6-3.8 3.7-3.8.6-.2 1.4-.1 1.9.1zm3.4-2.3v2.2h2v1h-2v4c0 .8.2 1.3 1 1.3.3 0 .8-.1 1.3-.4v1c-.5.3-1.1.5-1.5.5-1.8 0-2-1.2-2-2.9v-3.4h-1.2v-.7l1.2-.3c.3-.7.6-1.4.8-2.1h.4zm4.5.8c-.5 0-.8-.3-.8-.8s.4-.8.8-.8.8.3.8.8c-.1.4-.4.8-.8.8zm-.7 8.5v-7.1h1.2v7.1h-1.2zm10.5-3.6c0 2.1-1.6 3.7-3.7 3.7-2.4 0-3.8-1.6-3.8-3.7s1.6-3.7 3.8-3.7c2.2 0 3.7 1.6 3.7 3.7zm-6.3 0c0 1.6.9 2.7 2.5 2.7s2.5-1.2 2.5-2.7c0-1.5-1-2.7-2.5-2.7s-2.5 1.2-2.5 2.7zm13.3 3.6v-4.2c0-1.3-.6-2.1-1.7-2.1-1.2 0-2.3.8-2.3 2.6v3.7h-1.2v-7.1h.8l.2 1.1h.1c.7-.9 1.6-1.2 2.5-1.2 1.8 0 2.8 1.1 2.8 3v4.3H202z"/></g><g class="st1"><path class="st3" d="M78.8 1065c-.8.5-2.2.7-3.1.7-3.5 0-5.4-2.4-5.4-5.4 0-3.2 2.4-5.5 5.5-5.5.7 0 1.9.1 2.6.5v1.2c-.9-.5-1.8-.6-2.5-.6-2.4 0-4.3 1.6-4.3 4.4 0 2.6 1.6 4.3 4.2 4.3.9 0 2-.3 3-.8v1.2zm6.6.6v-4.2c0-1.3-.6-2-1.7-2-1.2 0-2.2.8-2.2 2.6v3.7h-1.2v-11.4h1.2v5.3c.8-.9 1.6-1.2 2.4-1.2 1.7 0 2.7 1.1 2.7 2.9v4.3h-1.2zm9.9-3.6v.3h-5.6c0 1.6 1.2 2.5 2.6 2.5.9 0 1.8-.2 2.7-.9v1.1c-.7.5-1.7.8-2.7.8-2.4 0-3.8-1.5-3.8-3.7 0-2.1 1.5-3.7 3.5-3.7 2.1-.1 3.3 1.5 3.3 3.6zm-5.6-.6h4.4c-.2-1.3-.9-2.1-2.1-2.1-1.2 0-2.1.8-2.3 2.1zm17.1 4.2v-4.3c0-1.4-.6-2-1.7-2-1 0-2 .7-2 2.6v3.7H102v-4.3c0-1.4-.6-2-1.6-2-1.1 0-2 .8-2 2.6v3.7h-1.2v-7.1h.8l.2 1h.1c.7-.9 1.7-1.2 2.4-1.2 1.1 0 1.9.5 2.2 1.4.6-1 1.6-1.4 2.4-1.4 1.9 0 2.7 1.2 2.7 3v4.3h-1.2zm4.3-8.5c-.5 0-.8-.3-.8-.8s.4-.8.8-.8.8.3.8.8c-.1.4-.4.8-.8.8zm-.7 8.5v-7.1h1.2v7.1h-1.2zm2.9-1.5c.8.6 1.7.8 2.3.8.8 0 1.6-.3 1.6-1.1 0-1.7-3.7-1.3-3.7-3.5 0-1.3 1.2-2 2.4-2 .6 0 1.4.1 2.1.5v1c-.7-.4-1.4-.6-2-.6-.7 0-1.4.2-1.4 1 0 1.3 3.6 1.1 3.6 3.4 0 1.3-1.1 2.1-2.7 2.1-.7 0-1.7-.1-2.4-.6v-1zm8.4-7.8v2.2h2v1h-2v4c0 .8.2 1.3 1 1.3.3 0 .8-.1 1.3-.4v1c-.5.3-1.1.5-1.5.5-1.8 0-2-1.2-2-2.9v-3.4h-1.2v-.7l1.2-.3c.3-.7.6-1.4.8-2.1h.4zm4.9 5.9v3.4h-1.2v-7.1h.8l.2 1.2c.5-.9 1.3-1.4 2.3-1.4.2 0 .4 0 .6.1v1.1c-.3-.1-.6-.1-.8-.1-1.1 0-1.9 1.2-1.9 2.8zm6.5 1.8c.7-1.8 1.5-3.7 2.2-5.5h1.2l-4.4 10.6H131c.5-1.2 1-2.5 1.6-3.7l-2.9-6.8h1.2c.7 1.7 1.4 3.5 2.2 5.4zm9.8-1.8v3.4h-1.2v-7.1h.8l.2 1.2c.5-.9 1.3-1.4 2.3-1.4.2 0 .4 0 .6.1v1.1c-.3-.1-.6-.1-.8-.1-1.1 0-1.9 1.2-1.9 2.8zm10.1-.2v.3h-5.6c0 1.6 1.2 2.5 2.6 2.5.9 0 1.8-.2 2.7-.9v1.1c-.7.5-1.7.8-2.7.8-2.4 0-3.8-1.5-3.8-3.7 0-2.1 1.5-3.7 3.5-3.7 2.1-.1 3.3 1.5 3.3 3.6zm-5.5-.6h4.4c-.2-1.3-.9-2.1-2.1-2.1-1.3 0-2.1.8-2.3 2.1zm13.3-7.2h1.2v11.4h-.9l-.2-1h-.1c-.6.8-1.7 1.2-2.7 1.2-2.1 0-3.6-1.4-3.6-3.6 0-2.1 1.5-3.8 3.6-3.8.8 0 1.8.2 2.6 1h.1v-5.2zm-2.6 5.1c-1.5 0-2.5 1.2-2.5 2.7 0 1.6.9 2.7 2.5 2.7 1.5 0 2.5-1.2 2.5-2.7.1-1.4-.9-2.7-2.5-2.7zm7-.8v4.2c0 1.3.6 2.1 1.7 2.1 1.2 0 2.1-.8 2.1-2.7v-3.6h1.2v7.1h-.8l-.3-1h-.1c-.6.8-1.4 1.1-2.3 1.1-1.8 0-2.8-1-2.8-3v-4.3h1.3zm12.4.1v1.1c-.5-.3-1.2-.4-1.6-.4-1.5 0-2.7 1-2.7 2.8 0 1.6 1 2.7 2.6 2.7.6 0 1.4-.2 1.9-.5v1.1c-.5.3-1.5.5-2.2.5-2.4 0-3.6-1.6-3.6-3.6 0-2.2 1.6-3.8 3.7-3.8.6-.2 1.3-.1 1.9.1zm3.4-2.3v2.2h2v1h-2v4c0 .8.2 1.3 1 1.3.3 0 .8-.1 1.3-.4v1c-.5.3-1.1.5-1.5.5-1.8 0-2-1.2-2-2.9v-3.4h-1.2v-.7l1.2-.3c.3-.7.6-1.4.8-2.1h.4zm4.5.8c-.5 0-.8-.3-.8-.8s.4-.8.8-.8.8.3.8.8c-.1.4-.4.8-.8.8zm-.7 8.5v-7.1h1.2v7.1h-1.2zm10.5-3.6c0 2.1-1.6 3.7-3.7 3.7-2.4 0-3.8-1.6-3.8-3.7s1.6-3.7 3.8-3.7c2.1 0 3.7 1.6 3.7 3.7zm-6.3 0c0 1.6.9 2.7 2.5 2.7s2.5-1.2 2.5-2.7c0-1.5-1-2.7-2.5-2.7s-2.5 1.2-2.5 2.7zm13.3 3.6v-4.2c0-1.3-.6-2.1-1.7-2.1-1.2 0-2.3.8-2.3 2.6v3.7h-1.2v-7.1h.8l.2 1.1h.1c.7-.9 1.6-1.2 2.5-1.2 1.8 0 2.8 1.1 2.8 3v4.3h-1.2z"/></g></svg>