<svg id="Layer_1" xmlns="http://www.w3.org/2000/svg" viewBox="0 0 750 1158"><style>.st0{fill:none;stroke:#fff}.st1{enable-background:new}.st2{fill:#ff5400}.st3{fill:#fff}</style><path id="Path-10_2_" class="st0" d="M616.3 688.3l-.5 221.5"/><g class="st1"><path class="st2" d="M580.1 937.5c0 .9.2 1.7.7 2.2.5.6 1.2.8 2 .8s1.5-.2 2-.6.7-1 .7-1.7c0-.6-.1-1-.4-1.4s-.9-.9-1.8-1.4c-1-.6-1.6-1.1-2-1.7s-.6-1.2-.6-2c0-1 .4-1.9 1.2-2.5.8-.6 1.8-1 3.2-1 1 0 1.9.2 2.5.5s.9.8.9 1.4c0 .8-.5 1.2-1.6 1.2 0-.7-.2-1.3-.5-1.7s-.8-.6-1.5-.6-1.3.2-1.8.6-.7 1-.7 1.7c0 .5.1 1 .4 1.3.2.4.9.8 1.9 1.4.9.6 1.6 1.1 2 1.6s.6 1.2.6 1.9c0 1.2-.4 2.1-1.2 2.8-.8.7-2 1-3.5 1-1.2 0-2.2-.2-2.9-.7-.7-.5-1.1-1.1-1.1-1.8 0-.4.1-.7.4-1 .4-.2.7-.3 1.1-.3zm14.5-6.1c1.1 0 1.9.3 2.5 1s.9 1.6.9 2.8c0 1.6-.5 3-1.5 4.3-1 1.3-2.3 1.9-3.9 1.9-1.1 0-1.9-.3-2.5-1s-.9-1.6-.9-2.7c0-1.6.5-3.1 1.5-4.4s2.3-1.9 3.9-1.9zm-1.7 9.2c1 0 1.8-.6 2.4-1.8s.9-2.5.9-3.9c0-1.7-.6-2.5-1.8-2.5-1 0-1.8.6-2.4 1.8s-.9 2.5-.9 3.9c0 1.6.6 2.5 1.8 2.5zM606 939c.1.1.2.2.2.4 0 .5-.3.9-.8 1.3-.6.4-1.3.6-2.3.6-1 0-1.9-.3-2.5-1s-1-1.6-1-2.7c0-1.6.5-3 1.5-4.3 1-1.3 2.3-2 3.8-2 .8 0 1.5.2 1.9.5s.7.7.7 1.2c0 .4-.1.7-.4.9s-.7.4-1.2.4c0-.6-.1-1.2-.4-1.5-.2-.4-.6-.6-1-.6-.8 0-1.6.6-2.2 1.9s-.9 2.5-.9 3.7c0 1.6.7 2.4 2 2.4 1 .1 1.9-.3 2.6-1.2zm2.6-6.6l.2-.8h3.2l-1.2 5.8c-.2.9-.3 1.5-.3 2 0 .6.2.9.6.9.3 0 .8-.2 1.3-.5l.3.5c-.8.7-1.6 1.1-2.4 1.1-.4 0-.8-.2-1.1-.5s-.4-.7-.4-1.2.1-1.5.4-2.8l.7-3.3c0-.2.1-.4.1-.5 0-.5-.4-.8-1.1-.8h-.3zm3-2.6c-.7 0-1-.3-1-1 0-.4.1-.7.3-.9.2-.2.5-.3.8-.3.7 0 1 .3 1 1 0 .4-.1.7-.3.9-.3.2-.5.3-.8.3zm8.6 9.2c.1.1.2.2.2.4 0 .5-.3.9-.8 1.3-.6.4-1.3.6-2.3.6-1 0-1.9-.3-2.5-1s-1-1.6-1-2.7c0-1.6.5-3 1.5-4.3 1-1.3 2.3-2 3.8-2 .8 0 1.4.2 1.8.5s.6.9.6 1.5c0 1-.5 1.8-1.5 2.5s-2.2 1.1-3.7 1.1h-.6v.8c0 1.6.7 2.4 2 2.4.9.2 1.8-.2 2.5-1.1zm-4.4-2.7h.2c1.1 0 1.9-.3 2.6-.8s1-1.2 1-2-.3-1.2-1-1.2c-.6 0-1.1.4-1.6 1.1-.5.7-.9 1.7-1.2 2.9zm11.5 3.6l.3.7c-.8.6-1.6.9-2.4.9-1.3 0-2-.7-2-2.1 0-.5.1-1 .2-1.5l1.1-5.2h-1.4l.2-.7c1.2 0 2.1-.8 2.8-2.5h.8l-.5 2.2h2.2l-.2 1h-2.2l-1.1 5.1c-.1.7-.2 1.2-.2 1.5 0 .7.3 1 1 1 .4 0 .9-.1 1.4-.4z"/><path class="st2" d="M629.9 933.3c-.1-.4-.2-.6-.4-.7-.2-.1-.5-.2-.8-.2h-.2l.1-.8h2.6l1.4 4.9c.4 1.5.7 2.6.8 3.3h.1c1.6-2.5 2.4-4.5 2.4-6 0-.7-.3-1-.9-1 0-.4.1-.7.4-1s.5-.4.8-.4c.8 0 1.2.5 1.2 1.5 0 1.4-.8 3.5-2.4 6.1-1.6 2.6-2.9 4.4-3.9 5.2s-2.3 1.3-3.9 1.3c-.6 0-1.2-.1-1.7-.3l.3-.9c.4.1.9.2 1.4.2 1.7 0 3.4-1.1 5.1-3.3l-2.4-7.9z"/></g><g class="st1"><path class="st3" d="M588 964.7c-.8.5-2.2.7-3.1.7-3.5 0-5.4-2.4-5.4-5.4 0-3.2 2.4-5.5 5.5-5.5.7 0 1.9.1 2.6.5v1.2c-.9-.5-1.8-.6-2.5-.6-2.4 0-4.3 1.6-4.3 4.4 0 2.6 1.6 4.3 4.2 4.3.9 0 2-.3 3-.8v1.2zm8.7-3c0 2.1-1.6 3.7-3.7 3.7-2.4 0-3.8-1.6-3.8-3.7s1.6-3.7 3.8-3.7c2.2 0 3.7 1.6 3.7 3.7zm-6.3 0c0 1.6.9 2.7 2.5 2.7s2.5-1.2 2.5-2.7c0-1.5-1-2.7-2.5-2.7s-2.5 1.2-2.5 2.7zm17.8 3.6V961c0-1.4-.6-2-1.7-2-1 0-2 .7-2 2.6v3.7h-1.2V961c0-1.4-.6-2-1.6-2-1.1 0-2 .8-2 2.6v3.7h-1.2v-7.1h.8l.2 1h.1c.7-.9 1.7-1.2 2.4-1.2 1.1 0 1.9.5 2.2 1.4.6-1 1.6-1.4 2.4-1.4 1.9 0 2.7 1.2 2.7 3v4.3h-1.1zm13.1 0V961c0-1.4-.6-2-1.7-2-1 0-2 .7-2 2.6v3.7h-1.2V961c0-1.4-.6-2-1.6-2-1.1 0-2 .8-2 2.6v3.7h-1.2v-7.1h.8l.2 1h.1c.7-.9 1.7-1.2 2.4-1.2 1.1 0 1.9.5 2.2 1.4.6-1 1.6-1.4 2.4-1.4 1.9 0 2.7 1.2 2.7 3v4.3h-1.1zm4.7-7.2v4.2c0 1.3.6 2.1 1.7 2.1 1.2 0 2.1-.8 2.1-2.7v-3.6h1.2v7.1h-.8l-.3-1h-.1c-.6.8-1.4 1.1-2.3 1.1-1.8 0-2.8-1-2.8-3V958h1.3zm12.3 7.2v-4.2c0-1.3-.6-2.1-1.7-2.1-1.2 0-2.3.8-2.3 2.6v3.7h-1.2v-7.1h.8l.2 1.1h.1c.7-.9 1.6-1.2 2.5-1.2 1.8 0 2.8 1.1 2.8 3v4.3h-1.2zm4.3-8.6c-.5 0-.8-.3-.8-.8s.4-.8.8-.8.8.3.8.8c-.1.5-.4.8-.8.8zm-.7 8.6v-7.1h1.2v7.1h-1.2zm5.3-9.3v2.2h2v1h-2v4c0 .8.2 1.3 1 1.3.3 0 .8-.1 1.3-.4v1c-.5.3-1.1.5-1.5.5-1.8 0-2-1.2-2-2.9v-3.4h-1.2v-.7l1.2-.3c.3-.7.6-1.4.8-2.1h.4zm4.5.7c-.5 0-.8-.3-.8-.8s.4-.8.8-.8.8.3.8.8c-.1.5-.4.8-.8.8zm-.7 8.6v-7.1h1.2v7.1H651zm10.1-3.7v.3h-5.6c0 1.6 1.2 2.5 2.6 2.5.9 0 1.8-.2 2.7-.9v1.1c-.7.5-1.7.8-2.7.8-2.4 0-3.8-1.5-3.8-3.7 0-2.1 1.5-3.7 3.5-3.7 2.1 0 3.3 1.6 3.3 3.6zm-5.6-.5h4.4c-.2-1.3-.9-2.1-2.1-2.1-1.2-.1-2.1.8-2.3 2.1zm6.7 2.6c.8.6 1.7.8 2.3.8.8 0 1.6-.3 1.6-1.1 0-1.7-3.7-1.3-3.7-3.5 0-1.3 1.2-2 2.4-2 .6 0 1.4.1 2.1.5v1c-.7-.4-1.4-.6-2-.6-.7 0-1.4.2-1.4 1 0 1.3 3.6 1.1 3.6 3.4 0 1.3-1.1 2.1-2.7 2.1-.7 0-1.7-.1-2.4-.6v-1z"/></g><g class="st1"><path class="st3" d="M587.1 990.3h-7.2v-10.6h6.8v1.1h-5.5v3.4h5v1.1h-5v4h5.9v1zm7.4-1c-.6.7-1.6 1.1-2.6 1.1-2.1 0-3.6-1.5-3.6-3.7s1.6-3.8 3.7-3.8c1 0 1.9.3 2.6 1.2l.2-1h.8v10.6h-1.2l.1-4.4zM592 984c-1.5 0-2.5 1.2-2.5 2.7 0 1.6 1 2.7 2.5 2.7s2.5-1.3 2.5-2.8c0-1.6-1-2.6-2.5-2.6zm7-.9v4.2c0 1.3.6 2.1 1.7 2.1 1.2 0 2.1-.8 2.1-2.7v-3.6h1.2v7.1h-.8l-.3-1h-.1c-.6.8-1.4 1.1-2.3 1.1-1.8 0-2.8-1-2.8-3V983h1.3zm11.9 6.2c-.5.7-1.4 1.1-2.6 1.1-2 0-2.5-1.2-2.5-2 0-1.5 1-2.5 3.3-2.5h1.7v-.2c0-1.2-.7-1.7-2-1.7-.7 0-1.5.2-2.3.7v-1c.7-.4 1.7-.6 2.4-.6 2.2 0 3 1.1 3 2.8v4.5h-.9l-.1-1.1zm-2.2.2c1.4 0 2.1-1.1 2.1-2.2v-.5h-1.7c-1.3 0-2.1.5-2.1 1.5 0 .8.7 1.2 1.7 1.2zm5.5.8v-11.4h1.2v11.4h-1.2zm4.2-8.6c-.5 0-.8-.3-.8-.8s.4-.8.8-.8.8.3.8.8-.3.8-.8.8zm-.6 8.6v-7.1h1.2v7.1h-1.2zm5.3-9.3v2.2h2v1h-2v4c0 .8.2 1.3 1 1.3.3 0 .8-.1 1.3-.4v1c-.5.3-1.1.5-1.5.5-1.8 0-2-1.2-2-2.9v-3.4h-1.2v-.7l1.2-.3c.3-.7.6-1.4.8-2.1h.4zm6.2 7.7c.7-1.8 1.5-3.7 2.2-5.5h1.2l-4.4 10.6h-1.2c.5-1.2 1-2.5 1.6-3.7l-2.9-6.8h1.2c.8 1.7 1.5 3.5 2.3 5.4z"/></g><g class="st1"><path class="st3" d="M579.9 1015.3v-10.6h3.6c3.2 0 5.2 2.1 5.2 5.2s-1.8 5.3-5 5.3h-3.8zm3.7-9.5h-2.4v8.4h2.5c2.6 0 3.8-1.8 3.8-4.2 0-2.4-1.2-4.2-3.9-4.2zm7.9.9c-.5 0-.8-.3-.8-.8s.4-.8.8-.8.8.3.8.8c-.1.5-.4.8-.8.8zm-.7 8.6v-7.1h1.2v7.1h-1.2zm6.2.1l-3.4-7.2h1.3l2.3 5 2.3-5h1.3l-3.5 7.2h-.3zm11-3.8v.3h-5.6c0 1.6 1.2 2.5 2.6 2.5.9 0 1.8-.2 2.7-.9v1.1c-.7.5-1.7.8-2.7.8-2.4 0-3.8-1.5-3.8-3.7 0-2.1 1.5-3.7 3.5-3.7 2.1 0 3.3 1.6 3.3 3.6zm-5.5-.5h4.4c-.2-1.3-.9-2.1-2.1-2.1-1.3-.1-2.1.8-2.3 2.1zm8.6.8v3.4h-1.2v-7.1h.8l.2 1.2c.5-.9 1.3-1.4 2.3-1.4.2 0 .4 0 .6.1v1.1c-.3-.1-.6-.1-.8-.1-1.1 0-1.9 1.2-1.9 2.8zm3.3 1.8c.8.6 1.7.8 2.3.8.8 0 1.6-.3 1.6-1.1 0-1.7-3.7-1.3-3.7-3.5 0-1.3 1.2-2 2.4-2 .6 0 1.4.1 2.1.5v1c-.7-.4-1.4-.6-2-.6-.7 0-1.4.2-1.4 1 0 1.3 3.6 1.1 3.6 3.4 0 1.3-1.1 2.1-2.7 2.1-.7 0-1.7-.1-2.4-.6v-1zm7.5-7c-.5 0-.8-.3-.8-.8s.4-.8.8-.8.8.3.8.8-.3.8-.8.8zm-.6 8.6v-7.1h1.2v7.1h-1.2zm5.3-9.3v2.2h2v1h-2v4c0 .8.2 1.3 1 1.3.3 0 .8-.1 1.3-.4v1c-.5.3-1.1.5-1.5.5-1.8 0-2-1.2-2-2.9v-3.4h-1.2v-.7l1.2-.3c.3-.7.6-1.4.8-2.1h.4zm6.2 7.7c.7-1.8 1.5-3.7 2.2-5.5h1.2l-4.4 10.6h-1.2c.5-1.2 1-2.5 1.6-3.7l-2.9-6.8h1.2c.8 1.7 1.5 3.5 2.3 5.4z"/></g><g class="st1"><path class="st3" d="M580.1 1040.3v-10.6h1.3v10.6h-1.3zm9 0v-4.2c0-1.3-.6-2.1-1.7-2.1-1.2 0-2.3.8-2.3 2.6v3.7h-1.2v-7.1h.8l.2 1.1h.1c.7-.9 1.6-1.2 2.5-1.2 1.8 0 2.8 1.1 2.8 3v4.3h-1.2zm8.5-7v1.1c-.5-.3-1.2-.4-1.6-.4-1.5 0-2.7 1-2.7 2.8 0 1.6 1 2.7 2.6 2.7.6 0 1.4-.2 1.9-.5v1.1c-.5.3-1.5.5-2.2.5-2.4 0-3.6-1.6-3.6-3.6 0-2.2 1.6-3.8 3.7-3.8.6-.2 1.4-.1 1.9.1zm1.9 7v-11.4h1.2v11.4h-1.2zm4.6-7.2v4.2c0 1.3.6 2.1 1.7 2.1 1.2 0 2.1-.8 2.1-2.7v-3.6h1.2v7.1h-.8l-.3-1h-.1c-.6.8-1.4 1.1-2.3 1.1-1.8 0-2.8-1-2.8-3v-4.3h1.3zm6.5 5.6c.8.6 1.7.8 2.3.8.8 0 1.6-.3 1.6-1.1 0-1.7-3.7-1.3-3.7-3.5 0-1.3 1.2-2 2.4-2 .6 0 1.4.1 2.1.5v1c-.7-.4-1.4-.6-2-.6-.7 0-1.4.2-1.4 1 0 1.3 3.6 1.1 3.6 3.4 0 1.3-1.1 2.1-2.7 2.1-.7 0-1.7-.1-2.4-.6v-1zm7.5-7c-.5 0-.8-.3-.8-.8s.4-.8.8-.8.8.3.8.8-.4.8-.8.8zm-.6 8.6v-7.1h1.2v7.1h-1.2zm10.4-3.6c0 2.1-1.6 3.7-3.7 3.7-2.4 0-3.8-1.6-3.8-3.7s1.6-3.7 3.8-3.7c2.2 0 3.7 1.6 3.7 3.7zm-6.3 0c0 1.6.9 2.7 2.5 2.7s2.5-1.2 2.5-2.7c0-1.5-1-2.7-2.5-2.7s-2.5 1.2-2.5 2.7zm13.3 3.6v-4.2c0-1.3-.6-2.1-1.7-2.1-1.2 0-2.3.8-2.3 2.6v3.7h-1.2v-7.1h.8l.2 1.1h.1c.7-.9 1.6-1.2 2.5-1.2 1.8 0 2.8 1.1 2.8 3v4.3h-1.2z"/></g></svg>