<svg enable-background="new 0 0 1440 750" viewBox="0 0 1440 750" xmlns="http://www.w3.org/2000/svg"><filter id="a" filterUnits="userSpaceOnUse" height="10.5" width="12.3" x="517.9" y="189.6"><feColorMatrix values="1 0 0 0 0 0 1 0 0 0 0 0 1 0 0 0 0 0 1 0"/></filter><mask id="c" height="10.5" maskUnits="userSpaceOnUse" width="12.3" x="517.9" y="189.6"><path clip-rule="evenodd" d="M517.7 190l12.3-.5.4 10.3-12.3.4z" fill="#fff" fill-rule="evenodd" filter="url(#a)"/></mask><filter id="b" filterUnits="userSpaceOnUse" height="12.3" width="8.5" x="524.7" y="181.9"><feColorMatrix values="1 0 0 0 0 0 1 0 0 0 0 0 1 0 0 0 0 0 1 0"/></filter><mask id="d" height="12.3" maskUnits="userSpaceOnUse" width="8.5" x="524.7" y="181.9"><path clip-rule="evenodd" d="M524.7 182.1l8.1-.3.4 12.1-8.1.3z" fill="#fff" fill-rule="evenodd" filter="url(#b)"/></mask><g clip-rule="evenodd" fill="#fefefe" fill-rule="evenodd"><path d="M571.6 256.6l-4.8 6.6-9.2-7.6 4.5-6.2.9.7-3.6 5.1 2.9 2.4 3.4-4.6 1 .7-3.4 4.7 3.4 2.8 4-5.4zm4.7-5.3l-12.4-4.1 1-1.1 9.2 3.1.1-.1-4.4-8.6 1-1.1 5.8 11.7zm.6-9.8c2 2 4.7 2.2 6.8.1 2-2.1 1.7-4.9-.2-6.8s-4.9-2.1-6.8-.1c-2 1.9-1.8 4.9.2 6.8m-1.1 1.1a6.1 6.1 0 0 1 0-8.8 5.9 5.9 0 0 1 8.7 0 5.9 5.9 0 0 1 0 8.7c-2.7 2.8-6.2 2.5-8.7.1m8.2-16.4l7.1 8.1 4.7-4.2.8.9-5.8 5.2-7.9-9zm12.9-10.8l1.1-.9 4.7 5.9c1.6 2.1 1.5 4.7-.8 6.6-2.4 1.9-4.9 1.5-6.6-.7l-4.7-5.9 1.1-.9 4.6 5.8c1.2 1.5 2.9 2.1 4.7.7s1.6-3.2.5-4.7zm8.4-4.5l6.1 8.8-1.2.9-6.1-8.9-3.2 2.2-.7-1 7.5-5.2.7 1zm11.2 5.5l-6.5-10.1 1.2-.8 6.5 10.1zm1.9-8.4c1.4 2.4 4 3.4 6.5 2s3-4.3 1.7-6.6c-1.3-2.4-4.1-3.4-6.5-2s-3 4.2-1.7 6.6m-1.3.8c-1.7-3-.6-6.8 2.4-8.5a6 6 0 0 1 8.4 2.4 6 6 0 0 1-2.3 8.4 6 6 0 0 1-8.5-2.3m16.2-2.1l-5.2-11 .3-.1 11.4 4.7h.1l-3.8-8.1 1.3-.6 5.1 10.9-.3.1-11.4-4.7 3.9 8.2zM761 189.1a6.2 6.2 0 0 0 3.1 2c1.5.4 2.9.1 3.2-1.3.8-3.1-5.3-4-4.4-7.4.5-2 2.5-2.5 4.3-2.1 1 .3 2 .7 2.9 1.5l-.3 1.4a5.7 5.7 0 0 0-2.6-1.6c-1.2-.3-2.4-.1-2.7 1.2-.6 2.3 5.4 3.4 4.4 7.3-.6 2.2-2.5 2.9-4.8 2.3-1-.3-2.4-.8-3.3-1.8zm17 7.1l-7.7-2.4 3.5-11.4 7.3 2.2-.4 1.2-5.9-1.8-1.1 3.6 5.5 1.7-.4 1.2-5.4-1.7-1.4 4.3 6.4 1.9zm7.7-9.9l-3.7 10.1 5.9 2.1-.4 1.2-7.3-2.7 4.2-11.3zm3.5 14.1l4.7-11 7.1 3-.5 1.1-5.7-2.4-1.7 3.9 5.2 2.2-.4 1.1-5.2-2.2-2.1 4.9zm10.8-.7l4.2 2-.5 1-4.2-2zm4.6 7.8l5.7-10.5 6.8 3.6-.6 1.1-5.5-3-2 3.8 5 2.6-.6 1.1-5-2.7-2.5 4.7zm21.6-1.3l1.2.8-4 6.4c-1.4 2.3-3.9 3.1-6.4 1.5-2.6-1.6-3-4.1-1.6-6.4l3.9-6.4 1.2.8-3.9 6.3c-1 1.6-1 3.5 1 4.7 1.9 1.2 3.6.4 4.6-1.2zm5.7 3.8l-6.2 8.8 5.1 3.6-.7 1-6.3-4.5 6.9-9.8zm-.2 14.6l7.3-9.5 6.1 4.7-.8 1-4.9-3.8-2.6 3.3 4.5 3.5-.8 1-4.4-3.5-3.3 4.2zm7.7 6.2l7.8-9.2 1.1 1-7.8 9.1zm12.9-4.7l-7.2 8 4.6 4.2-.9.9-5.6-5.2 8-8.9zm7.5 7.1l-7.7 7.5 4.4 4.5-.9.9-5.4-5.5 8.5-8.5zm2.9 16.9l1.6-7.1h-.1l-6.3 5.5-.9-1.1 9.1-7.9.2.2-2.1 9.3 9.4-.7.2.2-9.1 7.9-.9-1.1 6.4-5.5v-.1l-7.3.6zm8.8 15.4l-4.9-6.5 9.6-7.2 4.6 6.1-1 .7-3.7-4.9-3.1 2.3 3.4 4.6-.9.7-3.4-4.6-3.6 2.7 3.9 5.3zm1.3 1.8l10.1-6.6.2.3-3.1 12v.1l7.5-4.9.8 1.2-10.1 6.6-.2-.3 3.1-12-7.6 5zm18.6 9.5l-9.4 5.4-.7-1.3 9.3-5.3-1.9-3.4 1.1-.6 4.5 7.9-1.1.7zm14.8 67.5c-.7 1.4-.8 2.7-.7 3.6.2 1.5 1 2.7 2.4 2.5 3.2-.5 1.7-6.4 5.1-6.9 2.1-.3 3.3 1.4 3.6 3.2.1 1 .1 2.1-.3 3.2l-1.4.2a6 6 0 0 0 .5-3.1c-.2-1.2-.8-2.3-2.1-2.1-2.4.3-1.1 6.3-5 6.8-2.3.3-3.6-1.2-3.9-3.6-.2-1.1-.2-2.5.4-3.8zm10.3 13.5l-10.8 1-.1-1.4 10.7-1-.3-3.9 1.2-.1.8 9.1-1.2.1zm-6.6 7.1l.2 4.8 5.4-2.6v-.1zm-.8 5.2l-.2-5.6-2.7-1-.1-1.4 12.3 4.8v.3l-11.9 5.7-.1-1.5zm3.7 6.3l5.5 5.6v1.7l-5.6-5.7-6.3 6v-2l6.2-5.6-6.1-.1v-1.5l12 .2v1.5zm-7.3 17.6l.7-8.1 11.9.9-.6 7.7-1.2-.1.5-6.2-3.9-.3-.4 5.7-1.2-.1.4-5.7-4.4-.3-.5 6.6zm-1.3 10.1l5.6.8.9-6.4-5.6-.8.2-1.4 11.8 1.6-.2 1.5-5-.7-.8 6.3 5 .7-.2 1.4-11.9-1.6zm4.9 6.7c-2.7-.6-5.2.7-5.8 3.6-.6 2.8 1.2 5.1 3.8 5.7 2.7.6 5.2-.9 5.8-3.6s-1.1-5.1-3.8-5.7m.3-1.4c3.4.7 5.5 4 4.8 7.4a6 6 0 0 1-7.3 4.8 6 6 0 0 1-4.7-7.3c.7-4 3.8-5.7 7.2-4.9m2 18.1l-10.3-2.9-1.7 6.1-1.2-.4 2.1-7.4 11.5 3.2zm-5 12.1l.9-2.5-9-3.1-.9 2.7c-.9 2.8.5 4.7 3.1 5.6 2.5.8 4.9.2 5.9-2.7zm-8.8-7.5l11.3 3.9-1.3 3.9c-1.2 3.5-4.2 4.8-7.5 3.6s-5-3.9-3.8-7.4zm-7.4 19.5l3.1-7.5 11.1 4.6-3 7.1-1.1-.5 2.4-5.7-3.6-1.5-2.2 5.3-1.1-.5 2.2-5.2-4.1-1.8-2.6 6.2zm2.8 13.3c-1.5-.7-2.4-2.5-2-4.6l-5.7 1.6.8-1.6 6.4-1.6.2.1c-1.1 2.5-.4 4.2.9 4.8 1.5.7 2.9.1 3.7-1.4l1.1-2.3-9.7-4.7.6-1.3 10.8 5.2-1.9 3.9c-.9 1.6-3 2.9-5.2 1.9m-13 6.1l12.9 1.8-.8 1.3-9.6-1.4v.1l5.9 7.7-.7 1.2-7.8-10.4zm-.7 8.6l-2.6 4 5.8 1.1v-.1zm-3.8 3.7l3.1-4.7-1.6-2.4.8-1.2 7.1 11.1-.2.2-13-2.3.8-1.2zm3.8 10.7l-8.6-6.5-3.7 5-1-.7 4.6-6.2 9.6 7.2zm-10.5 13.2l-.9 1.1-5.8-4.9c-2-1.7-2.4-4.3-.5-6.6 2-2.3 4.5-2.4 6.6-.6l5.7 4.9-.9 1.1-5.7-4.8c-1.4-1.2-3.3-1.5-4.8.3-1.5 1.7-1 3.5.5 4.7zm-17.9 1.6l5.6-5.9 8.7 8.3-5.3 5.5-.9-.8 4.3-4.5-2.8-2.7-3.9 4.2-.9-.9 4-4.1-3.3-3.1-4.6 4.8zm-291.7-32.9l4.5 6.8-10 6.6-4.2-6.4 1-.6 3.4 5.1 3.2-2.1-3.1-4.8 1-.6 3.1 4.7 3.7-2.5-3.6-5.5zM558 474l-10.5 6.1-.2-.3L551 468v-.1l-7.8 4.5-.7-1.2 10.4-6.1.2.3-3.8 11.8 7.8-4.5zm-8.2-15.1l-8.5 9.9-.7-1.3 6.4-7.3v-.1l-9.6.8-.6-1.3 13-.9zm-3.2-6.6l-11 4.9-.6-1.4 11-4.8zm-12.7-9.3c1.5-.6 3.4-.1 4.7 1.7l2.7-5.3.7 1.7-3.1 5.8-.2.1c-1.1-2.5-2.8-3.1-4.1-2.6-1.6.6-2 2.1-1.4 3.7l.9 2.4 10-4 .5 1.4-11.1 4.4-1.6-4c-.7-2-.3-4.4 2-5.3m.7-4.7c2.7-.8 4.1-3.2 3.2-6a4.7 4.7 0 0 0-6.1-3 4.7 4.7 0 0 0-3.3 6c.9 2.7 3.6 3.8 6.2 3m.4 1.4a6.2 6.2 0 0 1-7.8-4.1 6 6 0 0 1 4-7.8 6 6 0 0 1 7.7 4c1.3 3.9-.5 6.9-3.9 7.9m1.3-16.2l-11.8 2.8-.1-.3 6.9-10.2v-.1l-8.7 2.1-.3-1.4 11.7-2.8.1.3-7 10.3v.1l8.8-2.1zm-6.5-18.3l-5 5.2 8.2-1.3.2 1.4-11.9 1.9v-.3l6.6-6.8-8.4-4.3v-.3l11.9-1.9.2 1.4-8.4 1.3v.1l6.6 3.4zm.6-17.6l.7 8.1-11.9 1.1-.7-7.7 1.2-.1.5 6.2 3.9-.4-.5-5.7 1.2-.1.5 5.7 4.4-.4-.6-6.6z"/><path d="M530.2 199.8l-12.1.3v-.3l8.9-8.6v-.1l-9 .2v-1.4l12.1-.3v.3l-8.9 8.6v.1l9.1-.2z" mask="url(#c)" transform="translate(0 185.5)"/><path d="M519.4 367.5l10.7.3v1.5l-10.8-.4-.1 3.9-1.2-.1.3-9.1 1.2.1zm166.8 204.1a5.3 5.3 0 0 0 3.2 1.7c1.7.3 3.1-.1 3.4-1.7.6-3.4-5.7-3.7-5.1-7.1.4-2.1 2.3-2.7 3.9-2.4 1 .2 2 .5 2.9 1.2l-.2 1.1a5 5 0 0 0-2.7-1.4c-1.2-.2-2.6 0-2.8 1.5-.4 2.5 5.7 3.1 5.1 7-.4 2.3-2.3 3-4.5 2.7-1-.2-2.3-.6-3.3-1.6zm10.9-2.3c-.3 3 1.3 5.4 4.5 5.7 3.1.3 5.3-1.8 5.6-4.7s-1.5-5.4-4.5-5.7-5.3 1.8-5.6 4.7m-1.1-.1a6.2 6.2 0 0 1 6.8-5.5 6 6 0 0 1 5.4 6.8c-.4 3.5-3.2 5.9-6.7 5.5-4-.4-5.9-3.4-5.5-6.8m23.7 7c-1 .6-2.5.8-3.6.7-3.9-.1-6-2.9-5.9-6.3a6 6 0 0 1 6.4-6c.8 0 2.2.2 3 .7v1c-1.1-.6-2.1-.7-2.9-.8a5 5 0 0 0-5.3 5.1c-.1 3 1.6 5.2 4.9 5.3a8 8 0 0 0 3.5-.8zm2.1.7l-.1-12h1.1v12z"/><path d="M533.2 193.8l-8 .4-.5-12 7.5-.3v.9l-6.4.3.2 4.2 6-.2v.9l-6 .3.3 4.9 6.9-.3z" mask="url(#d)" transform="translate(201.2 382.7)"/><path d="M739.5 564.9l1.1 11-1.1.1-1.1-11-3.9.4-.1-.9 8.9-.9.1.9zm9.8 3.5l2.4-6.1 1.1-.2-2.9 7.2.8 5.3-1.1.2-.8-5.3-5.3-5.9 1.2-.2 4.5 5z"/></g></svg>