<svg enable-background="new 0 0 1440 750" viewBox="0 0 1440 750" xmlns="http://www.w3.org/2000/svg"><filter id="a" filterUnits="userSpaceOnUse" height="12.9" width="12.9" x="461.7" y="112.2"><feColorMatrix values="1 0 0 0 0 0 1 0 0 0 0 0 1 0 0 0 0 0 1 0"/></filter><mask id="A" height="12.9" maskUnits="userSpaceOnUse" width="12.9" x="461.7" y="112.2"><path clip-rule="evenodd" d="M461.7 112.2h12.8v12.9h-12.8z" fill="#fff" fill-rule="evenodd" filter="url(#a)"/></mask><filter id="b" filterUnits="userSpaceOnUse" height="8" width="8" x="507" y="222"><feColorMatrix values="1 0 0 0 0 0 1 0 0 0 0 0 1 0 0 0 0 0 1 0"/></filter><mask id="B" height="8" maskUnits="userSpaceOnUse" width="8" x="507" y="222"><path clip-rule="evenodd" d="M461 632h517V112H461z" fill="#fff" fill-rule="evenodd" filter="url(#b)"/></mask><filter id="c" filterUnits="userSpaceOnUse" height="8" width="8" x="532" y="193"><feColorMatrix values="1 0 0 0 0 0 1 0 0 0 0 0 1 0 0 0 0 0 1 0"/></filter><mask id="C" height="8" maskUnits="userSpaceOnUse" width="8" x="532" y="193"><path clip-rule="evenodd" d="M461 632h517V112H461z" fill="#fff" fill-rule="evenodd" filter="url(#c)"/></mask><filter id="d" filterUnits="userSpaceOnUse" height="8" width="8" x="560" y="166"><feColorMatrix values="1 0 0 0 0 0 1 0 0 0 0 0 1 0 0 0 0 0 1 0"/></filter><mask id="D" height="8" maskUnits="userSpaceOnUse" width="8" x="560" y="166"><path clip-rule="evenodd" d="M461 632h517V112H461z" fill="#fff" fill-rule="evenodd" filter="url(#d)"/></mask><filter id="e" filterUnits="userSpaceOnUse" height="8" width="8" x="595" y="144"><feColorMatrix values="1 0 0 0 0 0 1 0 0 0 0 0 1 0 0 0 0 0 1 0"/></filter><mask id="E" height="8" maskUnits="userSpaceOnUse" width="8" x="595" y="144"><path clip-rule="evenodd" d="M461 632h517V112H461z" fill="#fff" fill-rule="evenodd" filter="url(#e)"/></mask><filter id="f" filterUnits="userSpaceOnUse" height="8" width="8" x="631" y="128"><feColorMatrix values="1 0 0 0 0 0 1 0 0 0 0 0 1 0 0 0 0 0 1 0"/></filter><mask id="F" height="8" maskUnits="userSpaceOnUse" width="8" x="631" y="128"><path clip-rule="evenodd" d="M461 632h517V112H461z" fill="#fff" fill-rule="evenodd" filter="url(#f)"/></mask><filter id="g" filterUnits="userSpaceOnUse" height="8" width="8" x="796" y="129"><feColorMatrix values="1 0 0 0 0 0 1 0 0 0 0 0 1 0 0 0 0 0 1 0"/></filter><mask id="G" height="8" maskUnits="userSpaceOnUse" width="8" x="796" y="129"><path clip-rule="evenodd" d="M461 632h517V112H461z" fill="#fff" fill-rule="evenodd" filter="url(#g)"/></mask><filter id="h" filterUnits="userSpaceOnUse" height="8" width="8" x="832" y="143"><feColorMatrix values="1 0 0 0 0 0 1 0 0 0 0 0 1 0 0 0 0 0 1 0"/></filter><mask id="H" height="8" maskUnits="userSpaceOnUse" width="8" x="832" y="143"><path clip-rule="evenodd" d="M461 632h517V112H461z" fill="#fff" fill-rule="evenodd" filter="url(#h)"/></mask><filter id="i" filterUnits="userSpaceOnUse" height="8" width="8" x="866" y="163"><feColorMatrix values="1 0 0 0 0 0 1 0 0 0 0 0 1 0 0 0 0 0 1 0"/></filter><mask id="I" height="8" maskUnits="userSpaceOnUse" width="8" x="866" y="163"><path clip-rule="evenodd" d="M461 632h517V112H461z" fill="#fff" fill-rule="evenodd" filter="url(#i)"/></mask><filter id="j" filterUnits="userSpaceOnUse" height="8" width="8" x="896" y="191"><feColorMatrix values="1 0 0 0 0 0 1 0 0 0 0 0 1 0 0 0 0 0 1 0"/></filter><mask id="J" height="8" maskUnits="userSpaceOnUse" width="8" x="896" y="191"><path clip-rule="evenodd" d="M461 632h517V112H461z" fill="#fff" fill-rule="evenodd" filter="url(#j)"/></mask><filter id="k" filterUnits="userSpaceOnUse" height="8" width="8" x="922" y="220"><feColorMatrix values="1 0 0 0 0 0 1 0 0 0 0 0 1 0 0 0 0 0 1 0"/></filter><mask id="K" height="8" maskUnits="userSpaceOnUse" width="8" x="922" y="220"><path clip-rule="evenodd" d="M461 632h517V112H461z" fill="#fff" fill-rule="evenodd" filter="url(#k)"/></mask><filter id="l" filterUnits="userSpaceOnUse" height="8" width="8" x="970" y="368"><feColorMatrix values="1 0 0 0 0 0 1 0 0 0 0 0 1 0 0 0 0 0 1 0"/></filter><mask id="L" height="8" maskUnits="userSpaceOnUse" width="8" x="970" y="368"><path clip-rule="evenodd" d="M461 632h517V112H461z" fill="#fff" fill-rule="evenodd" filter="url(#l)"/></mask><filter id="m" filterUnits="userSpaceOnUse" height="8" width="8" x="967" y="408"><feColorMatrix values="1 0 0 0 0 0 1 0 0 0 0 0 1 0 0 0 0 0 1 0"/></filter><mask id="M" height="8" maskUnits="userSpaceOnUse" width="8" x="967" y="408"><path clip-rule="evenodd" d="M461 632h517V112H461z" fill="#fff" fill-rule="evenodd" filter="url(#m)"/></mask><filter id="n" filterUnits="userSpaceOnUse" height="8" width="8" x="958" y="445"><feColorMatrix values="1 0 0 0 0 0 1 0 0 0 0 0 1 0 0 0 0 0 1 0"/></filter><mask id="N" height="8" maskUnits="userSpaceOnUse" width="8" x="958" y="445"><path clip-rule="evenodd" d="M461 632h517V112H461z" fill="#fff" fill-rule="evenodd" filter="url(#n)"/></mask><filter id="o" filterUnits="userSpaceOnUse" height="8" width="8" x="944" y="484"><feColorMatrix values="1 0 0 0 0 0 1 0 0 0 0 0 1 0 0 0 0 0 1 0"/></filter><mask id="O" height="8" maskUnits="userSpaceOnUse" width="8" x="944" y="484"><path clip-rule="evenodd" d="M461 632h517V112H461z" fill="#fff" fill-rule="evenodd" filter="url(#o)"/></mask><filter id="p" filterUnits="userSpaceOnUse" height="8" width="8" x="923" y="517"><feColorMatrix values="1 0 0 0 0 0 1 0 0 0 0 0 1 0 0 0 0 0 1 0"/></filter><mask id="P" height="8" maskUnits="userSpaceOnUse" width="8" x="923" y="517"><path clip-rule="evenodd" d="M461 632h517V112H461z" fill="#fff" fill-rule="evenodd" filter="url(#p)"/></mask><filter id="q" filterUnits="userSpaceOnUse" height="8" width="8" x="793" y="610"><feColorMatrix values="1 0 0 0 0 0 1 0 0 0 0 0 1 0 0 0 0 0 1 0"/></filter><mask id="Q" height="8" maskUnits="userSpaceOnUse" width="8" x="793" y="610"><path clip-rule="evenodd" d="M461 632h517V112H461z" fill="#fff" fill-rule="evenodd" filter="url(#q)"/></mask><filter id="r" filterUnits="userSpaceOnUse" height="8" width="8" x="756" y="620"><feColorMatrix values="1 0 0 0 0 0 1 0 0 0 0 0 1 0 0 0 0 0 1 0"/></filter><mask id="R" height="8" maskUnits="userSpaceOnUse" width="8" x="756" y="620"><path clip-rule="evenodd" d="M461 632h517V112H461z" fill="#fff" fill-rule="evenodd" filter="url(#r)"/></mask><filter id="s" filterUnits="userSpaceOnUse" height="8" width="8" x="717" y="624"><feColorMatrix values="1 0 0 0 0 0 1 0 0 0 0 0 1 0 0 0 0 0 1 0"/></filter><mask id="S" height="8" maskUnits="userSpaceOnUse" width="8" x="717" y="624"><path clip-rule="evenodd" d="M461 632h517V112H461z" fill="#fff" fill-rule="evenodd" filter="url(#s)"/></mask><filter id="t" filterUnits="userSpaceOnUse" height="8" width="8" x="677" y="621"><feColorMatrix values="1 0 0 0 0 0 1 0 0 0 0 0 1 0 0 0 0 0 1 0"/></filter><mask id="T" height="8" maskUnits="userSpaceOnUse" width="8" x="677" y="621"><path clip-rule="evenodd" d="M461 632h517V112H461z" fill="#fff" fill-rule="evenodd" filter="url(#t)"/></mask><filter id="u" filterUnits="userSpaceOnUse" height="8" width="8" x="639" y="612"><feColorMatrix values="1 0 0 0 0 0 1 0 0 0 0 0 1 0 0 0 0 0 1 0"/></filter><mask id="U" height="8" maskUnits="userSpaceOnUse" width="8" x="639" y="612"><path clip-rule="evenodd" d="M461 632h517V112H461z" fill="#fff" fill-rule="evenodd" filter="url(#u)"/></mask><filter id="v" filterUnits="userSpaceOnUse" height="8" width="8" x="509" y="520"><feColorMatrix values="1 0 0 0 0 0 1 0 0 0 0 0 1 0 0 0 0 0 1 0"/></filter><mask id="V" height="8" maskUnits="userSpaceOnUse" width="8" x="509" y="520"><path clip-rule="evenodd" d="M461 632h517V112H461z" fill="#fff" fill-rule="evenodd" filter="url(#v)"/></mask><filter id="w" filterUnits="userSpaceOnUse" height="8" width="8" x="488" y="487"><feColorMatrix values="1 0 0 0 0 0 1 0 0 0 0 0 1 0 0 0 0 0 1 0"/></filter><mask id="W" height="8" maskUnits="userSpaceOnUse" width="8" x="488" y="487"><path clip-rule="evenodd" d="M461 632h517V112H461z" fill="#fff" fill-rule="evenodd" filter="url(#w)"/></mask><filter id="x" filterUnits="userSpaceOnUse" height="8" width="8" x="474" y="451"><feColorMatrix values="1 0 0 0 0 0 1 0 0 0 0 0 1 0 0 0 0 0 1 0"/></filter><mask id="X" height="8" maskUnits="userSpaceOnUse" width="8" x="474" y="451"><path clip-rule="evenodd" d="M461 632h517V112H461z" fill="#fff" fill-rule="evenodd" filter="url(#x)"/></mask><filter id="y" filterUnits="userSpaceOnUse" height="8" width="8" x="464" y="412"><feColorMatrix values="1 0 0 0 0 0 1 0 0 0 0 0 1 0 0 0 0 0 1 0"/></filter><mask id="Y" height="8" maskUnits="userSpaceOnUse" width="8" x="464" y="412"><path clip-rule="evenodd" d="M461 632h517V112H461z" fill="#fff" fill-rule="evenodd" filter="url(#y)"/></mask><filter id="z" filterUnits="userSpaceOnUse" height="8" width="8" x="461" y="372"><feColorMatrix values="1 0 0 0 0 0 1 0 0 0 0 0 1 0 0 0 0 0 1 0"/></filter><mask id="Z" height="8" maskUnits="userSpaceOnUse" width="8" x="461" y="372"><path clip-rule="evenodd" d="M461 632h517V112H461z" fill="#fff" fill-rule="evenodd" filter="url(#z)"/></mask><g clip-rule="evenodd" fill="#fefefe"><path d="M869.5 587a6.5 6.5 0 1 1 0-13 6.5 6.5 0 1 1 0 13m92-285a6.5 6.5 0 1 1 0-13 6.5 6.5 0 1 1 0 13" fill-rule="evenodd"/><path d="M468.1 125.1c-3.5 0-6.4-2.9-6.4-6.4s2.9-6.4 6.4-6.4 6.4 2.9 6.4 6.4-2.8 6.4-6.4 6.4" mask="url(#A)" transform="translate(252)"/><path d="M478.5 301a6.5 6.5 0 1 1 0-13 6.5 6.5 0 1 1 0 13m92 286a6.5 6.5 0 1 1 0-13 6.5 6.5 0 1 1 0 13M970 335.9a4 4 0 0 1-2.8-4.9 4 4 0 0 1 4.9-2.8 4 4 0 0 1 2.8 4.9 4.1 4.1 0 0 1-4.9 2.8m-73 221a4 4 0 0 1-2.8-4.9 4 4 0 0 1 4.9-2.8 4 4 0 0 1 2.8 4.9 4.1 4.1 0 0 1-4.9 2.8M962.5 448a1.5 1.5 0 1 0 0 2.9 1.5 1.5 0 1 0 0-2.9m8.5-38a2 2 0 0 0-1.4.6 2 2 0 0 0 0 2.8c.4.4.9.6 1.4.6s1-.2 1.4-.6c.8-.8.8-2 0-2.8a2 2 0 0 0-1.4-.6m-23 76a2 2 0 0 0-1.4.6 2 2 0 0 0 0 2.8c.4.4.9.6 1.4.6s1-.2 1.4-.6c.8-.8.8-2 0-2.8a2 2 0 0 0-1.4-.6m-22.7 32.5c-.6.4-1.1 1.1-1.3 1.9a3 3 0 0 0 2.3 3.5c.8.2 1.6 0 2.3-.4.6-.4 1.1-1.1 1.3-1.9a3 3 0 0 0-2.3-3.5c-.8-.2-1.6 0-2.3.4m47-149c-.6.4-1.1 1.1-1.3 1.9a3 3 0 0 0 2.3 3.5c.8.2 1.6 0 2.3-.4.6-.4 1.1-1.1 1.3-1.9a3 3 0 0 0-2.3-3.5c-.8-.2-1.6 0-2.3.4M832 600.2a4 4 0 0 1 3.8-4.2 4 4 0 0 1 4.2 3.8 4 4 0 0 1-3.8 4.2 4 4 0 0 1-4.2-3.8m-232 1a4 4 0 0 1 3.8-4.2 4 4 0 0 1 4.2 3.8 4 4 0 0 1-3.8 4.2 4 4 0 0 1-4.2-3.8M721.9 628c-.1-.4-.4-.7-.7-.9-.7-.4-1.6-.1-2 .7-.2.4-.2.8-.1 1.1.1.4.4.7.7.9.7.4 1.6.1 2-.7.2-.3.2-.7.1-1.1m40-4.6c-.2-.5-.5-.9-1-1.2a2 2 0 0 0-2.7.9c-.2.5-.3 1-.1 1.5s.5.9 1 1.2a2 2 0 0 0 2.7-.9c.2-.5.3-1 .1-1.5m-79 1c-.2-.5-.5-.9-1-1.2a2 2 0 0 0-2.7.9c-.2.5-.3 1-.1 1.5s.5.9 1 1.2a2 2 0 0 0 2.7-.9c.2-.5.3-1 .1-1.5m-38-10.8c-.6-.5-1.4-.7-2.2-.6a3 3 0 0 0-2.6 3.3 3 3 0 0 0 1.1 2c.6.5 1.4.7 2.2.6a3 3 0 0 0 2.6-3.3 3 3 0 0 0-1.1-2m154-2c-.6-.5-1.4-.7-2.2-.6a3 3 0 0 0-2.6 3.3 3 3 0 0 0 1.1 2c.6.5 1.4.7 2.2.6a3 3 0 0 0 2.6-3.3 3 3 0 0 0-1.1-2m-260.3-59.3a4 4 0 0 1 5.2 2.3 4 4 0 0 1-2.3 5.2 4 4 0 0 1-5.2-2.3 4 4 0 0 1 2.3-5.2m-72-222a4 4 0 0 1 5.2 2.3 4 4 0 0 1-2.3 5.2 4 4 0 0 1-5.2-2.3 4 4 0 0 1 2.3-5.2m12.8 126.4c.3-.2.5-.6.6-1 .1-.8-.4-1.6-1.2-1.7-.4-.1-.8 0-1.1.3s-.5.6-.6 1c-.1.8.4 1.6 1.2 1.7a2 2 0 0 0 1.1-.3m13.8 35.9c.4-.3.7-.8.8-1.3.2-1.1-.6-2.1-1.7-2.3a2 2 0 0 0-1.5.4c-.4.3-.7.8-.8 1.3-.2 1.1.6 2.1 1.7 2.3a2 2 0 0 0 1.5-.4m-24-75c.4-.3.7-.8.8-1.3.2-1.1-.6-2.1-1.7-2.3-.5-.1-1.1.1-1.5.4s-.7.8-.8 1.3c-.2 1.1.6 2.1 1.7 2.3a2 2 0 0 0 1.5-.4m-1.4-40.5c.3-.7.3-1.5-.1-2.3-.7-1.5-2.5-2.2-4-1.5a3 3 0 0 0-1.6 1.7c-.3.7-.3 1.5.1 2.3.7 1.5 2.5 2.2 4 1.5.8-.4 1.3-1 1.6-1.7m48 148c.3-.7.3-1.5-.1-2.3-.7-1.5-2.5-2.2-4-1.5a3 3 0 0 0-1.6 1.7c-.3.7-.3 1.5.1 2.3.7 1.5 2.5 2.2 4 1.5.8-.4 1.3-1 1.6-1.7m-22.7-266.7a4 4 0 1 1-6.1 5.1 4 4 0 1 1 6.1-5.1m186-139a4 4 0 1 1-6.1 5.1 4 4 0 1 1 6.1-5.1m-115.5 51.3c.3.2.7.3 1.1.3.8-.1 1.4-.9 1.2-1.7a2 2 0 0 0-.6-1c-.3-.2-.7-.3-1.1-.2-.8.1-1.4.9-1.2 1.7.1.4.3.7.6.9m-28.8 27.9c.4.3 1 .4 1.5.3a2 2 0 0 0 1.6-2.3c-.1-.5-.4-1-.8-1.3s-1-.4-1.5-.3a2 2 0 0 0-1.6 2.3c.1.6.4 1 .8 1.3m63-49c.4.3.9.4 1.5.3a2 2 0 0 0 1.6-2.3c-.1-.5-.4-1-.8-1.3s-.9-.4-1.5-.3a2 2 0 0 0-1.6 2.3c.1.6.4 1 .8 1.3m37.1-14.6c.8 0 1.5-.2 2.1-.8 1.2-1.1 1.3-3 .1-4.2-.6-.6-1.3-.9-2.1-.9s-1.5.2-2.1.8a2.9 2.9 0 0 0-.1 4.2c.6.6 1.3.9 2.1.9m-124 94c.8 0 1.5-.2 2.1-.8 1.2-1.1 1.3-3 .1-4.2-.6-.6-1.3-.9-2.1-.9s-1.5.2-2.1.8a2.9 2.9 0 0 0-.1 4.2c.6.6 1.3.9 2.1.9m252.5-103.8a4 4 0 0 1-5.5 1.2 4 4 0 0 1-1.2-5.5 4 4 0 0 1 6.7 4.3m189 137a4 4 0 0 1-5.5 1.2 4 4 0 0 1-1.2-5.5 4 4 0 0 1 6.7 4.3M868.1 167c-.1.4-.1.8.1 1.1.4.7 1.3 1 2 .7.4-.2.6-.5.7-.9s.1-.8-.1-1.1c-.4-.7-1.3-1-2-.7-.4.3-.6.6-.7.9m-34-20.6c-.2.5-.1 1 .1 1.5a2 2 0 0 0 2.7.9c.5-.2.8-.7 1-1.2s.1-1-.1-1.5a2 2 0 0 0-2.7-.9c-.5.3-.8.7-1 1.2m64 48c-.2.5-.1 1 .1 1.5a2 2 0 0 0 2.7.9c.5-.2.8-.7 1-1.2s.1-1-.1-1.5a2 2 0 0 0-2.7-.9c-.5.3-.8.7-1 1.2m25 30.4c.2.7.7 1.4 1.4 1.8a3 3 0 0 0 4.1-1.1 3 3 0 0 0 .3-2.3c-.2-.7-.7-1.4-1.4-1.8a3 3 0 0 0-4.1 1.1c-.4.7-.5 1.6-.3 2.3m-126-91c.2.7.7 1.4 1.4 1.8a3 3 0 0 0 4.1-1.1 3 3 0 0 0 .3-2.3c-.2-.7-.7-1.4-1.4-1.8a3 3 0 0 0-4.1 1.1c-.4.7-.5 1.6-.3 2.3" fill-rule="evenodd"/><path d="M514.1 223.4a4 4 0 1 1-6.1 5.1 4 4 0 1 1 6.1-5.1" mask="url(#B)"/><path d="M539.1 194.4a4 4 0 1 1-6.1 5.1 4 4 0 1 1 6.1-5.1" mask="url(#C)"/><path d="M567.1 167.4a4 4 0 1 1-6.1 5.1 4 4 0 1 1 6.1-5.1" mask="url(#D)"/><path d="M602.1 145.4a4 4 0 1 1-6.1 5.1 4 4 0 1 1 6.1-5.1" mask="url(#E)"/><path d="M638.1 129.4a4 4 0 1 1-6.1 5.1 4 4 0 1 1 6.1-5.1" mask="url(#F)"/><path d="M803.1 130.4a4 4 0 1 1-6.1 5.1 4 4 0 1 1 6.1-5.1" mask="url(#G)"/><path d="M839.1 144.4a4 4 0 1 1-6.1 5.1 4 4 0 1 1 6.1-5.1" mask="url(#H)"/><path d="M873.1 164.4a4 4 0 1 1-6.1 5.1 4 4 0 1 1 6.1-5.1" mask="url(#I)"/><path d="M903.1 192.4a4 4 0 1 1-6.1 5.1 4 4 0 1 1 6.1-5.1" mask="url(#J)"/><path d="M929.1 221.4a4 4 0 1 1-6.1 5.1 4 4 0 1 1 6.1-5.1" mask="url(#K)"/><path d="M977.1 369.4a4 4 0 1 1-6.1 5.1 4 4 0 1 1 6.1-5.1" mask="url(#L)"/><path d="M974.1 409.4a4 4 0 1 1-6.1 5.1 4 4 0 1 1 6.1-5.1" mask="url(#M)"/><path d="M965.1 446.4a4 4 0 1 1-6.1 5.1 4 4 0 1 1 6.1-5.1" mask="url(#N)"/><path d="M951.1 485.4a4 4 0 1 1-6.1 5.1 4 4 0 1 1 6.1-5.1" mask="url(#O)"/><path d="M930.1 518.4a4 4 0 1 1-6.1 5.1 4 4 0 1 1 6.1-5.1" mask="url(#P)"/><path d="M800.1 611.4a4 4 0 1 1-6.1 5.1 4 4 0 1 1 6.1-5.1" mask="url(#Q)"/><path d="M763.1 621.4a4 4 0 1 1-6.1 5.1 4 4 0 1 1 6.1-5.1" mask="url(#R)"/><path d="M724.1 625.4a4 4 0 1 1-6.1 5.1 4 4 0 1 1 6.1-5.1" mask="url(#S)"/><path d="M684.1 622.4a4 4 0 1 1-6.1 5.1 4 4 0 1 1 6.1-5.1" mask="url(#T)"/><path d="M646.1 613.4a4 4 0 1 1-6.1 5.1 4 4 0 1 1 6.1-5.1" mask="url(#U)"/><path d="M516.1 521.4a4 4 0 1 1-6.1 5.1 4 4 0 1 1 6.1-5.1" mask="url(#V)"/><path d="M495.1 488.4a4 4 0 1 1-6.1 5.1 4 4 0 1 1 6.1-5.1" mask="url(#W)"/><path d="M481.1 452.4a4 4 0 1 1-6.1 5.1 4 4 0 1 1 6.1-5.1" mask="url(#X)"/><path d="M471.1 413.4a4 4 0 1 1-6.1 5.1 4 4 0 1 1 6.1-5.1" mask="url(#Y)"/><path d="M468.1 373.4a4 4 0 1 1-6.1 5.1 4 4 0 1 1 6.1-5.1" mask="url(#Z)"/></g></svg>