<svg viewBox="0 0 1440 750" xmlns="http://www.w3.org/2000/svg"><circle cx="720" cy="373" fill="none" r="79" stroke="#ff5400" stroke-width="2"/><g fill="#fff"><path d="m667.9 358.3h3.6c2.5 0 3.8 1.7 3.8 3.5 0 2.2-1.7 3.6-3.8 3.6h-2.3v3.5h-1.3zm1.3 1.1v4.9h2.2c1.8 0 2.6-1.3 2.6-2.4 0-1.2-.8-2.5-2.8-2.5zm15.3-1.1h1.3v6.7c0 2.4-1.5 4.1-4.2 4.1s-4.2-1.6-4.2-4.1v-6.6h1.3v6.5c0 1.6.9 3.1 2.9 3.1s2.9-1.3 2.9-3zm11.7 3.3c0 1.5-1 2.8-2.9 3.3l3.5 3.9h-1.6c-1.2-1.5-2.5-3-3.7-4.4v-.2c2.4-.1 3.5-1.3 3.5-2.5 0-1.5-1.1-2.4-2.6-2.4h-2.3v9.5h-1.3v-10.6h3.8c1.8.1 3.6 1.2 3.6 3.4zm2.6-3.3h3.6c2.5 0 3.8 1.7 3.8 3.5 0 2.2-1.7 3.6-3.8 3.6h-2.3v3.5h-1.3zm1.3 1.1v4.9h2.2c1.8 0 2.6-1.3 2.6-2.4 0-1.2-.8-2.5-2.8-2.5zm7.8 4.2c0-3.1 2.4-5.5 5.5-5.5 3.2 0 5.5 2.4 5.5 5.5s-2.3 5.4-5.5 5.4c-3.5 0-5.5-2.3-5.5-5.4zm1.3 0c0 2.5 1.6 4.3 4.2 4.3 2.5 0 4.2-2 4.2-4.3 0-2.4-1.7-4.4-4.2-4.4s-4.2 2-4.2 4.4zm11.4 3.3c1.2.8 2.3 1 3.1 1 1.4 0 2.5-.5 2.5-1.8 0-2.8-5.4-2.2-5.4-5.3 0-1.8 1.6-2.7 3.2-2.7.9 0 1.9.1 2.8.7v1.2c-.9-.6-1.9-.8-2.6-.8-1.1 0-2.1.4-2.1 1.6 0 2.1 5.3 1.7 5.3 5.2 0 2-1.5 3-3.6 3-.9 0-2.2-.2-3.3-.8v-1.3zm16.3 2h-7.2v-10.6h6.8v1.1h-5.5v3.4h5v1.1h-5v4h5.9zm1.8-4.4h4.1v1h-4.1zm8.1-6.2v9.5h5.5v1.1h-6.8v-10.6zm14.5 10.6h-7.2v-10.6h6.8v1.1h-5.5v3.4h5v1.1h-5v4h5.9zm2.2 0v-10.6h3.6c3.2 0 5.2 2.1 5.2 5.2s-1.8 5.3-5 5.3h-3.8zm3.6-9.5h-2.4v8.4h2.5c2.6 0 3.8-1.8 3.8-4.2s-1.2-4.2-3.9-4.2z"/><path d="m690.8 379.2c1.5.4 2 1.6 2 2.7 0 1.8-1.4 3.1-3.3 3.1h-4.4v-10.6h4c1.7 0 3.1.8 3.1 2.6 0 .7-.4 1.6-1.4 2.2zm-4.4-.5h2.5c.7 0 2-.3 2-1.7 0-1-.7-1.6-1.9-1.6h-2.7v3.3zm2.7 1h-2.7v4.1h2.8c1.9 0 2.3-1.2 2.3-2 .1-1.3-.9-2.1-2.4-2.1zm13.3-5.4h1.3v6.7c0 2.4-1.5 4.1-4.2 4.1s-4.2-1.6-4.2-4.1v-6.6h1.3v6.5c0 1.6.9 3.1 2.9 3.1s2.9-1.3 2.9-3zm3.5 8.6c1.2.8 2.3 1 3.1 1 1.4 0 2.5-.5 2.5-1.8 0-2.8-5.4-2.2-5.4-5.3 0-1.8 1.6-2.7 3.2-2.7.9 0 1.9.1 2.8.7v1.2c-.9-.6-1.9-.8-2.6-.8-1.1 0-2.1.4-2.1 1.6 0 2.1 5.3 1.7 5.3 5.2 0 2-1.5 3-3.6 3-.9 0-2.2-.2-3.3-.8v-1.3zm9.3 2v-10.6h1.3v10.6zm4.4 0v-10.7h.3l7.3 8.1h.1v-7.9h1.3v10.6h-.3c-2.4-2.7-4.9-5.4-7.4-8.1v8zm19.1 0h-7.2v-10.6h6.8v1.1h-5.5v3.4h5v1.1h-5v4h5.9zm1.4-2c1.2.8 2.3 1 3.1 1 1.4 0 2.5-.5 2.5-1.8 0-2.8-5.4-2.2-5.4-5.3 0-1.8 1.6-2.7 3.2-2.7.9 0 1.9.1 2.8.7v1.2c-.9-.6-1.9-.8-2.6-.8-1.1 0-2.1.4-2.1 1.6 0 2.1 5.3 1.7 5.3 5.2 0 2-1.5 3-3.6 3-.9 0-2.2-.2-3.3-.8v-1.3zm8.4 0c1.2.8 2.3 1 3.1 1 1.4 0 2.5-.5 2.5-1.8 0-2.8-5.4-2.2-5.4-5.3 0-1.8 1.6-2.7 3.2-2.7.9 0 1.9.1 2.8.7v1.2c-.9-.6-1.9-.8-2.6-.8-1.1 0-2.1.4-2.1 1.6 0 2.1 5.3 1.7 5.3 5.2 0 2-1.5 3-3.6 3-.9 0-2.2-.2-3.3-.8v-1.3z"/></g></svg>