<svg enable-background="new 0 0 1440 750" viewBox="0 0 1440 750" xmlns="http://www.w3.org/2000/svg"><filter id="a" filterUnits="userSpaceOnUse" height="180" width="180" x="630" y="283"><feColorMatrix values="1 0 0 0 0 0 1 0 0 0 0 0 1 0 0 0 0 0 1 0"/></filter><mask id="b" height="180" maskUnits="userSpaceOnUse" width="180" x="630" y="283"><path clip-rule="evenodd" d="M461 632h517V112H461z" fill="#fff" fill-rule="evenodd" filter="url(#a)"/></mask><g fill="none" stroke="#fff" stroke-width="3" stroke-linecap="round" stroke-linejoin="round" stroke-dasharray="0 5.906"><path d="M570.5 580.5L668 445.8m136.9-100.6l156-49.7m-240.8-12.7v-164M482.5 296.5L635 346m234.5 234.5l-97.2-134.7"/></g><path clip-rule="evenodd" d="M720 284.2c-48.9 0-88.8 39.8-88.8 88.8 0 48.9 39.8 88.8 88.8 88.8s88.8-39.8 88.8-88.8c0-48.9-39.9-88.8-88.8-88.8m0 178.8c-49.6 0-90-40.4-90-90s40.4-90 90-90 90 40.4 90 90-40.4 90-90 90" fill="#fefefe" fill-rule="evenodd" mask="url(#b)"/></svg>