<svg viewBox="0 0 316.43 505.83" xmlns="http://www.w3.org/2000/svg"><path d="m0 0h142.31v27.62h-142.31z"/><path d="m0 36.01h316.43v9.44h-316.43z"/><path d="m0 60.14h166.39v19.93h-166.39z" fill="#7f7f7e"/><path d="m0 89.51h185.21v19.93h-185.21z" fill="#7f7f7e"/><path d="m0 136.19h202.04v27.62h-202.04z"/><path d="m0 172.2h316.43v9.44h-316.43z"/><path d="m0 196.33h149.31v19.93h-149.31z" fill="#7f7f7e"/><path d="m0 225.7h231.52v19.93h-231.52z" fill="#7f7f7e"/><path d="m0 273.78h252.82v27.62h-252.82z"/><path d="m0 309.79h316.43v9.44h-316.43z"/><g fill="#7f7f7f"><circle cx="30.59" cy="359.8" r="30.59"/><circle cx="115.76" cy="359.8" r="30.59"/><circle cx="202.04" cy="359.8" r="30.59"/><circle cx="283.42" cy="359.8" r="30.59"/><rect height="56" rx="28" width="314.01" y="449.83"/></g></svg>