<svg width="98" height="98" xmlns="http://www.w3.org/2000/svg"><path d="M95.063 63.825c3.2-9.818 3.2-20.4 0-30.219a3.775 3.775 0 0 0-2.888-6.972A49.088 49.088 0 0 0 70.803 5.288 3.775 3.775 0 0 0 63.83 2.4c-9.82-3.2-20.4-3.2-30.22 0a3.775 3.775 0 0 0-6.971 2.888A49.087 49.087 0 0 0 5.288 26.642 3.775 3.775 0 0 0 2.4 33.614c-3.2 9.819-3.2 20.4 0 30.22a3.775 3.775 0 0 0 2.888 6.971 49.088 49.088 0 0 0 21.354 21.37 3.775 3.775 0 0 0 6.972 2.888 48.754 48.754 0 0 0 30.211 0 3.775 3.775 0 0 0 6.972-2.888 49.088 49.088 0 0 0 21.378-21.372 3.776 3.776 0 0 0 2.888-6.978zm1.087-15.11a47.25 47.25 0 0 1-2.363 14.793c-.09 0-.176-.013-.262-.013-.776 0-1.532.239-2.166.685l-13.33-13.33a3.775 3.775 0 0 0 0-4.263l13.33-13.33c.634.447 1.39.686 2.166.685.089 0 .178 0 .262-.013a47.25 47.25 0 0 1 2.365 14.792l-.002-.005zM51.042 71.72a3.762 3.762 0 0 0-4.636 0L25.569 50.884a3.767 3.767 0 0 0 0-4.323l21.094-21.095a3.764 3.764 0 0 0 4.116 0l21.058 21.058a3.762 3.762 0 0 0 0 4.4L51.042 71.719zm40-44.4a3.767 3.767 0 0 0-.615 5.006L77.105 45.647a3.767 3.767 0 0 0-4.331-.05L51.75 24.57a3.762 3.762 0 0 0 .15-4.326L65.125 7.018a3.767 3.767 0 0 0 5-.614A47.751 47.751 0 0 1 91.041 27.32zM48.721 1.294a47.25 47.25 0 0 1 14.791 2.362c0 .09-.013.176-.013.263 0 .775.239 1.531.685 2.165L50.992 19.277a3.759 3.759 0 0 0-4.539 0L33.26 6.083c.446-.634.685-1.39.685-2.165 0-.09 0-.179-.013-.263a47.25 47.25 0 0 1 14.79-2.362zM27.32 6.403a3.767 3.767 0 0 0 5.005.615l13.23 13.232a3.762 3.762 0 0 0 .15 4.326L24.642 45.64a3.767 3.767 0 0 0-4.331 0L7.018 32.325a3.767 3.767 0 0 0-.614-5.01A47.751 47.751 0 0 1 27.32 6.403zM1.293 48.722A47.25 47.25 0 0 1 3.655 33.93c.09 0 .176.013.263.013.775 0 1.531-.238 2.165-.685L19.376 46.55a3.764 3.764 0 0 0 0 4.34L6.083 64.181a3.759 3.759 0 0 0-2.165-.685c-.09 0-.179 0-.263.013a47.25 47.25 0 0 1-2.362-14.789zm5.11 21.404a3.767 3.767 0 0 0 .615-5.01L20.31 51.82c1.3.913 3.032.913 4.331 0l20.882 20.882a3.759 3.759 0 0 0 .22 4.324l-13.419 13.4a3.767 3.767 0 0 0-5.01.614A47.751 47.751 0 0 1 6.403 70.125zm42.318 26.027A47.25 47.25 0 0 1 33.93 93.79c0-.09.013-.176.013-.263 0-.775-.238-1.531-.685-2.165l13.459-13.459a3.756 3.756 0 0 0 4.008 0l13.458 13.459a3.759 3.759 0 0 0-.685 2.165c0 .09 0 .179.013.263a47.25 47.25 0 0 1-14.789 2.362zm21.404-5.11a3.767 3.767 0 0 0-5.01-.615L51.702 77.016a3.759 3.759 0 0 0 .22-4.323L72.778 51.84a3.767 3.767 0 0 0 4.33-.05L90.43 65.112a3.767 3.767 0 0 0 .611 5.013 47.751 47.751 0 0 1-20.916 20.916z" fill="#FFF"/></svg>