<svg width="104" height="104" xmlns="http://www.w3.org/2000/svg"><g fill="#FFF"><circle cx="51.151" cy="3.287" r="3.287"/><circle cx="75.737" cy="9.86" r="3.287"/><circle cx="93.416" cy="27.536" r="3.287"/><circle cx="99.886" cy="51.689" r="3.287"/><circle cx="93.416" cy="75.834" r="3.287"/><circle cx="75.737" cy="93.516" r="3.287"/><circle cx="51.673" cy="100.073" r="3.287"/><circle cx="27.436" cy="93.516" r="3.287"/><circle cx="9.757" cy="75.839" r="3.287"/><circle cx="3.287" cy="51.689" r="3.287"/><circle cx="9.757" cy="27.539" r="3.287"/><circle cx="27.436" cy="9.86" r="3.287"/><circle cx="51.405" cy="51.613" r="8.232"/><circle transform="rotate(-45 31.962 31.907)" cx="31.962" cy="31.907" r="4.707"/><circle transform="rotate(-45 58.772 24.724)" cx="58.772" cy="24.724" r="4.707"/><circle transform="rotate(-45 78.294 44.247)" cx="78.294" cy="44.247" r="4.707"/><circle transform="rotate(-45 71.096 71.274)" cx="71.096" cy="71.274" r="4.707"/><circle transform="rotate(-45 24.78 58.717)" cx="24.781" cy="58.717" r="4.707"/><circle transform="rotate(-45 44.404 78.341)" cx="44.404" cy="78.341" r="4.707"/></g></svg>