<svg viewBox="0 0 1220 734" xmlns="http://www.w3.org/2000/svg" xmlnsxlink="http://www.w3.org/1999/xlink" role="img" aria-hidden="true" focusable="false">
<defs>
<radialGradient id="grad1" cx="50%" cy="50%" r="1000%" fx="50%" fy="50%">
<animate attributeName="r" dur="30s" from="0%" to="1000%" fill="freeze">
</animate>
<stop offset="0%" style="stop-color:rgb(255,255,255);stop-opacity:1">
</stop>
<stop offset="5%" style="stop-color:rgb(255,255,255);stop-opacity:1">
</stop>
<stop offset="100%" style="stop-color:rgb(18,20,26);stop-opacity:1">
</stop>
</radialGradient>
<clipPath id="clippy">
<path d="M886 367.2c0-20.178-12.023-36.2-33.358-36.2C833.26 331 820 347.022 820 367.2c0 20.974 13.464 36.8 32.642 36.8C873.397 404 886 387.778 886 367.2zm1.725 56.793C877.491 434.664 864.635 440 848.139 440 808.886 440 780 407.768 780 367c0-39.702 30.789-73 69.6-73 15.87 0 28.306 5.124 38.54 16.218.21 0 .417-.211.628-.211V296.77H929v140.672h-40.232v-13.449h-1.043zM651.678 298H770v3.614L709.87 404.86h56.963V438H646v-3.825c20.49-34.625 39.856-68.618 60.344-103.457h-54.88l.214-32.718zM590.1 437v-89.455c0-9.14-4.774-18.063-16.818-18.063-9.963 0-21.588 7.865-21.588 24.86V437H511V296.972h37.163v13.387h1.04C559.997 298.672 575.359 294 587.608 294 615.013 294 631 309.298 631 338.194V437h-40.9zM395 351h54c-2.552-15.111-11.693-24-26.575-24-14.46 0-24.448 10.667-27.425 24zm93 15.783v12.17h-94.83c4.196 21.557 22.45 28.389 43.012 28.389 10.908 0 27.064-2.774 44.687-12.17v31.38C464.505 436.37 446.462 440 428.839 440 374.499 440 351 405.634 351 367.213 351 326.87 377.645 294 420.445 294 462.198 294 488 320.042 488 366.783zm-225.93-5.479L303.14 298h43.56l-46.484 67.557L349 438h-45.026l-41.904-67.986V438H221V298h41.07v63.304zM957 418.502c0-11.873 9.629-21.502 21.502-21.502 11.87 0 21.498 9.629 21.498 21.502 0 11.87-9.629 21.498-21.498 21.498-11.873 0-21.502-9.629-21.502-21.498z">
</path>
</clipPath>
</defs>
<rect background="rgb(18,20,26)" class="animate" clip-path="url(#clippy)" width="1220" height="1220" y="-248">
</rect>
</svg>
