<svg xmlns="http://www.w3.org/2000/svg" viewBox="0 0 221 40.8"><style>.st0{fill:#12141c}@supports (animation:fade 3s){.st0{animation:fade 3s;animation-fill-mode:forwards;fill:transparent;stroke:#12141c;stroke-width:1px;stroke-dasharray:200;stroke-dashoffset:200}.s0{animation-delay:0}.s1{animation-delay:400ms}.s2{animation-delay:800ms}.s3{animation-delay:1200ms}.s4{animation-delay:1600ms}.s5{animation-delay:2000ms}@keyframes fade{0%{fill:transparent;stroke-dashoffset:200}50%{fill:transparent}80%{stroke-dashoffset:0}}}</style><path class="st0 s0" d="M11.7 18.6L23.4.8h12.4l-13.2 19L36.5 40H23.7l-12-19v19H0V.8h11.7v17.8z"/><path class="st0 s1" d="M75.7 20.3v3.4H48.8c1.2 6 6.4 7.9 12.2 7.9 3.1 0 7.7-.8 12.7-3.4v8.7c-4.6 2.7-9.8 3.7-14.8 3.7-15.4 0-22.1-9.6-22.1-20.3C36.9 9.2 44.4 0 56.6 0c11.8 0 19.1 7.3 19.1 20.3zM49 15.9h15.1c-.7-4-3.3-6.4-7.4-6.4-4.1 0-6.9 2.8-7.7 6.4z"/><path class="st0 s2" d="M104.4 40V15c0-2.6-1.4-5.1-4.8-5.1-2.9 0-6.2 2.2-6.2 7V40H81.8V.8h10.6v3.7h.3c3.1-3.3 7.5-4.6 11-4.6 7.9 0 12.4 4.3 12.4 12.4V40h-11.7z"/><path class="st0 s3" d="M122.4.8h33.3v1l-16.9 28.9h16V40h-34v-1c5.8-9.7 11.2-19.2 17-29h-15.5l.1-9.2z"/><path class="st0 s4" d="M189.2 36.3c-2.9 3-6.6 4.5-11.3 4.5-11.2 0-19.4-9-19.4-20.3 0-11.1 8.8-20.3 19.8-20.3 4.5 0 8.1 1.4 11 4.5.1 0 .1-.1.2-.1V.8H201V40h-11.5v-3.7h-.3zm-.7-15.9c0-5.7-3.4-10.1-9.5-10.1-5.5 0-9.3 4.5-9.3 10.1 0 5.9 3.8 10.3 9.3 10.3 5.9 0 9.5-4.6 9.5-10.3z"/><circle class="st0 s5" cx="214.9" cy="34.6" r="6.1"/></svg>