<svg viewBox="0 0 68.5 40.5" xmlns="http://www.w3.org/2000/svg"><g fill="#fff"><path d="M34.3 30.6c2.1 0 3.7 1.7 3.7 3.7S36.3 38 34.3 38c-2.1 0-3.7-1.7-3.7-3.7s1.6-3.7 3.7-3.7m0-2.3c-3.4 0-6.1 2.7-6.1 6.1s2.7 6.1 6.1 6.1 6.1-2.7 6.1-6.1-2.8-6.1-6.1-6.1z"/><circle cx="62.4" cy="34.4" r="6.1"/><path d="M62.4 2.4c2.1 0 3.7 1.7 3.7 3.7s-1.7 3.7-3.7 3.7-3.7-1.7-3.7-3.7 1.7-3.7 3.7-3.7m0-2.4c-3.4 0-6.1 2.7-6.1 6.1s2.7 6.1 6.1 6.1 6.1-2.7 6.1-6.1S65.8 0 62.4 0zM34.3 2.4c2 0 3.7 1.6 3.7 3.7s-1.7 3.7-3.7 3.7c-2.1 0-3.7-1.7-3.7-3.7s1.6-3.7 3.7-3.7m0-2.4c-3.4 0-6.1 2.7-6.1 6.1s2.7 6.1 6.1 6.1 6.1-2.7 6.1-6.1S37.6 0 34.3 0zM6.1 30.6c2.1 0 3.7 1.7 3.7 3.7S8.1 38 6.1 38s-3.7-1.7-3.7-3.7 1.6-3.7 3.7-3.7m0-2.3C2.7 28.3 0 31 0 34.4s2.7 6.1 6.1 6.1 6.1-2.7 6.1-6.1-2.8-6.1-6.1-6.1zm0-25.9c2.1 0 3.7 1.7 3.7 3.7S8.1 9.8 6.1 9.8 2.4 8.1 2.4 6.1 4 2.4 6.1 2.4m0-2.4C2.7 0 0 2.7 0 6.1s2.7 6.1 6.1 6.1 6.1-2.7 6.1-6.1S9.4 0 6.1 0z"/></g></svg>