<svg id="Layer_1" xmlns="http://www.w3.org/2000/svg" viewBox="0 0 224 42"><style>.st0{fill:#fff}@supports (animation:fade 3s){.st0{animation:fade 3s;animation-fill-mode:forwards;fill:transparent;stroke:#fff;stroke-width:1px;stroke-dasharray:200;stroke-dashoffset:200}.s0{animation-delay:0}.s1{animation-delay:400ms}.s2{animation-delay:800ms}.s3{animation-delay:1200ms}.s4{animation-delay:1600ms}.s5{animation-delay:2000ms}@keyframes fade{0%{fill:transparent;stroke-dashoffset:200}50%{fill:transparent}80%{stroke-dashoffset:0}}}</style><path class="st0 s0" d="M12.2 19.2L23.9 1.4h12.4l-13.2 19L37 40.6H24.2l-12-19v19H.5V1.4h11.7v17.8z"/><path class="st0 s1" d="M76.2 20.9v3.4H49.3c1.2 6 6.4 7.9 12.2 7.9 3.1 0 7.7-.8 12.7-3.4v8.7c-4.6 2.7-9.8 3.7-14.8 3.7-15.4 0-22.1-9.6-22.1-20.3C37.4 9.8 44.9.6 57.1.6c11.8 0 19.1 7.3 19.1 20.3zm-26.7-4.4h15.1c-.7-4-3.3-6.4-7.4-6.4s-6.9 2.8-7.7 6.4z"/><path class="st0 s2" d="M104.9 40.6v-25c0-2.6-1.4-5.1-4.8-5.1-2.9 0-6.2 2.2-6.2 7v23.1H82.3V1.4h10.6v3.7h.3c3.1-3.3 7.5-4.6 11-4.6 7.9 0 12.4 4.3 12.4 12.4v27.7h-11.7z"/><path class="st0 s3" d="M122.9 1.4h33.3v1l-16.9 28.9h16v9.3h-34v-1c5.8-9.7 11.2-19.2 17-29h-15.5l.1-9.2z"/><path class="st0 s4" d="M189.7 36.9c-2.9 3-6.6 4.5-11.3 4.5-11.2 0-19.4-9-19.4-20.3C159 10 167.8.8 178.8.8c4.5 0 8.1 1.4 11 4.5.1 0 .1-.1.2-.1V1.4h11.5v39.2H190v-3.7h-.3zM189 21c0-5.7-3.4-10.1-9.5-10.1-5.5 0-9.3 4.5-9.3 10.1 0 5.9 3.8 10.3 9.3 10.3 5.9 0 9.5-4.6 9.5-10.3z"/><circle class="st0 s5" cx="215.4" cy="35.2" r="6.1"/></svg>