<?xml version="1.0" encoding="utf-8"?>
<!-- Generator: Adobe Illustrator 24.3.0, SVG Export Plug-In . SVG Version: 6.00 Build 0)  -->
<svg version="1.1" id="Layer_1" xmlns="http://www.w3.org/2000/svg" xmlns:xlink="http://www.w3.org/1999/xlink" x="0px" y="0px"
	 viewBox="0 0 316.4 505.8" style="enable-background:new 0 0 316.4 505.8;" xml:space="preserve">
<rect fill="#CCCACA" width="316.4" height="505.8"/>
<rect x="55" y="70" fill="#FF5500" width="166.4" height="20"/>
<g fill="#7F7F7E">
	<rect x="10" y="100" width="20" height="20"/>
	<rect x="10" y="130" width="20" height="20"/>
	<rect x="10" y="160" width="20" height="20"/>
	<rect x="10" y="190" width="20" height="20"/>
	<rect x="10" y="220" width="20" height="20"/>
	<rect x="10" y="250" width="20" height="20"/>
	<rect x="10" y="280" width="20" height="20"/>
	<rect x="10" y="310" width="20" height="20"/>
	<rect x="10" y="340" width="20" height="20"/>
	<rect x="10" y="370" width="20" height="20"/>
	<rect x="10" y="400" width="20" height="20"/>
	<rect x="10" y="430" width="20" height="20"/>
	<rect x="55" y="100" width="166.4" height="20"/>
	<rect x="55" y="130" width="185.2" height="20"/>
	<rect x="55" y="160" width="149.3" height="20"/>
	<rect x="55" y="190" width="231.5" height="20"/>
	<rect x="55" y="220" width="166.4" height="20"/>
	<rect x="55" y="250" width="185.2" height="20"/>
	<rect x="55" y="280" width="149.3" height="20"/>
	<rect x="55" y="310" width="231.5" height="20"/>
	<rect x="55" y="340" width="149.3" height="20"/>
	<rect x="55" y="370" width="231.5" height="20"/>
	<rect x="55" y="400" width="166.4" height="20"/>
	<rect x="55" y="430" width="185.2" height="20"/>
</g>
<rect x="10" y="70" fill="#FF5500" width="20" height="20"/>
</svg>
