<svg xmlns="http://www.w3.org/2000/svg" viewBox="0 0 380 378"><path fill="#777" d="M42 0h85v10H42z"/><path d="M41 16h242v27H41zM0 62h380v26H0z"/><path fill="#d3d2d1" d="M0 115h380v26H0zM0 168h380v26H0zM0 221h380v26H0zM0 272h380v27H0zM0 324h380v54H0z"/><path fill="#777" d="M37 97h85v9H37zM147 97h86v9h-86zM257 97h85v9h-85z"/><path fill="#fff" d="M37 70h85v10H37zM148 70h85v10h-85zM257 70h86v10h-86z"/><g fill="#777"><path d="M37 123h85v10H37zM148 123h85v10h-85zM257 123h86v10h-86zM38 176h85v10H38zM148 176h85v10h-85zM258 176h85v10h-85zM38 150h85v9H38zM148 150h85v9h-85zM258 150h85v9h-85zM38 203h85v9H38zM149 203h85v9h-85zM259 203h85v9h-85zM39 229h85v10H39zM149 229h85v10h-85zM259 229h85v10h-85zM37 255h85v10H37zM148 255h85v10h-85zM257 255h86v10h-86zM37 281h85v9H37zM148 281h85v9h-85zM257 281h86v9h-86zM37 306h85v10H37zM148 306h85v10h-85zM257 306h86v10h-86z"/></g><rect width="69.58" height="13.99" x="155" y="344" rx="6.99"/></svg>
