<svg viewBox="0 0 379.63 386.01" xmlns="http://www.w3.org/2000/svg"><path d="m.87 20.63h236.71v34.97h-236.71z" fill="#777"/><path d="m.87 0h76.22v9.09h-76.22z" fill="#bababa"/><path d="m.87 74.13h32.87v8.74h-32.87z" fill="#ff5600"/><path d="m.87 87.76h378.32v14.69h-378.32z" fill="#777"/><path d="m0 107.87h295.17v14.69h-295.17z" fill="#777"/><path d="m1.31 144.06h32.87v8.74h-32.87z" fill="#ff5600"/><path d="m1.31 157.69h378.32v14.69h-378.32z" fill="#777"/><path d="m.44 177.8h295.17v14.69h-295.17z" fill="#777"/><path d="m1.31 214.25h32.87v8.74h-32.87z" fill="#ff5600"/><path d="m1.31 227.88h378.32v14.69h-378.32z" fill="#777"/><path d="m.44 247.99h295.17v14.69h-295.17z" fill="#777"/><path d="m.87 285.4h32.87v8.74h-32.87z" fill="#ff5600"/><path d="m.87 299.04h378.32v14.69h-378.32z" fill="#777"/><path d="m0 319.14h295.17v14.69h-295.17z" fill="#777"/><g fill="#bababa"><path d="m1.31 354.55h56.84v13.64h-56.84z"/><path d="m61.96 354.55h100.76v13.64h-100.76z"/><path d="m166.08 354.55h37.67v13.64h-37.67z"/><path d="m207.04 354.55h64.86v13.64h-64.86z"/><path d="m.87 372.38h37.67v13.64h-37.67z"/><path d="m43.05 372.38h70.73v13.64h-70.73z"/><path d="m118.53 372.38h64.68v13.64h-64.68z"/><path d="m187.36 372.38h37.67v13.64h-37.67z"/></g></svg>