<svg xmlns="http://www.w3.org/2000/svg" viewBox="0 0 302 46">
    <path d="M1 1h61v45H1z" fill="none" stroke="#000"/>
    <path d="M6 34h16v5H6z" fill="#fc7b06"/>
    <path d="M6 8h36v9H6zM6 19h28v9H6z" fill="#3d3d3d"/>
    <path d="M80 1h61v45H80z" fill="none" stroke="#000"/>
    <path d="M86 34h16v5H86z" fill="#fc7b06"/>
    <path d="M86 8h36v9H86zM86 19h28v9H86z" fill="#3d3d3d"/>
    <path d="M160 1h61v45h-61z" fill="none" stroke="#000"/>
    <path d="M166 34h16v5h-16z" fill="#fc7b06"/>
    <path d="M166 8h36v9h-36zM166 19h28v9h-28z" fill="#3d3d3d"/>
    <path d="M240 1h61v45h-61z" fill="none" stroke="#000"/>
    <path d="M246 34h16v5h-16z" fill="#fc7b06"/>
    <path d="M246 8h36v9h-36zM246 19h28v9h-28z" fill="#3d3d3d"/>
</svg>
