<svg viewBox="0 0 379.48 386.01" xmlns="http://www.w3.org/2000/svg">
    <path d="m147.83 0h231.64v231.64h-231.64z" fill="#d8d8d8"/>
    <circle cx="268.88" cy="115.91" fill="#912d2d" r="66.61"/>
    <path d="m21.59 77.27h2.1v308.74h-2.1z"/>
    <path d="m73 77.27h51.4v12.24h-51.4z"/>
    <g fill="#f50">
        <path d="m73 191.69h94.06v5.59h-94.06z"/>
        <path d="m73 201.01h153.5v5.59h-153.5z"/>
        <path d="m73 209.9h83.92v5.94h-83.92z"/>
        <path d="m73 273.42h16.08v14.34h-16.08z"/>
    </g>
    <g fill="#8c8c8c">
        <path d="m0 0h47.38v56.29h-47.38z"/>
        <path d="m73 109.05h115.03v16.43h-115.03z"/>
        <path d="m73 134.57h153.5v17.83h-153.5z"/>
        <path d="m73 161.5h76.75v13.64h-76.75z"/>
        <path d="m92.94 273.43h181.54v4.55h-181.54z"/>
        <path d="m92.94 283.22h191.25v4.55h-191.25z"/>
        <path d="m73 293.01h190.65v4.55h-190.65z"/>
        <path d="m73 302.8h116.82v4.55h-116.82z"/>
        <path d="m73 320.98h211.19v4.55h-211.19z"/>
        <path d="m73 330.42h211.19v4.55h-211.19z"/>
        <path d="m73 339.86h211.19v4.55h-211.19z"/>
        <path d="m73 349.3h211.19v4.55h-211.19z"/>
        <path d="m73 358.74h211.19v4.55h-211.19z"/>
    </g>

</svg>
