<svg viewBox="0 0 379 183" xmlns="http://www.w3.org/2000/svg" xmlns:xlink="http://www.w3.org/1999/xlink"><clipPath id="a" transform="translate(.35 -100.65)"><path d="m336.89 280.77-35.59-4.96-24.27 26.5-6.28-35.38-32.71-14.88 31.71-16.91 4.06-35.71 25.87 24.94 35.21-7.18-15.71 32.31z"/></clipPath><path d="m.04 0h379.63v178.77h-379.63z"/><path d="m106.47 174.45h113.76v8.74h-113.76z" fill="#ff5600"/><g fill="#777"><path d="m39.86 36.85h171.17v9.76h-171.17z"/><path d="m39.77 50.21h154.26v9.76h-154.26z"/><path d="m39.86 63.57h167.18v9.76h-167.18z"/><path d="m39.77 76.93h202.71v9.76h-202.71z"/><path d="m39.86 90.29h93.3v9.76h-93.3z"/></g><path d="m389.34 87.81-50.17 16.26-39.16-35.32 11-51.57 50.17-16.26 39.16 35.32z" fill="#262626"/><g clip-path="url(#a)"><path d="m0 .05h379.63v178.77h-379.63z" fill="#2d2d2d"/></g><circle cx="310.66" cy="93.75" fill="#565656" r="49.3"/></svg>
