<svg enable-background="new 0 0 620 510" viewBox="0 0 620 510" xmlns="http://www.w3.org/2000/svg"><filter id="a" filterUnits="userSpaceOnUse" height="509.7" width="509.7" x="54.2" y=".2"><feColorMatrix values="1 0 0 0 0 0 1 0 0 0 0 0 1 0 0 0 0 0 1 0"/></filter><mask id="b" height="509.7" maskUnits="userSpaceOnUse" width="509.7" x="54.2" y=".2"><path clip-rule="evenodd" d="M0 0h620v510H0z" fill="#fff" fill-rule="evenodd" filter="url(#a)"/></mask><g fill="#12141c" mask="url(#b)"><g transform="translate(405.334 250.898)"><circle clip-rule="evenodd" cx="154.6" cy="4.1" fill-rule="evenodd" r="4"/><path d="M4.2 1.7c1.3 0 2.4 1.1 2.4 2.4S5.5 6.6 4.2 6.6 1.8 5.5 1.8 4.1s1.1-2.4 2.4-2.4zm0-1.5C2 .2.2 2 .2 4.2s1.8 4 4 4 4-1.8 4-4-1.8-4-4-4zm30 1.5c1.3 0 2.4 1.1 2.4 2.4s-1.1 2.4-2.4 2.4-2.4-1.1-2.4-2.4 1.1-2.4 2.4-2.4zm0-1.5c-2.2 0-4 1.8-4 4s1.8 4 4 4 4-1.8 4-4-1.8-4-4-4zm30.2 1.5c1.3 0 2.4 1.1 2.4 2.4s-1.1 2.4-2.4 2.4S62 5.4 62 4.1s.9-2.4 2.4-2.4zm0-1.5c-2.2 0-4 1.8-4 4s1.8 4 4 4 4-1.8 4-4-1.8-4-4-4zm30 1.5c1.3 0 2.4 1.1 2.4 2.4s-1.1 2.4-2.4 2.4S92 5.4 92 4.1s1.1-2.4 2.4-2.4zm0-1.5c-2.2 0-4 1.8-4 4s1.8 4 4 4 4-1.8 4-4-1.8-4-4-4zm30.1 1.5c1.3 0 2.4 1.1 2.4 2.4s-1.1 2.4-2.4 2.4-2.4-1.1-2.4-2.4 1-2.4 2.4-2.4zm0-1.5c-2.2 0-4 1.8-4 4s1.8 4 4 4 4-1.8 4-4-1.8-4-4-4z"/></g><g transform="translate(392.129 123.545)"><circle clip-rule="evenodd" cx="134.2" cy="6.1" fill-rule="evenodd" r="4"/><path d="M2.8 79.1c1.2-.6 2.6-.2 3.3.9.7 1.2.2 2.6-.9 3.3-1.2.7-2.7.2-3.3-.9-.8-1.2-.4-2.6.9-3.3zM2 77.8C.1 78.9-.5 81.3.6 83.2s3.5 2.5 5.4 1.4 2.5-3.5 1.4-5.4c-1.1-1.8-3.5-2.5-5.4-1.4zM28.7 64c1.2-.7 2.6-.2 3.3.9.7 1.2.2 2.6-.9 3.3-1.2.7-2.6.2-3.3-.9-.6-1.1-.2-2.6.9-3.3zm-.7-1.3c-1.9 1.1-2.5 3.5-1.4 5.4s3.5 2.5 5.4 1.4 2.5-3.5 1.4-5.4c-1-1.8-3.5-2.5-5.4-1.4zm26.8-13.6c1.2-.7 2.6-.2 3.3.9.7 1.2.2 2.6-.9 3.3-1.2.7-2.6.2-3.3-.9-.6-1.2-.3-2.7.9-3.3zm-.8-1.5c-1.9 1.1-2.5 3.5-1.4 5.4s3.5 2.5 5.4 1.4 2.5-3.5 1.4-5.4c-1.1-1.8-3.5-2.5-5.4-1.4zM80.9 34c1.2-.7 2.6-.2 3.3.9.7 1.2.2 2.6-.9 3.3-1.2.7-2.6.2-3.3-.9-.7-1.2-.3-2.6.9-3.3zm-.8-1.3c-1.9 1.1-2.5 3.5-1.4 5.4s3.5 2.5 5.4 1.4 2.5-3.5 1.4-5.4-3.5-2.5-5.4-1.4zm26.8-13.8c1.2-.7 2.6-.2 3.3.9.7 1.2.2 2.6-.9 3.3-1.2.7-2.6.2-3.3-.9s-.2-2.6.9-3.3zm-.8-1.3c-1.9 1.1-2.5 3.5-1.4 5.4s3.5 2.5 5.4 1.4 2.5-3.5 1.4-5.4c-1-1.8-3.4-2.5-5.4-1.4z"/></g><g transform="translate(354.714 32.21)"><circle clip-rule="evenodd" cx="79.7" cy="5.5" fill-rule="evenodd" r="4"/><path d="M2.4 134.6c.7-1.2 2.2-1.5 3.3-.9 1.2.7 1.5 2.2.9 3.3-.7 1.2-2.2 1.5-3.3.9-1.1-.7-1.5-2.2-.9-3.3zm-1.3-.8c-1.1 1.9-.4 4.3 1.4 5.4s4.3.4 5.4-1.4.4-4.3-1.4-5.4-4.3-.6-5.4 1.4zm16.4-25.3c.7-1.2 2.2-1.5 3.3-.9 1.2.7 1.5 2.2.9 3.3-.7 1.2-2.2 1.5-3.3.9-1.2-.7-1.6-2.2-.9-3.3zm-1.3-.8c-1.1 1.9-.4 4.3 1.4 5.4 1.9 1.1 4.3.4 5.4-1.4 1.1-1.9.4-4.3-1.4-5.4-1.9-1.1-4.3-.4-5.4 1.4zm16.4-25.3c.7-1.2 2.2-1.5 3.3-.9 1.2.7 1.5 2.2.9 3.3-.7 1.2-2.2 1.5-3.3.9-1.3-.6-1.7-2.1-.9-3.3zm-1.5-.7c-1.1 1.9-.4 4.3 1.4 5.4 1.9 1.1 4.3.4 5.4-1.4s.4-4.3-1.4-5.4c-1.8-1.2-4.3-.5-5.4 1.4zm16.4-25.2c.7-1.2 2.2-1.5 3.3-.9 1.2.7 1.5 2.2.9 3.3-.7 1.2-2.2 1.5-3.3.9-1.1-.7-1.5-2.2-.9-3.3zm-1.3-.8c-1.1 1.9-.4 4.3 1.4 5.4 1.9 1.1 4.3.4 5.4-1.4 1.1-1.9.4-4.3-1.4-5.4-1.9-1.1-4.3-.6-5.4 1.4zm16.4-25.3c.7-1.2 2.2-1.5 3.3-.9 1.2.7 1.5 2.2.9 3.3-.7 1.2-2.2 1.5-3.3.9-1.1-.7-1.5-2.2-.9-3.3zm-1.3-.8c-1.1 1.9-.4 4.3 1.4 5.4 1.9 1.1 4.3.4 5.4-1.4 1.1-1.9.4-4.3-1.4-5.4-1.9-1.1-4.3-.5-5.4 1.4z"/></g><g transform="translate(304.898)"><circle clip-rule="evenodd" cx="4.1" cy="4.1" fill-rule="evenodd" r="4"/><path d="M1.7 154.5c0-1.3 1.1-2.4 2.4-2.4s2.4 1.1 2.4 2.4-1.1 2.4-2.4 2.4c-1.4 0-2.4-1.1-2.4-2.4zm-1.5 0c0 2.2 1.8 4 4 4s4-1.8 4-4-1.8-4-4-4-4 1.8-4 4zm1.5-30.1c0-1.3 1.1-2.4 2.4-2.4s2.4 1.1 2.4 2.4-1.1 2.4-2.4 2.4c-1.4 0-2.4-1.1-2.4-2.4zm-1.5 0c0 2.2 1.8 4 4 4s4-1.8 4-4-1.8-4-4-4-4 1.8-4 4zm1.5-30c0-1.3 1.1-2.4 2.4-2.4s2.4 1.1 2.4 2.4-1.1 2.4-2.4 2.4c-1.4 0-2.4-1.1-2.4-2.4zm-1.5 0c0 2.2 1.8 4 4 4s4-1.8 4-4-1.8-4-4-4-4 1.8-4 4zm1.5-30.2c0-1.3 1.1-2.4 2.4-2.4s2.4 1.1 2.4 2.4-1.1 2.4-2.4 2.4c-1.4.1-2.4-1-2.4-2.4zm-1.5 0c0 2.2 1.8 4 4 4s4-1.8 4-4-1.8-4-4-4-4 1.8-4 4zm1.5-30c0-1.3 1.1-2.4 2.4-2.4s2.4 1.1 2.4 2.4-1.1 2.4-2.4 2.4c-1.4 0-2.4-1.1-2.4-2.4zm-1.5 0c0 2.2 1.8 4 4 4s4-1.8 4-4-1.8-4-4-4-4 1.8-4 4z"/></g><g transform="translate(177.545 32.21)"><circle clip-rule="evenodd" cx="6" cy="5.5" fill-rule="evenodd" r="4"/><path d="M79.1 137c-.7-1.2-.2-2.6.9-3.3 1.2-.7 2.6-.2 3.3.9s.2 2.6-.9 3.3c-1.2.6-2.6.2-3.3-.9zm-1.3.8c1.1 1.9 3.5 2.5 5.4 1.4s2.5-3.5 1.4-5.4-3.5-2.5-5.4-1.4c-1.8 1-2.5 3.5-1.4 5.4zM64 110.9c-.7-1.2-.2-2.6.9-3.3s2.6-.2 3.3.9.2 2.6-.9 3.3-2.6.3-3.3-.9zm-1.3.8c1.1 1.9 3.5 2.5 5.4 1.4s2.5-3.5 1.4-5.4-3.5-2.5-5.4-1.4c-1.8 1.1-2.5 3.5-1.4 5.4zM49 84.8c-.7-1.2-.2-2.6.9-3.3 1.2-.7 2.6-.2 3.3.9s.2 2.6-.9 3.3c-1.1.8-2.6.4-3.3-.9zm-1.4.8c1.1 1.9 3.5 2.5 5.4 1.4s2.5-3.5 1.4-5.4-3.5-2.5-5.4-1.4c-1.8 1.1-2.5 3.5-1.4 5.4zM34 58.9c-.7-1.2-.2-2.6.9-3.3 1.2-.7 2.6-.2 3.3.9s.2 2.6-.9 3.3c-1.2.6-2.6.2-3.3-.9zm-1.3.7c1.1 1.9 3.5 2.5 5.4 1.4s2.5-3.5 1.4-5.4-3.5-2.5-5.4-1.4c-1.9 1-2.5 3.5-1.4 5.4zM18.9 32.8c-.7-1.2-.2-2.6.9-3.3 1.2-.7 2.6-.2 3.3.9s.2 2.6-.9 3.3c-1.1.6-2.6.2-3.3-.9zm-1.3.8c1.1 1.9 3.5 2.5 5.4 1.4s2.5-3.5 1.4-5.4-3.5-2.5-5.4-1.4c-1.8 1.1-2.5 3.5-1.4 5.4z"/></g><g transform="translate(86.21 123.545)"><circle clip-rule="evenodd" cx="5.5" cy="6" fill-rule="evenodd" r="4"/><path d="M134.6 83.3c-1.2-.7-1.5-2.2-.9-3.3.7-1.2 2.2-1.5 3.3-.9 1.1.7 1.5 2.2.9 3.3-.7 1.1-2.2 1.6-3.3.9zm-.8 1.3c1.9 1.1 4.3.4 5.4-1.4s.4-4.3-1.4-5.4c-1.9-1.1-4.3-.4-5.4 1.4-1.2 1.9-.6 4.3 1.4 5.4zm-25.3-16.4c-1.2-.7-1.5-2.2-.9-3.3.7-1.1 2.2-1.5 3.3-.9 1.1.7 1.5 2.2.9 3.3-.7 1.3-2.2 1.7-3.3.9zm-.8 1.5c1.9 1.1 4.3.4 5.4-1.4 1.1-1.9.4-4.3-1.4-5.4-1.9-1.1-4.3-.4-5.4 1.4s-.4 4.3 1.4 5.4zM82.4 53.3c-1.2-.7-1.5-2.2-.9-3.3.7-1.2 2.2-1.5 3.3-.9 1.1.7 1.5 2.2.9 3.3s-2.1 1.5-3.3.9zm-.7 1.3c1.9 1.1 4.3.4 5.4-1.4 1.1-1.9.4-4.3-1.4-5.4s-4.3-.4-5.4 1.4c-1.2 1.9-.5 4.3 1.4 5.4zM56.3 38.2c-1.2-.7-1.5-2.2-.9-3.3.7-1.2 2.2-1.5 3.3-.9 1.1.7 1.5 2.2.9 3.3s-2 1.5-3.3.9zm-.7 1.3c1.9 1.1 4.3.4 5.4-1.4 1.1-1.9.4-4.3-1.4-5.4-1.9-1.1-4.3-.4-5.4 1.4-1.2 1.9-.5 4.3 1.4 5.4zM30.4 23.1c-1.2-.7-1.5-2.2-.9-3.3.7-1.2 2.2-1.5 3.3-.9 1.1.7 1.5 2.2.9 3.3-.7 1.2-2.2 1.7-3.3.9zm-.8 1.4c1.9 1.1 4.3.4 5.4-1.4 1.1-1.9.4-4.3-1.4-5.4-1.9-1.1-4.3-.4-5.4 1.4-1.1 1.9-.6 4.3 1.4 5.4z"/></g><g transform="translate(177.545 338.129)"><circle clip-rule="evenodd" cx="6" cy="134.1" fill-rule="evenodd" r="4"/><path d="M83.3 5.2c-.7 1.2-2.2 1.5-3.3.9-1.2-.7-1.5-2.2-.9-3.3.7-1.2 2.2-1.5 3.3-.9 1.2.6 1.6 2.1.9 3.3zm1.3.7C85.7 4 85 1.6 83.2.5S78.9.1 77.8 2s-.4 4.3 1.4 5.4c1.9 1.1 4.3.4 5.4-1.5zM68.2 31.1c-.7 1.2-2.2 1.5-3.3.9-1.2-.7-1.5-2.2-.9-3.3.7-1.2 2.2-1.5 3.3-.9 1.3.7 1.6 2.2.9 3.3zm1.5.8c1.1-1.9.4-4.3-1.4-5.4-1.9-1.1-4.3-.4-5.4 1.4s-.4 4.3 1.4 5.4c1.7 1.1 4.3.6 5.4-1.4zM53.3 57.2c-.7 1.2-2.2 1.5-3.3.9-1.2-.7-1.5-2.2-.9-3.3.7-1.2 2.2-1.5 3.3-.9 1.1.7 1.5 2.1.9 3.3zm1.3.8c1.1-1.9.4-4.3-1.4-5.4-1.9-1.1-4.3-.4-5.4 1.4-1.1 1.9-.4 4.3 1.4 5.4 1.9 1.1 4.3.5 5.4-1.4zM38.2 83.3c-.7 1.2-2.2 1.5-3.3.9-1.2-.7-1.5-2.2-.9-3.3.7-1.2 2.2-1.5 3.3-.9 1.2.7 1.5 2.1.9 3.3zm1.3.8c1.1-1.9.4-4.3-1.4-5.4-1.9-1.1-4.3-.4-5.4 1.4-1.1 1.9-.4 4.3 1.4 5.4 1.9 1.1 4.3.4 5.4-1.4zm-16.4 25.2c-.7 1.2-2.2 1.5-3.3.9-1.2-.7-1.5-2.2-.9-3.3.7-1.2 2.2-1.5 3.3-.9 1.2.6 1.6 2.2.9 3.3zm1.4.7c1.1-1.9.4-4.3-1.4-5.4-1.9-1.1-4.3-.4-5.4 1.4-1.1 1.9-.4 4.3 1.4 5.4 1.9 1.2 4.3.6 5.4-1.4z"/></g><g transform="translate(304.898 351.334)"><circle clip-rule="evenodd" cx="4.1" cy="154.6" fill-rule="evenodd" r="4"/><path d="M6.6 4.2c0 1.3-1.1 2.4-2.4 2.4S1.7 5.5 1.7 4.2s1.1-2.4 2.4-2.4 2.5 1.1 2.5 2.4zm1.5 0c0-2.2-1.8-4-4-4s-4 1.8-4 4 1.8 4 4 4 4-1.8 4-4zm-1.5 30c0 1.3-1.1 2.4-2.4 2.4s-2.4-1.1-2.4-2.4 1.1-2.4 2.4-2.4 2.4 1.1 2.4 2.4zm1.5 0c0-2.2-1.8-4-4-4s-4 1.8-4 4 1.8 4 4 4 4-1.8 4-4zM6.6 64.4c0 1.3-1.1 2.4-2.4 2.4s-2.4-1.1-2.4-2.4S2.9 62 4.2 62c1.3-.2 2.4.9 2.4 2.4zm1.5 0c0-2.2-1.8-4-4-4s-4 1.8-4 4 1.8 4 4 4 4-1.8 4-4zm-1.5 30c0 1.3-1.1 2.4-2.4 2.4s-2.4-1.1-2.4-2.4S2.9 92 4.2 92s2.4 1.1 2.4 2.4zm1.5 0c0-2.2-1.8-4-4-4s-4 1.8-4 4 1.8 4 4 4 4-1.8 4-4zm-1.5 30.1c0 1.3-1.1 2.4-2.4 2.4s-2.4-1.1-2.4-2.4 1.1-2.4 2.4-2.4 2.4 1 2.4 2.4zm1.5 0c0-2.2-1.8-4-4-4s-4 1.8-4 4 1.8 4 4 4 4-1.8 4-4z"/></g><g transform="translate(354.714 338.129)"><circle clip-rule="evenodd" cx="79.8" cy="134.1" fill-rule="evenodd" r="4"/><path d="M6.6 2.8c.7 1.2.2 2.6-.9 3.3-1.2.6-2.6.2-3.3-.9-.6-1.2-.2-2.7.9-3.3 1.2-.8 2.6-.4 3.3.9zM8 2C6.9.1 4.5-.6 2.6.6S.1 4.1 1.2 5.9s3.5 2.5 5.4 1.4S9 3.9 8 2zm13.7 26.7c.7 1.2.2 2.6-.9 3.3-1.2.7-2.6.2-3.3-.9-.7-1.2-.2-2.6.9-3.3s2.6-.2 3.3.9zM23 28c-1.1-1.9-3.5-2.5-5.4-1.4s-2.5 3.5-1.4 5.4 3.5 2.5 5.4 1.4c1.8-1 2.5-3.6 1.4-5.4zm13.8 26.8c.7 1.2.2 2.6-.9 3.3-1.2.7-2.6.2-3.3-.9-.7-1.2-.2-2.6.9-3.3 1.1-.6 2.6-.3 3.3.9zm1.3-.8c-1.1-1.9-3.5-2.5-5.4-1.4s-2.5 3.5-1.4 5.4 3.5 2.5 5.4 1.4c1.8-1.1 2.5-3.5 1.4-5.4zm13.6 26.9c.7 1.2.2 2.6-.9 3.3-1.2.7-2.6.2-3.3-.9-.7-1.2-.2-2.6.9-3.3 1.2-.8 2.7-.3 3.3.9zm1.5-.8c-1.1-1.9-3.5-2.5-5.4-1.4s-2.5 3.5-1.4 5.4 3.5 2.5 5.4 1.4c1.8-1.1 2.3-3.5 1.4-5.4zm13.6 26.8c.7 1.2.2 2.6-.9 3.3-1.2.7-2.6.2-3.3-.9-.7-1.2-.2-2.6.9-3.3s2.6-.2 3.3.9zm1.3-.8c-1.1-1.9-3.5-2.5-5.4-1.4s-2.5 3.5-1.4 5.4 3.5 2.5 5.4 1.4 2.5-3.4 1.4-5.4z"/></g><g transform="translate(392.129 300.714)"><circle clip-rule="evenodd" cx="134.2" cy="79.8" fill-rule="evenodd" r="4"/><path d="M5.2 2.4c1.2.7 1.5 2.2.9 3.3-.7 1.2-2.2 1.6-3.3.9-1.3-.7-1.6-2.2-.9-3.3S4 1.8 5.2 2.4zm.7-1.3C4.1 0 1.7.7.6 2.5S.1 6.8 2 7.9s4.3.4 5.4-1.4.4-4.3-1.5-5.4zm25.2 16.4c1.2.7 1.5 2.2.9 3.3-.7 1.2-2.2 1.5-3.3.9-1.2-.7-1.5-2.2-.9-3.3.7-1.2 2.2-1.6 3.3-.9zm.8-1.3c-1.9-1.1-4.3-.4-5.4 1.4s-.4 4.3 1.5 5.4 4.3.4 5.4-1.4c1-1.9.5-4.3-1.5-5.4zm25.3 16.3c1.2.7 1.5 2.2.9 3.3-.7 1.2-2.2 1.5-3.3.9-1.2-.7-1.5-2.2-.9-3.3.7-1.2 2.1-1.6 3.3-.9zm.8-1.4c-1.9-1.1-4.3-.4-5.4 1.4-1.1 1.9-.4 4.3 1.4 5.4 1.9 1.1 4.3.4 5.4-1.4s.5-4.3-1.4-5.4zm25.3 16.4c1.2.7 1.5 2.2.9 3.3-.7 1.2-2.2 1.5-3.3.9-1.2-.7-1.5-2.2-.9-3.3.7-1.1 2.1-1.5 3.3-.9zm.8-1.3c-1.9-1.1-4.3-.4-5.4 1.4-1.1 1.9-.4 4.3 1.4 5.4 1.9 1.1 4.3.4 5.4-1.4 1.1-1.9.4-4.3-1.4-5.4zm25.2 16.4c1.2.7 1.5 2.2.9 3.3-.7 1.2-2.2 1.5-3.3.9-1.2-.7-1.5-2.2-.9-3.3.6-1.2 2.2-1.5 3.3-.9zm.7-1.3c-1.9-1.1-4.3-.4-5.4 1.4-1.1 1.9-.4 4.3 1.4 5.4 1.9 1.1 4.3.4 5.4-1.4 1.3-1.9.6-4.3-1.4-5.4z"/></g><g transform="translate(54 250.898)"><circle clip-rule="evenodd" cx="4.1" cy="4.1" fill-rule="evenodd" r="4"/><path d="M154.5 6.6c-1.3 0-2.4-1.1-2.4-2.4s1.1-2.4 2.4-2.4 2.4 1.1 2.4 2.4-1.1 2.4-2.4 2.4zm0 1.5c2.2 0 4-1.8 4-4s-1.8-4-4-4-4 1.8-4 4 1.8 4 4 4zm-30.1-1.5c-1.3 0-2.4-1.1-2.4-2.4s1.1-2.4 2.4-2.4 2.4 1.1 2.4 2.4-1.1 2.4-2.4 2.4zm0 1.5c2.2 0 4-1.8 4-4s-1.8-4-4-4-4 1.8-4 4 1.8 4 4 4zm-30-1.5c-1.3 0-2.4-1.1-2.4-2.4s1.1-2.4 2.4-2.4 2.4 1.1 2.4 2.4-1.1 2.4-2.4 2.4zm0 1.5c2.2 0 4-1.8 4-4s-1.8-4-4-4-4 1.8-4 4 1.8 4 4 4zM64.2 6.6c-1.3 0-2.4-1.1-2.4-2.4s1.1-2.4 2.4-2.4 2.4 1.1 2.4 2.4-1 2.4-2.4 2.4zm0 1.5c2.2 0 4-1.8 4-4s-1.8-4-4-4-4 1.8-4 4 1.8 4 4 4zm-30-1.5c-1.3 0-2.4-1.1-2.4-2.4s1.1-2.4 2.4-2.4 2.4 1.1 2.4 2.4-1.1 2.4-2.4 2.4zm0 1.5c2.2 0 4-1.8 4-4s-1.8-4-4-4-4 1.8-4 4 1.8 4 4 4z"/></g><g transform="translate(86.21 300.714)"><circle clip-rule="evenodd" cx="5.5" cy="79.8" fill-rule="evenodd" r="4"/><path d="M137 6.6c-1.2.7-2.6.2-3.3-.9s-.2-2.6.9-3.3c1.2-.7 2.6-.2 3.3.9.6 1.2.2 2.6-.9 3.3zm.8 1.4c1.9-1.1 2.5-3.5 1.4-5.4s-3.5-2.5-5.4-1.4-2.5 3.5-1.4 5.4c1 1.9 3.4 2.5 5.4 1.4zm-26.9 13.7c-1.2.7-2.6.2-3.3-.9-.7-1.2-.2-2.6.9-3.3 1.2-.7 2.6-.2 3.3.9.7 1.2.3 2.6-.9 3.3zm.8 1.3c1.9-1.1 2.5-3.5 1.4-5.4s-3.5-2.5-5.4-1.4-2.5 3.5-1.4 5.4c1.1 1.8 3.5 2.5 5.4 1.4zM84.8 36.8c-1.2.7-2.6.2-3.3-.9-.7-1.2-.2-2.6.9-3.3 1.2-.7 2.6-.2 3.3.9s.4 2.6-.9 3.3zm.8 1.3c1.9-1.1 2.5-3.5 1.4-5.4s-3.5-2.5-5.4-1.4-2.5 3.5-1.4 5.4c1.1 1.8 3.5 2.5 5.4 1.4zM58.9 51.7c-1.2.7-2.6.2-3.3-.9s-.2-2.6.9-3.3c1.2-.7 2.6-.2 3.3.9.6 1.2.2 2.7-.9 3.3zm.7 1.5c1.9-1.1 2.5-3.5 1.4-5.4s-3.5-2.5-5.4-1.4-2.5 3.5-1.4 5.4c1 1.8 3.5 2.5 5.4 1.4zM32.8 66.8c-1.2.7-2.6.2-3.3-.9-.7-1.2-.2-2.6.9-3.3 1.2-.7 2.6-.2 3.3.9.6 1.2.2 2.6-.9 3.3zm.8 1.3c1.9-1.1 2.5-3.5 1.4-5.4s-3.5-2.5-5.4-1.4-2.5 3.5-1.4 5.4 3.5 2.5 5.4 1.4z"/></g><g clip-rule="evenodd" fill-rule="evenodd"><circle cx="2.7" cy="2.8" opacity=".43" r="1.5" transform="translate(464.032 94.676)"/><circle cx="2.2" cy="2.1" opacity=".358" r="1.2" transform="translate(443.074 116.748)"/><circle cx="3.3" cy="3.5" opacity=".444" r="2.2" transform="translate(420.713 136.612)"/><circle cx="1.8" cy="1.8" opacity=".36" r="1.2" transform="translate(350.024 96.584)"/><circle cx="2.8" cy="3.3" opacity=".412" r="2" transform="translate(356.736 65.982)"/><circle cx="2.6" cy="2.1" opacity=".49" r="1.4" transform="translate(364.756 38.094)"/><circle cx="2.7" cy="2" opacity=".359" r="1.4" transform="translate(400.054 159.489)"/><circle cx="2.4" cy="2.3" opacity=".401" r="1.4" transform="translate(341.592 125.277)"/><circle cx="1.1" cy="1.3" opacity=".328" r="1" transform="translate(380.2 181.56)"/><circle cx="3.4" cy="2.8" opacity=".242" r="2" transform="translate(332.767 153.877)"/><circle cx="2.3" cy="2.5" opacity=".211" r="1.7" transform="translate(281.634 154.27)"/><circle cx="2.1" cy="2.1" opacity=".456" r="1.3" transform="translate(236.8 180.756)"/><circle cx="3.7" cy="3.1" opacity=".275" r="2" transform="translate(209.038 224.9)"/><circle cx="2.4" cy="2.4" opacity=".393" r="1.5" transform="translate(210.327 277.872)"/><circle cx="3.1" cy="2.7" opacity=".221" r="1.9" transform="translate(180.544 285.298)"/><circle cx="1.9" cy="1.7" opacity=".41" r="1.2" transform="translate(152.669 294.127)"/><circle cx="2.5" cy="2.6" opacity=".424" r="1.7" transform="translate(122.886 301.047)"/><circle cx="4.3" cy="4.9" opacity=".259" r="3" transform="translate(92 306.565)"/><circle cx="3.2" cy="3.3" opacity=".207" r="1.9" transform="translate(235.698 322.015)"/><circle cx="2.3" cy="2.3" opacity=".208" r="1.5" transform="translate(281.727 349.212)"/><circle cx="2.3" cy="1.9" opacity=".28" r="1.2" transform="translate(333.87 349.605)"/><circle cx="2.5" cy="2.3" opacity=".226" r="1.5" transform="translate(378.797 323.119)"/><circle cx="2.3" cy="2.3" opacity=".484" r="1.5" transform="translate(405.177 277.872)"/><circle cx="2.3" cy="2.4" opacity=".447" r="1.2" transform="translate(434.25 285.597)"/><circle cx="2.7" cy="2.7" opacity=".428" r="1.9" transform="translate(462.93 293.023)"/><circle cx="2.1" cy="1.7" opacity=".355" r="1.2" transform="translate(492.712 301.852)"/><circle cx="2.5" cy="2.6" opacity=".463" r="1.7" transform="translate(521.392 308.772)"/><circle cx="2.7" cy="2.6" opacity=".33" r="1.7" transform="translate(400.054 344.087)"/><circle cx="1.9" cy="1.9" opacity=".246" r="1" transform="translate(422.116 366.159)"/><circle cx="3.3" cy="3.3" opacity=".232" r="2.2" transform="translate(441.97 386.024)"/><circle cx="2.7" cy="2.6" opacity=".24" r="1.4" transform="translate(464.032 408.095)"/><circle cx="2.7" cy="2.6" opacity=".323" r="1.8" transform="translate(341.293 378)"/><circle cx="3.6" cy="3.8" opacity=".266" r="2.2" transform="translate(348.21 405.888)"/><circle cx="2.6" cy="2.4" opacity=".267" r="1.5" transform="translate(357.035 436.49)"/><circle cx="1.9" cy="2.5" opacity=".398" r="1.3" transform="translate(365.467 465.482)"/><circle cx="2.2" cy="2.3" opacity=".208" r="1.4" transform="translate(274.006 378.298)"/><circle cx="3" cy="3" opacity=".249" r="2.1" transform="translate(265.48 406.693)"/><circle cx="2.9" cy="3.2" opacity=".328" r="2" transform="translate(257.759 435.685)"/><circle cx="2.8" cy="2.5" opacity=".203" r="1.5" transform="translate(250.038 465.482)"/><circle cx="2.9" cy="2.6" opacity=".472" r="1.7" transform="translate(214.74 344.087)"/><circle cx="2.4" cy="3" opacity=".47" r="1.7" transform="translate(193.781 365.055)"/><circle cx="3.5" cy="3.6" opacity=".393" r="2.4" transform="translate(171.42 385.725)"/><circle cx="1.8" cy="1.8" opacity=".222" r="1.1" transform="translate(151.865 408.9)"/><circle cx="2.4" cy="2.4" opacity=".424" r="1.7" transform="translate(181.255 217.885)"/><circle cx="2" cy="1.9" opacity=".276" r="1.3" transform="translate(152.575 210.553)"/><circle cx="2.2" cy="1.8" opacity=".324" r="1.1" transform="translate(123.185 202.828)"/><circle cx="1.7" cy="1.7" opacity=".234" r="1.1" transform="translate(94.505 195.102)"/><circle cx="4" cy="3.9" opacity=".375" r="2.4" transform="translate(213.636 157.58)"/><circle cx="2.4" cy="2.5" opacity=".202" r="1.3" transform="translate(193.781 137.716)"/><circle cx="3.5" cy="3.5" opacity=".448" r="2.3" transform="translate(171.42 115.345)"/><circle cx="2.1" cy="2" opacity=".282" r="1.3" transform="translate(151.566 95.48)"/><circle cx="1.9" cy="2" opacity=".378" r="1.2" transform="translate(274.305 125.576)"/><circle cx="2.9" cy="2.6" opacity=".223" r="1.7" transform="translate(265.48 95.78)"/><circle cx="3.1" cy="3.3" opacity=".324" r="2.1" transform="translate(257.46 65.982)"/><circle cx="2.7" cy="2.2" opacity=".21" r="1.5" transform="translate(250.038 38)"/><circle cx="3.2" cy="3.1" opacity=".468" r="2.1" transform="translate(404.167 224.9)"/><circle cx="2.7" cy="3.1" opacity=".416" r="1.9" transform="translate(433.857 217.174)"/><circle cx="2" cy="1.9" opacity=".414" r="1.2" transform="translate(463.733 210.553)"/><circle cx="3.2" cy="3.2" opacity=".452" r="2.1" transform="translate(491.609 201.425)"/><circle cx="2.5" cy="2.8" opacity=".289" r="1.5" transform="translate(521.392 193.999)"/><g transform="translate(57 3)"><ellipse cx="187.2" cy="9" rx="1" ry="1"/><ellipse cx="495.6" cy="186.9" rx="1" ry="1"/><ellipse cx="430.4" cy="74.1" rx="2" ry="2" transform="rotate(-45.001 430.423 74.122)"/><ellipse cx="317.5" cy="9.1" rx="2.2" ry="2.2" transform="rotate(-75.001 317.52 9.054)"/><circle cx="74.2" cy="74.2" r="2.2"/><ellipse cx="9.1" cy="186.9" rx="2.3" ry="2.3" transform="rotate(-75.001 9.123 186.935)"/><ellipse cx="187.2" cy="494.9" rx="1.8" ry="1.8" transform="rotate(-75.001 187.158 494.9)"/><ellipse cx="317.6" cy="494.8" rx="2.1" ry="2.1" transform="rotate(-14.999 317.565 494.845)"/><circle cx="430.5" cy="429.8" r="1.2"/><ellipse cx="495.6" cy="317" rx="1.9" ry="1.9" transform="rotate(-75.001 495.66 317.044)"/><ellipse cx="9.1" cy="317.1" rx="2.3" ry="2.3" transform="rotate(-14.999 9.053 317.055)"/><circle cx="74.2" cy="429.8" r="3.2"/><ellipse cx="156" cy="19.6" rx="2.2" ry="2.2" transform="rotate(-22.5 155.965 19.636)"/><ellipse cx="485" cy="155.7" rx="1" ry="1"/><ellipse cx="405.7" cy="52.4" rx="1" ry="1"/><ellipse cx="285.2" cy="2.7" rx="1.4" ry="1.4" transform="rotate(-82.501 285.22 2.704)"/><ellipse cx="52.6" cy="98.9" rx="1.4" ry="1.4" transform="rotate(-52.5 52.605 98.891)"/><ellipse cx="2.6" cy="219.2" rx="2.3" ry="2.3" transform="rotate(-82.501 2.642 219.165)"/><ellipse cx="219.4" cy="501.2" rx="1.4" ry="1.4" transform="rotate(-82.501 219.453 501.272)"/><ellipse cx="348.7" cy="484.3" rx="1.8" ry="1.8" transform="rotate(-22.5 348.732 484.256)"/><ellipse cx="452.2" cy="405.1" rx="1.3" ry="1.3" transform="rotate(-52.5 452.186 405.064)"/><ellipse cx="502" cy="284.8" rx="1.5" ry="1.5" transform="rotate(-82.501 502.027 284.806)"/><ellipse cx="19.7" cy="348.2" rx="2" ry="2" transform="rotate(-22.5 19.663 348.176)"/><ellipse cx="99.1" cy="451.5" rx="1" ry="1"/><ellipse cx="219.5" cy="2.7" rx="2.3" ry="2.3" transform="rotate(-7.499 219.48 2.652)"/><ellipse cx="502" cy="219.1" rx="1.3" ry="1.3" transform="rotate(-7.499 502.035 219.15)"/><ellipse cx="452.2" cy="98.9" rx="1.9" ry="1.9" transform="rotate(-37.5 452.151 98.932)"/><ellipse cx="348.7" cy="19.7" rx="1" ry="1"/><ellipse cx="99.1" cy="52.5" rx="2.3" ry="2.3" transform="rotate(-37.5 99.092 52.465)"/><ellipse cx="19.7" cy="155.8" rx="1.9" ry="1.9" transform="rotate(-67.5 19.663 155.75)"/><ellipse cx="156" cy="484.3" rx="1.2" ry="1.2" transform="rotate(-67.5 155.984 484.261)"/><ellipse cx="285.2" cy="501.2" rx="2.3" ry="2.3" transform="rotate(-7.499 285.192 501.254)"/><ellipse cx="405.7" cy="451.4" rx="2.3" ry="2.3" transform="rotate(-37.5 405.7 451.354)"/><ellipse cx="485" cy="348.2" rx="2.9" ry="2.9" transform="rotate(-67.5 485.034 348.162)"/><ellipse cx="2.6" cy="284.7" rx="1" ry="1"/><ellipse cx="52.6" cy="405.1" rx="1" ry="1"/></g></g></g></svg>