<svg xmlns="http://www.w3.org/2000/svg" width="63" height="63"><g fill="none" fill-rule="evenodd"><circle cx="31.5" cy="31.5" r="31.5" fill="#12141C" fill-rule="nonzero"/><path fill="#FFF" d="M36.994 27.903v-2.219H25.103v2.22h11.891zm-3.783 6.316V32h-8.108v2.22h8.108zm-8.108-5.377v2.22h11.891v-2.22H25.103zM39.029 22c.545 0 1.01.197 1.394.592.385.395.577.872.577 1.431v11.81a2.06 2.06 0 0 1-.577 1.455c-.385.411-.85.617-1.394.617H24.99L21 42V24.023c0-.56.192-1.036.577-1.43.385-.396.85-.593 1.394-.593H39.03z"/></g></svg>