<?xml version="1.0" encoding="UTF-8"?>
<svg width="24px" height="24px" viewBox="0 0 24 24" version="1.1" xmlns="http://www.w3.org/2000/svg" xmlns:xlink="http://www.w3.org/1999/xlink">
    <title>Mail</title>
    <defs>
        <polygon id="path-1" points="0 0 24 0 24 24 0 24"></polygon>
    </defs>
    <g id="Design_new-exploration" stroke="none" stroke-width="1" fill="none" fill-rule="evenodd">
        <g id="1440-Contact" transform="translate(-593.000000, -1043.000000)">
            <g id="Contact-Details" transform="translate(0.000000, 988.000000)">
                <g id="Mail" transform="translate(593.000000, 55.000000)">
                    <mask id="mask-2" fill="white">
                        <use xlink:href="#path-1"></use>
                    </mask>
                    <g id="Clip-2"></g>
                    <path d="M20.5714286,9.95223214 L20.5714286,17.5714286 C20.5714286,18.2815179 19.9958036,18.8571429 19.2857143,18.8571429 L4.71428571,18.8571429 C4.00419643,18.8571429 3.42857143,18.2815179 3.42857143,17.5714286 L3.42857143,9.95223214 C4.17632143,10.5304821 5.21405357,11.3041607 8.53408929,13.7136964 C9.29276786,14.2676786 10.5684643,15.43575 11.9998393,15.4285179 C13.4402143,15.4356964 14.7339643,14.24775 15.4669821,13.7128929 C18.7861607,11.3040536 19.8236786,10.5304286 20.5714286,9.95223214 M9.54198214,12.327 C4.68369643,8.80108929 4.73319643,8.79219643 3.42857143,7.77680357 L3.42857143,6.42857143 C3.42857143,5.71848214 4.00419643,5.14285714 4.71428571,5.14285714 L19.2857143,5.14285714 C19.9958036,5.14285714 20.5714286,5.71848214 20.5714286,6.42857143 L20.5714286,7.77680357 C19.2658393,8.793 19.3160357,8.80130357 14.4580179,12.3270536 C13.8955179,12.7371429 12.7763036,13.7263393 12,13.7142321 C11.2230536,13.7259107 10.1053393,12.7377857 9.54198214,12.327 M21.4285714,0 L2.57142857,0 C1.15125,0 0,1.15125 0,2.57142857 L0,21.4285714 C0,22.84875 1.15125,24 2.57142857,24 L21.4285714,24 C22.84875,24 24,22.84875 24,21.4285714 L24,2.57142857 C24,1.15125 22.84875,0 21.4285714,0" id="Fill-1" fill="#000000" mask="url(#mask-2)"></path>
                </g>
            </g>
        </g>
    </g>
</svg>