<svg xmlns="http://www.w3.org/2000/svg" width="18" height="23"><g fill="#12141C" fill-rule="nonzero"><ellipse cx="1.67" cy="9.91" rx="1.16" ry="1.1"/><ellipse cx="1.16" cy="6.97" rx="1.16" ry="1.1"/><ellipse cx="2.7" cy="12.85" rx="1.16" ry="1.1"/><ellipse cx="5.79" cy="11.38" rx="1.16" ry="1.1"/><ellipse cx="5.79" cy="7.95" rx="1.16" ry="1.1"/><ellipse cx="4.76" cy="15.29" rx="1.16" ry="1.1"/><ellipse cx="5.79" cy="4.53" rx="1.16" ry="1.1"/><ellipse cx="9.39" cy="9.91" rx="1.16" ry="1.1"/><ellipse cx="9.39" cy="6.48" rx="1.16" ry="1.1"/><ellipse cx="16.59" cy="12.36" rx="1.16" ry="1.1"/><ellipse cx="12.99" cy="10.4" rx="1.16" ry="1.1"/><ellipse cx="16.59" cy="8.93" rx="1.16" ry="1.1"/><ellipse cx="12.99" cy="6.97" rx="1.16" ry="1.1"/><ellipse cx="12.99" cy="21.65" rx="1.16" ry="1.1"/><ellipse cx="16.59" cy="15.78" rx="1.16" ry="1.1"/><ellipse cx="15.04" cy="18.72" rx="1.16" ry="1.1"/><ellipse cx="9.39" cy="21.65" rx="1.16" ry="1.1"/><ellipse cx="5.27" cy="18.38" rx="1.16" ry="1.1"/><ellipse cx="5.79" cy="21.65" rx="1.16" ry="1.1"/><ellipse cx="5.79" cy="1.1" rx="1.16" ry="1.1"/></g></svg>
