<svg viewBox="0 0 512 512" xmlns="http://www.w3.org/2000/svg"><path d="M256 50l102 1c24 1 38 5 47 9 11 4 20 10 29 19 8 8 14 17 18 29 4 8 8 22 9 46 1 27 2 35 2 102l-2 102c-1 25-5 38-9 47a77 77 0 0 1-48 48c-8 3-22 7-46 8-27 1-35 2-102 2l-102-2c-24-1-38-5-47-8-11-5-20-10-29-19-8-9-14-17-18-29-4-9-8-22-9-47-1-27-2-35-2-102l2-102c1-24 5-38 9-46a77 77 0 0 1 48-48c8-4 22-8 46-9zm0-46c-68 0-77 0-104 2-27 1-45 5-61 11a125 125 0 0 0-74 74c-6 16-10 34-11 61-2 27-2 36-2 104s0 77 2 104c1 27 5 45 11 61a125 125 0 0 0 74 74c16 6 34 10 61 12l104 1 104-1c27-2 45-6 61-12a125 125 0 0 0 74-74c6-16 10-34 12-61l1-104-1-104c-2-27-6-45-12-61a125 125 0 0 0-74-74c-16-6-34-10-61-12z"/><path d="M256 127a129 129 0 1 0 0 258 129 129 0 0 0 0-258zm0 213a84 84 0 1 1 0-168 84 84 0 0 1 0 168z"/><circle cx="391" cy="122" r="30"/></svg>