<?xml version="1.0" encoding="UTF-8"?>
<svg width="24px" height="24px" viewBox="0 0 24 24" version="1.1" xmlns="http://www.w3.org/2000/svg" xmlns:xlink="http://www.w3.org/1999/xlink">
    <title>Phone</title>
    <defs>
        <polygon id="path-1" points="0 0 24 0 24 24 0 24"></polygon>
    </defs>
    <g id="Design_new-exploration" stroke="none" stroke-width="1" fill="none" fill-rule="evenodd">
        <g id="1440-Contact" transform="translate(-593.000000, -1083.000000)">
            <g id="Contact-Details" transform="translate(0.000000, 988.000000)">
                <g id="Phone" transform="translate(593.000000, 95.000000)">
                    <mask id="mask-2" fill="white">
                        <use xlink:href="#path-1"></use>
                    </mask>
                    <g id="Clip-2"></g>
                    <path d="M20.5505357,16.46625 L19.7469643,19.9483929 C19.6629107,20.3129464 19.338375,20.5714286 18.9642857,20.5714286 C10.3928571,20.5714286 3.42857143,13.6226786 3.42857143,5.03571429 C3.44164286,4.66623214 3.6945,4.34860714 4.05160714,4.25303571 L7.53375,3.44946429 C7.59310714,3.436875 7.65358929,3.42991071 7.71428571,3.42857143 C8.03073214,3.44453571 8.31358929,3.63096429 8.45303571,3.91553571 L10.0601786,7.66553571 C10.0995536,7.766625 10.1214643,7.87366071 10.125,7.98214286 C10.1119286,8.22 10.006125,8.44328571 9.83035714,8.60410714 L7.80053571,10.2648214 C9.03042857,12.8715 11.1284464,14.9695714 13.735125,16.1994643 L15.3958393,14.1696429 C15.5566607,13.993875 15.7799464,13.8880714 16.0178571,13.875 C16.1262857,13.8784286 16.2333214,13.9003929 16.3344643,13.9398214 L20.0844643,15.5469643 C20.3691429,15.6861964 20.5556786,15.9691607 20.5714286,16.2857143 C20.5703571,16.3464107 20.5633393,16.4068929 20.5505357,16.46625 M21.4285714,0 L2.57142857,0 C1.15125,0 0,1.15125 0,2.57142857 L0,21.4285714 C0,22.84875 1.15125,24 2.57142857,24 L21.4285714,24 C22.8486964,24 24,22.84875 24,21.4285714 L24,2.57142857 C24,1.15125 22.8486964,0 21.4285714,0" id="Fill-1" fill="#000000" mask="url(#mask-2)"></path>
                </g>
            </g>
        </g>
    </g>
</svg>