<svg xmlns="http://www.w3.org/2000/svg" viewBox="0 0 400 400"><path fill="#fff" d="M243.2 316.6c1.3 8.3 1.2 8.8-6.3 9.8-21 2.7-39-3.5-51.4-20.9a1197 1197 0 0 1-39.3-59c-3.6-5.7-6.6-10-14.2-9-4.7.5-9.6 0-14.9 0v12c.3 16.7.2 33.6 1 50.4.5 9 4.2 12 13 13.5 4.8.8 9.6 1.4 14.6 2v8.6H69.2l-.3-1.8c-1-5 .7-7.9 6.1-8 2.2 0 4.3-.8 6.4-1.2 5.8-1 9.3-4.5 10.4-10 .9-4.8 1.4-9.7 1.4-14.5v-122c0-4.6-.5-9.2-1.4-13.8-1-6-4.7-9.7-11-10.7-3.8-.6-7.7-1.5-11.7-2.3V131h7.6c24.7-.3 49.3-1 74-.7 8.8.1 18 1.8 26.4 4.5 33.6 10.8 38.4 44.5 28.6 66.2-7 15.9-19 26.7-35.5 32.2l-3.5 1.4a369.8 369.8 0 0 0 49 67.6 45.6 45.6 0 0 0 27.5 14.5zM117.5 144.3V223c9.8 0 19.3.6 28.7 0 21.4-1.6 35.1-15.4 37.4-36.7 1.8-17.2-6-32.2-20.3-38.3-14.8-6.3-30.4-3.3-45.8-3.7zm175.6-14.6h-16.5c-3.1.2-4.5-.7-4.4-4.1.3-11.8-1-9.4 9.5-9.6h23c2.4 0 3.8.6 3.7 3.3-.5 8.6 0 17.4-1.3 25.9a32.4 32.4 0 0 1-31.2 28.7c-6.2.4-12.7 0-18.7-1.7-15.2-4.3-22.7-15.8-23.7-30.7a240 240 0 0 1 .4-43.8c2.3-20.4 16.6-31.3 37.3-31a36 36 0 0 1 32.6 17.8c2 3.4 1.7 5.5-2.3 6.5l-1.9.8c-7 2.8-7 2.8-11.5-3.3-5.1-7-14-10-22.7-7.8a21.1 21.1 0 0 0-16 19.5c-.8 13.5-.9 27 0 40.4.7 11.8 9.5 19 21 19.2 11.5.2 19.4-6.3 21.5-18 .7-3.7.8-7.5 1.2-12z"/></svg>