<svg xmlns="http://www.w3.org/2000/svg" width="20" height="23"><g fill="none" fill-rule="nonzero"><path fill="#12141C" d="M11.37 7.64c-.6 0-1.07-.46-1.07-1.04 0-.58.48-1.04 1.07-1.04.59 0 1.06.46 1.06 1.04 0 .58-.47 1.04-1.06 1.04zM8.4 9.64c-.6 0-1.07-.47-1.07-1.05 0-.58.48-1.05 1.07-1.05.59 0 1.07.47 1.07 1.05 0 .58-.48 1.05-1.07 1.05zM8.4 15.77c-.6 0-1.07-.47-1.07-1.05 0-.57.48-1.04 1.07-1.04.59 0 1.07.47 1.07 1.04 0 .58-.48 1.05-1.07 1.05zM11.37 17.57c-.6 0-1.07-.48-1.07-1.06 0-.58.48-1.05 1.07-1.05.59 0 1.06.47 1.06 1.05 0 .58-.47 1.06-1.06 1.06z"/><path stroke="#12141C" d="M3.47 14.08a2.47 2.47 0 1 1 0-4.95 2.47 2.47 0 0 1 0 4.95zM16.13 5.95a2.47 2.47 0 1 1 0-4.95 2.47 2.47 0 0 1 0 4.95zM16.53 22a2.47 2.47 0 1 1 0-4.95 2.47 2.47 0 0 1 0 4.95z"/></g></svg>
