<svg viewBox="0 0 40 40" xmlns="http://www.w3.org/2000/svg" xmlns:xlink="http://www.w3.org/1999/xlink"><defs><path id="a" d="M19 23.98a1.291 1.291 0 0 0-2.58 0c0 .71.58 1.28 1.29 1.28.71-.01 1.29-.58 1.29-1.28z"/><clipPath id="k"><use xlink:href="#a"/></clipPath><clipPath id="l"><use xlink:href="#b"/></clipPath><clipPath id="m"><use xlink:href="#c"/></clipPath><clipPath id="n"><use xlink:href="#d"/></clipPath><clipPath id="o"><use xlink:href="#e"/></clipPath><clipPath id="p"><use xlink:href="#f"/></clipPath><clipPath id="q"><use xlink:href="#g"/></clipPath><clipPath id="r"><use xlink:href="#h"/></clipPath><clipPath id="s"><use xlink:href="#i"/></clipPath><clipPath id="t"><use xlink:href="#j"/></clipPath><path id="b" d="M-614-307H826v1789H-614z"/><path id="c" d="M15.82 21.61a1.291 1.291 0 0 0-2.58 0 1.291 1.291 0 0 0 2.58 0z"/><path id="d" d="M-614-307H826v1789H-614z"/><ellipse id="e" cx="20.1" cy="20.83" rx="1.29" ry="1.28"/><path id="f" d="M-614-307H826v1789H-614z"/><ellipse id="g" cx="24.86" cy="14.53" rx="1.29" ry="1.28"/><path id="h" d="M-614-307H826v1789H-614z"/><path id="i" d="M23.76 17.68a1.291 1.291 0 0 0-2.58 0 1.291 1.291 0 0 0 2.58 0z"/><path id="j" d="M-614-307H826v1789H-614z"/></defs><g fill="#fff"><use xlink:href="#a"/><g clip-path="url(#k)"><use xlink:href="#b"/><path clip-path="url(#l)" d="M11.43 17.7H24v12.55H11.43z"/></g><use xlink:href="#c"/><g clip-path="url(#m)"><use xlink:href="#d"/><path clip-path="url(#n)" d="M8.25 15.34h12.57v12.55H8.25z"/></g><use xlink:href="#e"/><g clip-path="url(#o)"><use xlink:href="#f"/><path clip-path="url(#p)" d="M13.81 14.55h12.57V27.1H13.81z"/></g><use xlink:href="#g"/><g clip-path="url(#q)"><use xlink:href="#h"/><path clip-path="url(#r)" d="M18.57 8.25h12.57V20.8H18.57z"/></g><use xlink:href="#i"/><g clip-path="url(#s)"><use xlink:href="#j"/><path clip-path="url(#t)" d="M16.19 11.4h12.57v12.55H16.19z"/></g></g></svg>