<svg viewBox="0 0 40 40" xmlns="http://www.w3.org/2000/svg"><clipPath id="a"><path d="M19 23.98a1.291 1.291 0 0 0-2.58 0c0 .71.58 1.28 1.29 1.28.71-.01 1.29-.58 1.29-1.28z"/></clipPath><clipPath id="b"><path d="M-614-307H826v1789H-614z"/></clipPath><clipPath id="c"><path d="M15.82 21.61a1.291 1.291 0 0 0-2.58 0 1.291 1.291 0 0 0 2.58 0z"/></clipPath><clipPath id="d"><path d="M-614-307H826v1789H-614z"/></clipPath><clipPath id="e"><ellipse cx="20.1" cy="20.83" rx="1.29" ry="1.28"/></clipPath><clipPath id="f"><path d="M-614-307H826v1789H-614z"/></clipPath><clipPath id="g"><ellipse cx="24.86" cy="14.53" rx="1.29" ry="1.28"/></clipPath><clipPath id="h"><path d="M-614-307H826v1789H-614z"/></clipPath><clipPath id="i"><path d="M23.76 17.68a1.291 1.291 0 0 0-2.58 0 1.291 1.291 0 0 0 2.58 0z"/></clipPath><clipPath id="j"><path d="M-614-307H826v1789H-614z"/></clipPath><g clip-path="url(#a)"><path clip-path="url(#b)" d="M11.43 17.7H24v12.55H11.43z" fill="#12141c"/></g><g clip-path="url(#c)"><path clip-path="url(#d)" d="M8.25 15.34h12.57v12.55H8.25z" fill="#12141c"/></g><g clip-path="url(#e)"><path clip-path="url(#f)" d="M13.81 14.55h12.57V27.1H13.81z" fill="#12141c"/></g><g clip-path="url(#g)"><path clip-path="url(#h)" d="M18.57 8.25h12.57V20.8H18.57z" fill="#12141c"/></g><g clip-path="url(#i)"><path clip-path="url(#j)" d="M16.19 11.4h12.57v12.55H16.19z" fill="#12141c"/></g></svg>