<svg xmlns="http://www.w3.org/2000/svg" width="37" height="18"><g fill="#12141C" fill-rule="nonzero"><path d="M16 13c-.9 0-1.6-.6-1.6-1.5 0-1 .7-1.7 1.6-1.7.9 0 1.6.8 1.6 1.7 0 .9-.7 1.6-1.6 1.6zM16 18c-.9 0-1.6-.7-1.6-1.6 0-1 .7-1.6 1.6-1.6.9 0 1.6.7 1.6 1.6 0 .9-.7 1.6-1.6 1.6zM11.2 18c-.9 0-1.6-.7-1.6-1.6 0-1 .7-1.6 1.6-1.6.9 0 1.6.7 1.6 1.6 0 .9-.7 1.6-1.6 1.6zM6.4 18c-.9 0-1.6-.7-1.6-1.6 0-1 .7-1.6 1.6-1.6.9 0 1.6.7 1.6 1.6 0 .9-.7 1.6-1.6 1.6zM1.6 18C.7 18 0 17.3 0 16.4c0-1 .7-1.6 1.6-1.6.9 0 1.6.7 1.6 1.6 0 .9-.7 1.6-1.6 1.6zM11.2 13c-.9 0-1.6-.6-1.6-1.5 0-1 .7-1.7 1.6-1.7.9 0 1.6.8 1.6 1.7 0 .9-.7 1.6-1.6 1.6zM20.8 13c-.9 0-1.6-.6-1.6-1.5 0-1 .7-1.7 1.6-1.7.9 0 1.6.8 1.6 1.7 0 .9-.7 1.6-1.6 1.6zM20.8 8.2c-.9 0-1.6-.8-1.6-1.7 0-.9.7-1.6 1.6-1.6.9 0 1.6.7 1.6 1.6 0 1-.7 1.7-1.6 1.7zM20.8 18c-.9 0-1.6-.7-1.6-1.6 0-1 .7-1.6 1.6-1.6.9 0 1.6.7 1.6 1.6 0 .9-.7 1.6-1.6 1.6zM25.6 13c-.9 0-1.6-.6-1.6-1.5 0-1 .7-1.7 1.6-1.7.9 0 1.6.8 1.6 1.7 0 .9-.7 1.6-1.6 1.6zM25.6 8.2c-.9 0-1.6-.8-1.6-1.7 0-.9.7-1.6 1.6-1.6.9 0 1.6.7 1.6 1.6 0 1-.7 1.7-1.6 1.7zM25.6 18c-.9 0-1.6-.7-1.6-1.6 0-1 .7-1.6 1.6-1.6.9 0 1.6.7 1.6 1.6 0 .9-.7 1.6-1.6 1.6zM30.4 13c-.9 0-1.6-.6-1.6-1.5 0-1 .7-1.7 1.6-1.7.9 0 1.6.8 1.6 1.7 0 .9-.7 1.6-1.6 1.6zM30.4 8.2c-.9 0-1.6-.8-1.6-1.7 0-.9.7-1.6 1.6-1.6.9 0 1.6.7 1.6 1.6 0 1-.7 1.7-1.6 1.7zM30.4 3.2c-.9 0-1.6-.7-1.6-1.6 0-.9.7-1.6 1.6-1.6.9 0 1.6.7 1.6 1.6 0 1-.7 1.6-1.6 1.6zM30.4 18c-.9 0-1.6-.7-1.6-1.6 0-1 .7-1.6 1.6-1.6.9 0 1.6.7 1.6 1.6 0 .9-.7 1.6-1.6 1.6zM35.2 13c-.9 0-1.6-.6-1.6-1.5 0-1 .7-1.7 1.6-1.7.9 0 1.6.8 1.6 1.7 0 .9-.7 1.6-1.6 1.6zM35.2 8.2c-.9 0-1.6-.8-1.6-1.7 0-.9.7-1.6 1.6-1.6.9 0 1.6.7 1.6 1.6 0 1-.7 1.7-1.6 1.7zM35.2 3.2c-.9 0-1.6-.7-1.6-1.6 0-.9.7-1.6 1.6-1.6.9 0 1.6.7 1.6 1.6 0 1-.7 1.6-1.6 1.6zM35.2 18c-.9 0-1.6-.7-1.6-1.6 0-1 .7-1.6 1.6-1.6.9 0 1.6.7 1.6 1.6 0 .9-.7 1.6-1.6 1.6z"/></g></svg>
