<svg xmlns="http://www.w3.org/2000/svg" width="23" height="21"><g fill="#fff" fill-rule="nonzero"><path d="M16.58 17.72c-.87 0-1.58.7-1.58 1.56 0 .85.7 1.55 1.58 1.55.87 0 1.58-.7 1.58-1.55 0-.86-.7-1.56-1.58-1.56zM16.58 13c-.87 0-1.58.7-1.58 1.55 0 .86.7 1.56 1.58 1.56.87 0 1.58-.7 1.58-1.56 0-.85-.7-1.55-1.58-1.55zM21.39 13c-.87 0-1.58.7-1.58 1.55 0 .86.7 1.56 1.58 1.56.87 0 1.58-.7 1.58-1.56 0-.85-.7-1.55-1.58-1.55zM6.42 17.72c.87 0 1.58.7 1.58 1.56 0 .85-.7 1.55-1.58 1.55-.87 0-1.58-.7-1.58-1.55 0-.86.7-1.56 1.58-1.56zM6.42 13c.87 0 1.58.7 1.58 1.55 0 .86-.7 1.56-1.58 1.56-.87 0-1.58-.7-1.58-1.56 0-.85.7-1.55 1.58-1.55zM1.61 13c.87 0 1.58.7 1.58 1.55 0 .86-.7 1.56-1.58 1.56-.87 0-1.58-.7-1.58-1.56C.03 13.7.73 13 1.6 13z"/><g><path d="M16.58 3.28c-.87 0-1.58-.7-1.58-1.56 0-.85.7-1.55 1.58-1.55.87 0 1.58.7 1.58 1.55 0 .86-.7 1.56-1.58 1.56zM16.58 8C15.71 8 15 7.3 15 6.45c0-.86.7-1.56 1.58-1.56.87 0 1.58.7 1.58 1.56 0 .85-.7 1.55-1.58 1.55zM21.39 8c-.87 0-1.58-.7-1.58-1.55 0-.86.7-1.56 1.58-1.56.87 0 1.58.7 1.58 1.56 0 .85-.7 1.55-1.58 1.55z"/></g><g><path d="M6.42 3.28c.87 0 1.58-.7 1.58-1.56C8 .87 7.3.17 6.42.17c-.87 0-1.58.7-1.58 1.55 0 .86.7 1.56 1.58 1.56zM6.42 8C7.29 8 8 7.3 8 6.45c0-.86-.7-1.56-1.58-1.56-.87 0-1.58.7-1.58 1.56 0 .85.7 1.55 1.58 1.55zM1.61 8c.87 0 1.58-.7 1.58-1.55 0-.86-.7-1.56-1.58-1.56-.87 0-1.58.7-1.58 1.56C.03 7.3.73 8 1.6 8z"/></g></g></svg>
