<svg xmlns="http://www.w3.org/2000/svg" width="37" height="18"><path fill="none" fill-rule="nonzero" stroke="#12141C" stroke-width=".5" d="M16 12.83c.73 0 1.32-.61 1.32-1.37 0-.76-.6-1.37-1.33-1.37-.73 0-1.33.61-1.33 1.37 0 .76.6 1.37 1.33 1.37zm4.8 0c.73 0 1.33-.61 1.33-1.37 0-.76-.6-1.37-1.33-1.37-.73 0-1.33.61-1.33 1.37 0 .76.6 1.37 1.33 1.37zm0-4.92c.73 0 1.33-.61 1.33-1.37 0-.76-.6-1.37-1.33-1.37-.73 0-1.33.61-1.33 1.37 0 .76.6 1.37 1.33 1.37zm0 9.84c.73 0 1.33-.61 1.33-1.37 0-.75-.6-1.37-1.33-1.37-.73 0-1.33.62-1.33 1.37 0 .76.6 1.37 1.33 1.37zm4.8-4.92c.74 0 1.34-.61 1.34-1.37 0-.76-.6-1.37-1.33-1.37-.74 0-1.33.61-1.33 1.37 0 .76.6 1.37 1.33 1.37zm0-4.92c.74 0 1.34-.61 1.34-1.37 0-.76-.6-1.37-1.33-1.37-.74 0-1.33.61-1.33 1.37 0 .76.6 1.37 1.33 1.37zm0 9.84c.74 0 1.34-.61 1.34-1.37 0-.75-.6-1.37-1.33-1.37-.74 0-1.33.62-1.33 1.37 0 .76.6 1.37 1.33 1.37zm4.81-4.92c.74 0 1.33-.61 1.33-1.37 0-.76-.6-1.37-1.33-1.37-.73 0-1.33.61-1.33 1.37 0 .76.6 1.37 1.33 1.37zm0-4.92c.74 0 1.33-.61 1.33-1.37 0-.76-.6-1.37-1.33-1.37-.73 0-1.33.61-1.33 1.37 0 .76.6 1.37 1.33 1.37zm0-4.92c.74 0 1.33-.62 1.33-1.37 0-.76-.6-1.37-1.33-1.37-.73 0-1.33.61-1.33 1.37 0 .75.6 1.37 1.33 1.37zm0 14.76c.74 0 1.33-.61 1.33-1.37 0-.75-.6-1.37-1.33-1.37-.73 0-1.33.62-1.33 1.37 0 .76.6 1.37 1.33 1.37zm4.81-4.92c.73 0 1.33-.61 1.33-1.37 0-.76-.6-1.37-1.33-1.37-.73 0-1.33.61-1.33 1.37 0 .76.6 1.37 1.33 1.37zm0-4.92c.73 0 1.33-.61 1.33-1.37 0-.76-.6-1.37-1.33-1.37-.73 0-1.33.61-1.33 1.37 0 .76.6 1.37 1.33 1.37zm0-4.92c.73 0 1.33-.62 1.33-1.37 0-.76-.6-1.37-1.33-1.37-.73 0-1.33.61-1.33 1.37 0 .75.6 1.37 1.33 1.37zm0 14.76c.73 0 1.33-.61 1.33-1.37 0-.75-.6-1.37-1.33-1.37-.73 0-1.33.62-1.33 1.37 0 .76.6 1.37 1.33 1.37zm-19.23 0c.74 0 1.33-.61 1.33-1.37 0-.75-.6-1.37-1.33-1.37-.73 0-1.33.62-1.33 1.37 0 .76.6 1.37 1.33 1.37zm-4.8 0c.73 0 1.33-.61 1.33-1.37 0-.75-.6-1.37-1.33-1.37-.74 0-1.33.62-1.33 1.37 0 .76.6 1.37 1.33 1.37zm-4.81 0c.73 0 1.33-.61 1.33-1.37 0-.75-.6-1.37-1.33-1.37-.73 0-1.33.62-1.33 1.37 0 .76.6 1.37 1.33 1.37zm-4.8 0c.73 0 1.33-.61 1.33-1.37 0-.75-.6-1.37-1.33-1.37-.73 0-1.33.62-1.33 1.37 0 .76.6 1.37 1.33 1.37zm9.6-4.92c.74 0 1.34-.61 1.34-1.37 0-.76-.6-1.37-1.33-1.37-.74 0-1.33.61-1.33 1.37 0 .76.6 1.37 1.33 1.37z"/></svg>
