<svg height="28" width="30" xmlns="http://www.w3.org/2000/svg"><g fill="#12141c"><circle cx="28" cy="8" r="2"/><circle cx="28" cy="2" r="2"/><circle cx="22" cy="2" r="2"/><circle cx="2" cy="8" r="2" transform="matrix(-1 0 0 1 4 0)"/><circle cx="2" cy="2" r="2" transform="matrix(-1 0 0 1 4 0)"/><circle cx="8" cy="2" r="2" transform="matrix(-1 0 0 1 16 0)"/><circle cx="28" cy="20" r="2"/><circle cx="28" cy="26" r="2"/><circle cx="22" cy="26" r="2"/><circle cx="2" cy="20" r="2" transform="matrix(-1 0 0 1 4 0)"/><circle cx="2" cy="26" r="2" transform="matrix(-1 0 0 1 4 0)"/><circle cx="8" cy="26" r="2" transform="matrix(-1 0 0 1 16 0)"/></g></svg>